NotoSerifTelugu-Light.ufo
<glyph name="exclam.telu" format="2">
  <advance width="270"/>
  <unicode hex="0021"/>
  <outline>
    <contour>
      <point x="126" y="176" type="line"/>
      <point x="148" y="176" type="line"/>
      <point x="150" y="657" type="line"/>
      <point x="122" y="657" type="line"/>
    </contour>
    <contour>
      <point x="135" y="-5" type="curve" smooth="yes"/>
      <point x="151" y="-5"/>
      <point x="164" y="4"/>
      <point x="164" y="35" type="curve" smooth="yes"/>
      <point x="164" y="65"/>
      <point x="151" y="73"/>
      <point x="135" y="73" type="curve" smooth="yes"/>
      <point x="120" y="73"/>
      <point x="106" y="65"/>
      <point x="106" y="35" type="curve" smooth="yes"/>
      <point x="106" y="4"/>
      <point x="120" y="-5"/>
    </contour>
  </outline>
</glyph>
<glyph name="quotedbl.telu" format="2">
  <advance width="400"/>
  <unicode hex="0022"/>
  <outline>
    <contour>
      <point x="265" y="558" type="line"/>
      <point x="285" y="558" type="line"/>
      <point x="295" y="773" type="line"/>
      <point x="253" y="773" type="line"/>
    </contour>
    <contour>
      <point x="117" y="558" type="line"/>
      <point x="137" y="558" type="line"/>
      <point x="147" y="773" type="line"/>
      <point x="105" y="773" type="line"/>
    </contour>
  </outline>
</glyph>
<glyph name="numbersign.telu" format="2">
  <advance width="559"/>
  <unicode hex="0023"/>
  <outline>
    <contour>
      <point x="63" y="429" type="line"/>
      <point x="529" y="429" type="line"/>
      <point x="529" y="454" type="line"/>
      <point x="63" y="454" type="line"/>
    </contour>
    <contour>
      <point x="30" y="203" type="line"/>
      <point x="497" y="203" type="line"/>
      <point x="497" y="228" type="line"/>
      <point x="30" y="228" type="line"/>
    </contour>
    <contour>
      <point x="246" y="651" type="line"/>
      <point x="217" y="651" type="line"/>
      <point x="95" y="0" type="line"/>
      <point x="123" y="0" type="line"/>
    </contour>
    <contour>
      <point x="445" y="651" type="line"/>
      <point x="417" y="651" type="line"/>
      <point x="294" y="0" type="line"/>
      <point x="322" y="0" type="line"/>
    </contour>
  </outline>
</glyph>
<glyph name="percent.telu" format="2">
  <advance width="763"/>
  <unicode hex="0025"/>
  <outline>
    <contour>
      <point x="182" y="0" type="line"/>
      <point x="212" y="0" type="line"/>
      <point x="581" y="649" type="line"/>
      <point x="551" y="649" type="line"/>
    </contour>
    <contour>
      <point x="188" y="276" type="curve" smooth="yes"/>
      <point x="271" y="276"/>
      <point x="321" y="339"/>
      <point x="321" y="469" type="curve" smooth="yes"/>
      <point x="321" y="593"/>
      <point x="278" y="661"/>
      <point x="190" y="661" type="curve" smooth="yes"/>
      <point x="108" y="661"/>
      <point x="58" y="596"/>
      <point x="58" y="469" type="curve" smooth="yes"/>
      <point x="58" y="342"/>
      <point x="104" y="276"/>
    </contour>
    <contour>
      <point x="188" y="301" type="curve" smooth="yes"/>
      <point x="122" y="301"/>
      <point x="84" y="357"/>
      <point x="84" y="469" type="curve" smooth="yes"/>
      <point x="84" y="582"/>
      <point x="123" y="636"/>
      <point x="190" y="636" type="curve" smooth="yes"/>
      <point x="262" y="636"/>
      <point x="295" y="578"/>
      <point x="295" y="469" type="curve" smooth="yes"/>
      <point x="295" y="359"/>
      <point x="258" y="301"/>
    </contour>
    <contour>
      <point x="573" y="-12" type="curve" smooth="yes"/>
      <point x="656" y="-12"/>
      <point x="705" y="51"/>
      <point x="705" y="181" type="curve" smooth="yes"/>
      <point x="705" y="305"/>
      <point x="663" y="373"/>
      <point x="575" y="373" type="curve" smooth="yes"/>
      <point x="493" y="373"/>
      <point x="443" y="308"/>
      <point x="443" y="181" type="curve" smooth="yes"/>
      <point x="443" y="54"/>
      <point x="489" y="-12"/>
    </contour>
    <contour>
      <point x="573" y="13" type="curve" smooth="yes"/>
      <point x="507" y="13"/>
      <point x="469" y="69"/>
      <point x="469" y="181" type="curve" smooth="yes"/>
      <point x="469" y="294"/>
      <point x="508" y="348"/>
      <point x="575" y="348" type="curve" smooth="yes"/>
      <point x="647" y="348"/>
      <point x="679" y="290"/>
      <point x="679" y="181" type="curve" smooth="yes"/>
      <point x="679" y="71"/>
      <point x="643" y="13"/>
    </contour>
  </outline>
</glyph>
<glyph name="quotesingle.telu" format="2">
  <advance width="252"/>
  <unicode hex="0027"/>
  <outline>
    <contour>
      <point x="117" y="558" type="line"/>
      <point x="137" y="558" type="line"/>
      <point x="147" y="773" type="line"/>
      <point x="105" y="773" type="line"/>
    </contour>
  </outline>
</glyph>
<glyph name="parenleft.telu" format="2">
  <advance width="340"/>
  <unicode hex="0028"/>
  <outline>
    <contour>
      <point x="286" y="-364" type="curve"/>
      <point x="286" y="-339" type="line"/>
      <point x="121" y="-266"/>
      <point x="94" y="-53"/>
      <point x="94" y="207" type="curve" smooth="yes"/>
      <point x="94" y="467"/>
      <point x="121" y="680"/>
      <point x="286" y="751" type="curve"/>
      <point x="286" y="776" type="line"/>
      <point x="122" y="715"/>
      <point x="67" y="544"/>
      <point x="67" y="207" type="curve" smooth="yes"/>
      <point x="67" y="-130"/>
      <point x="122" y="-301"/>
    </contour>
  </outline>
</glyph>
<glyph name="parenright.telu" format="2">
  <advance width="340"/>
  <unicode hex="0029"/>
  <outline>
    <contour>
      <point x="54" y="776" type="curve"/>
      <point x="54" y="751" type="line"/>
      <point x="219" y="678"/>
      <point x="246" y="465"/>
      <point x="246" y="205" type="curve" smooth="yes"/>
      <point x="246" y="-55"/>
      <point x="219" y="-268"/>
      <point x="54" y="-339" type="curve"/>
      <point x="54" y="-364" type="line"/>
      <point x="218" y="-303"/>
      <point x="273" y="-132"/>
      <point x="273" y="205" type="curve" smooth="yes"/>
      <point x="273" y="542"/>
      <point x="218" y="713"/>
    </contour>
  </outline>
</glyph>
<glyph name="asterisk.telu" format="2">
  <advance width="432"/>
  <unicode hex="002A"/>
  <outline>
    <contour>
      <point x="197" y="391" type="line"/>
      <point x="236" y="391" type="line"/>
      <point x="225" y="566" type="line"/>
      <point x="359" y="482" type="line"/>
      <point x="377" y="516" type="line"/>
      <point x="225" y="582" type="line"/>
      <point x="377" y="648" type="line"/>
      <point x="361" y="681" type="line"/>
      <point x="225" y="598" type="line"/>
      <point x="234" y="773" type="line"/>
      <point x="197" y="773" type="line"/>
      <point x="208" y="599" type="line"/>
      <point x="73" y="683" type="line"/>
      <point x="55" y="649" type="line"/>
      <point x="207" y="582" type="line"/>
      <point x="55" y="515" type="line"/>
      <point x="73" y="480" type="line"/>
      <point x="208" y="565" type="line"/>
    </contour>
  </outline>
</glyph>
<glyph name="plus.telu" format="2">
  <advance width="559"/>
  <unicode hex="002B"/>
  <outline>
    <contour>
      <point x="265" y="102" type="line"/>
      <point x="293" y="102" type="line"/>
      <point x="293" y="302" type="line"/>
      <point x="494" y="302" type="line"/>
      <point x="494" y="330" type="line"/>
      <point x="293" y="330" type="line"/>
      <point x="293" y="531" type="line"/>
      <point x="265" y="531" type="line"/>
      <point x="265" y="330" type="line"/>
      <point x="65" y="330" type="line"/>
      <point x="65" y="302" type="line"/>
      <point x="265" y="302" type="line"/>
    </contour>
  </outline>
</glyph>
<glyph name="comma.telu" format="2">
  <advance width="209"/>
  <unicode hex="002C"/>
  <outline>
    <contour>
      <point x="40" y="-158" type="line"/>
      <point x="129" y="-123"/>
      <point x="147" y="-73"/>
      <point x="147" y="-19" type="curve" smooth="yes"/>
      <point x="147" y="42"/>
      <point x="119" y="73"/>
      <point x="92" y="73" type="curve" smooth="yes"/>
      <point x="73" y="73"/>
      <point x="62" y="61"/>
      <point x="62" y="46" type="curve" smooth="yes"/>
      <point x="62" y="5"/>
      <point x="119" y="17"/>
      <point x="119" y="-38" type="curve" smooth="yes"/>
      <point x="119" y="-81"/>
      <point x="94" y="-112"/>
      <point x="40" y="-133" type="curve"/>
    </contour>
  </outline>
</glyph>
<glyph name="hyphen.telu" format="2">
  <advance width="319"/>
  <unicode hex="002D"/>
  <outline>
    <contour>
      <point x="40" y="238" type="line"/>
      <point x="279" y="238" type="line"/>
      <point x="279" y="264" type="line"/>
      <point x="40" y="264" type="line"/>
    </contour>
  </outline>
</glyph>
<glyph name="period.telu" format="2">
  <advance width="192"/>
  <unicode hex="002E"/>
  <outline>
    <contour>
      <point x="96" y="-5" type="curve" smooth="yes"/>
      <point x="112" y="-5"/>
      <point x="125" y="4"/>
      <point x="125" y="35" type="curve" smooth="yes"/>
      <point x="125" y="65"/>
      <point x="112" y="73"/>
      <point x="96" y="73" type="curve" smooth="yes"/>
      <point x="81" y="73"/>
      <point x="67" y="65"/>
      <point x="67" y="35" type="curve" smooth="yes"/>
      <point x="67" y="4"/>
      <point x="81" y="-5"/>
    </contour>
  </outline>
</glyph>
<glyph name="slash.telu" format="2">
  <advance width="348"/>
  <unicode hex="002F"/>
  <outline>
    <contour>
      <point x="36" y="-361" type="line"/>
      <point x="62" y="-361" type="line"/>
      <point x="312" y="773" type="line"/>
      <point x="286" y="773" type="line"/>
    </contour>
  </outline>
</glyph>
<glyph name="zero.telu" format="2">
  <advance width="559"/>
  <unicode hex="0030"/>
  <outline>
    <contour>
      <point x="280" y="-12" type="curve" smooth="yes"/>
      <point x="430" y="-12"/>
      <point x="500" y="100"/>
      <point x="500" y="325" type="curve" smooth="yes"/>
      <point x="500" y="554"/>
      <point x="436" y="661"/>
      <point x="281" y="661" type="curve" smooth="yes"/>
      <point x="123" y="661"/>
      <point x="59" y="550"/>
      <point x="59" y="326" type="curve" smooth="yes"/>
      <point x="59" y="94"/>
      <point x="125" y="-12"/>
    </contour>
    <contour>
      <point x="279" y="13" type="curve" smooth="yes"/>
      <point x="145" y="13"/>
      <point x="86" y="109"/>
      <point x="86" y="325" type="curve" smooth="yes"/>
      <point x="86" y="525"/>
      <point x="135" y="635"/>
      <point x="280" y="635" type="curve" smooth="yes"/>
      <point x="425" y="635"/>
      <point x="473" y="531"/>
      <point x="473" y="325" type="curve" smooth="yes"/>
      <point x="473" y="117"/>
      <point x="414" y="13"/>
    </contour>
  </outline>
</glyph>
<glyph name="one.telu" format="2">
  <advance width="559"/>
  <unicode hex="0031"/>
  <outline>
    <contour>
      <point x="155" y="0" type="line"/>
      <point x="436" y="0" type="line"/>
      <point x="436" y="20" type="line"/>
      <point x="367" y="20" type="line" smooth="yes"/>
      <point x="317" y="20"/>
      <point x="311" y="31"/>
      <point x="311" y="108" type="curve" smooth="yes"/>
      <point x="311" y="657" type="line"/>
      <point x="291" y="657" type="line"/>
      <point x="261" y="618" type="line" smooth="yes"/>
      <point x="211" y="553"/>
      <point x="171" y="538"/>
      <point x="117" y="528" type="curve"/>
      <point x="117" y="517"/>
      <point x="126" y="510"/>
      <point x="150" y="510" type="curve" smooth="yes"/>
      <point x="190" y="510"/>
      <point x="237" y="550"/>
      <point x="284" y="612" type="curve"/>
      <point x="284" y="108" type="line" smooth="yes"/>
      <point x="284" y="31"/>
      <point x="277" y="20"/>
      <point x="227" y="20" type="curve" smooth="yes"/>
      <point x="155" y="20" type="line"/>
    </contour>
  </outline>
</glyph>
<glyph name="two.telu" format="2">
  <advance width="559"/>
  <unicode hex="0032"/>
  <outline>
    <contour>
      <point x="51" y="0" type="line"/>
      <point x="463" y="0" type="line"/>
      <point x="468" y="127" type="line"/>
      <point x="448" y="127" type="line"/>
      <point x="446" y="95" type="line" smooth="yes"/>
      <point x="443" y="39"/>
      <point x="437" y="25"/>
      <point x="385" y="25" type="curve" smooth="yes"/>
      <point x="89" y="25" type="line"/>
      <point x="286" y="220" type="line" smooth="yes"/>
      <point x="417" y="350"/>
      <point x="447" y="397"/>
      <point x="447" y="491" type="curve" smooth="yes"/>
      <point x="447" y="579"/>
      <point x="392" y="661"/>
      <point x="256" y="661" type="curve" smooth="yes"/>
      <point x="134" y="661"/>
      <point x="78" y="590"/>
      <point x="78" y="540" type="curve" smooth="yes"/>
      <point x="78" y="516"/>
      <point x="85" y="502"/>
      <point x="99" y="502" type="curve"/>
      <point x="99" y="587"/>
      <point x="158" y="636"/>
      <point x="256" y="636" type="curve" smooth="yes"/>
      <point x="378" y="636"/>
      <point x="420" y="557"/>
      <point x="420" y="491" type="curve" smooth="yes"/>
      <point x="420" y="403"/>
      <point x="387" y="354"/>
      <point x="271" y="240" type="curve" smooth="yes"/>
      <point x="51" y="22" type="line"/>
    </contour>
  </outline>
</glyph>
<glyph name="three.telu" format="2">
  <advance width="559"/>
  <unicode hex="0033"/>
  <outline>
    <contour>
      <point x="247" y="-12" type="curve" smooth="yes"/>
      <point x="366" y="-12"/>
      <point x="460" y="32"/>
      <point x="460" y="170" type="curve" smooth="yes"/>
      <point x="460" y="281"/>
      <point x="392" y="333"/>
      <point x="309" y="343" type="curve"/>
      <point x="384" y="364"/>
      <point x="435" y="412"/>
      <point x="435" y="502" type="curve" smooth="yes"/>
      <point x="435" y="601"/>
      <point x="370" y="661"/>
      <point x="261" y="661" type="curve" smooth="yes"/>
      <point x="141" y="661"/>
      <point x="85" y="589"/>
      <point x="85" y="533" type="curve" smooth="yes"/>
      <point x="85" y="512"/>
      <point x="92" y="498"/>
      <point x="106" y="498" type="curve"/>
      <point x="106" y="581"/>
      <point x="158" y="636"/>
      <point x="259" y="636" type="curve" smooth="yes"/>
      <point x="359" y="636"/>
      <point x="408" y="584"/>
      <point x="408" y="501" type="curve" smooth="yes"/>
      <point x="408" y="407"/>
      <point x="340" y="354"/>
      <point x="247" y="354" type="curve" smooth="yes"/>
      <point x="213" y="354" type="line"/>
      <point x="213" y="329" type="line"/>
      <point x="242" y="329" type="line" smooth="yes"/>
      <point x="379" y="329"/>
      <point x="433" y="267"/>
      <point x="433" y="170" type="curve" smooth="yes"/>
      <point x="433" y="56"/>
      <point x="356" y="13"/>
      <point x="248" y="13" type="curve" smooth="yes"/>
      <point x="133" y="13"/>
      <point x="86" y="62"/>
      <point x="86" y="133" type="curve"/>
      <point x="75" y="133"/>
      <point x="65" y="125"/>
      <point x="65" y="99" type="curve" smooth="yes"/>
      <point x="65" y="45"/>
      <point x="121" y="-12"/>
    </contour>
  </outline>
</glyph>
<glyph name="four.telu" format="2">
  <advance width="559"/>
  <unicode hex="0034"/>
  <outline>
    <contour>
      <point x="260" y="0" type="line"/>
      <point x="491" y="0" type="line"/>
      <point x="491" y="20" type="line"/>
      <point x="453" y="20" type="line" smooth="yes"/>
      <point x="403" y="20"/>
      <point x="396" y="30"/>
      <point x="396" y="101" type="curve" smooth="yes"/>
      <point x="396" y="190" type="line"/>
      <point x="538" y="190" type="line"/>
      <point x="538" y="215" type="line"/>
      <point x="396" y="215" type="line"/>
      <point x="396" y="656" type="line"/>
      <point x="368" y="656" type="line"/>
      <point x="16" y="208" type="line"/>
      <point x="16" y="190" type="line"/>
      <point x="369" y="190" type="line"/>
      <point x="369" y="101" type="line" smooth="yes"/>
      <point x="369" y="30"/>
      <point x="363" y="20"/>
      <point x="313" y="20" type="curve" smooth="yes"/>
      <point x="260" y="20" type="line"/>
    </contour>
    <contour>
      <point x="53" y="215" type="line"/>
      <point x="255" y="471" type="line" smooth="yes"/>
      <point x="310" y="540"/>
      <point x="358" y="607"/>
      <point x="371" y="628" type="curve"/>
      <point x="369" y="572"/>
      <point x="369" y="466"/>
      <point x="369" y="413" type="curve" smooth="yes"/>
      <point x="369" y="215" type="line"/>
    </contour>
  </outline>
</glyph>
<glyph name="five.telu" format="2">
  <advance width="559"/>
  <unicode hex="0035"/>
  <outline>
    <contour>
      <point x="253" y="-12" type="curve" smooth="yes"/>
      <point x="392" y="-12"/>
      <point x="461" y="75"/>
      <point x="461" y="193" type="curve" smooth="yes"/>
      <point x="461" y="314"/>
      <point x="379" y="386"/>
      <point x="264" y="386" type="curve" smooth="yes"/>
      <point x="212" y="386"/>
      <point x="169" y="374"/>
      <point x="138" y="352" type="curve"/>
      <point x="164" y="625" type="line"/>
      <point x="354" y="625" type="line" smooth="yes"/>
      <point x="409" y="625"/>
      <point x="417" y="621"/>
      <point x="419" y="568" type="curve" smooth="yes"/>
      <point x="420" y="540" type="line"/>
      <point x="440" y="540" type="line"/>
      <point x="437" y="651" type="line"/>
      <point x="141" y="651" type="line"/>
      <point x="110" y="318" type="line"/>
      <point x="123" y="314" type="line"/>
      <point x="159" y="349"/>
      <point x="214" y="361"/>
      <point x="263" y="361" type="curve" smooth="yes"/>
      <point x="367" y="361"/>
      <point x="434" y="293"/>
      <point x="434" y="193" type="curve" smooth="yes"/>
      <point x="434" y="92"/>
      <point x="378" y="13"/>
      <point x="252" y="13" type="curve" smooth="yes"/>
      <point x="171" y="13"/>
      <point x="102" y="43"/>
      <point x="102" y="124" type="curve"/>
      <point x="91" y="124"/>
      <point x="81" y="117"/>
      <point x="81" y="91" type="curve" smooth="yes"/>
      <point x="81" y="37"/>
      <point x="145" y="-12"/>
    </contour>
  </outline>
</glyph>
<glyph name="six.telu" format="2">
  <advance width="559"/>
  <unicode hex="0036"/>
  <outline>
    <contour>
      <point x="293" y="-12" type="curve" smooth="yes"/>
      <point x="431" y="-12"/>
      <point x="488" y="74"/>
      <point x="488" y="199" type="curve" smooth="yes"/>
      <point x="488" y="323"/>
      <point x="417" y="390"/>
      <point x="299" y="390" type="curve" smooth="yes"/>
      <point x="214" y="390"/>
      <point x="148" y="351"/>
      <point x="104" y="316" type="curve"/>
      <point x="103" y="285" type="line"/>
      <point x="154" y="326"/>
      <point x="214" y="365"/>
      <point x="298" y="365" type="curve" smooth="yes"/>
      <point x="407" y="365"/>
      <point x="461" y="301"/>
      <point x="461" y="200" type="curve" smooth="yes"/>
      <point x="461" y="93"/>
      <point x="416" y="13"/>
      <point x="294" y="13" type="curve" smooth="yes"/>
      <point x="169" y="13"/>
      <point x="108" y="127"/>
      <point x="108" y="306" type="curve"/>
      <point x="108" y="313" type="line"/>
      <point x="108" y="540"/>
      <point x="200" y="636"/>
      <point x="319" y="636" type="curve" smooth="yes"/>
      <point x="400" y="636"/>
      <point x="440" y="602"/>
      <point x="440" y="526" type="curve"/>
      <point x="454" y="526"/>
      <point x="461" y="540"/>
      <point x="461" y="559" type="curve" smooth="yes"/>
      <point x="461" y="609"/>
      <point x="423" y="661"/>
      <point x="324" y="661" type="curve" smooth="yes"/>
      <point x="191" y="661"/>
      <point x="81" y="569"/>
      <point x="81" y="307" type="curve" smooth="yes"/>
      <point x="81" y="93"/>
      <point x="161" y="-12"/>
    </contour>
  </outline>
</glyph>
<glyph name="seven.telu" format="2">
  <advance width="559"/>
  <unicode hex="0037"/>
  <outline>
    <contour>
      <point x="185" y="0" type="line"/>
      <point x="213" y="0" type="line"/>
      <point x="493" y="629" type="line"/>
      <point x="493" y="651" type="line"/>
      <point x="65" y="651" type="line"/>
      <point x="59" y="507" type="line"/>
      <point x="79" y="507" type="line"/>
      <point x="83" y="572" type="line" smooth="yes"/>
      <point x="86" y="621"/>
      <point x="97" y="625"/>
      <point x="133" y="625" type="curve" smooth="yes"/>
      <point x="465" y="625" type="line"/>
    </contour>
  </outline>
</glyph>
<glyph name="eight.telu" format="2">
  <advance width="559"/>
  <unicode hex="0038"/>
  <outline>
    <contour>
      <point x="273" y="-12" type="curve" smooth="yes"/>
      <point x="403" y="-12"/>
      <point x="489" y="41"/>
      <point x="489" y="148" type="curve" smooth="yes"/>
      <point x="489" y="241"/>
      <point x="440" y="291"/>
      <point x="319" y="340" type="curve"/>
      <point x="419" y="377"/>
      <point x="468" y="428"/>
      <point x="468" y="512" type="curve" smooth="yes"/>
      <point x="468" y="596"/>
      <point x="406" y="661"/>
      <point x="281" y="661" type="curve" smooth="yes"/>
      <point x="165" y="661"/>
      <point x="95" y="603"/>
      <point x="95" y="512" type="curve" smooth="yes"/>
      <point x="95" y="426"/>
      <point x="152" y="381"/>
      <point x="247" y="342" type="curve"/>
      <point x="132" y="303"/>
      <point x="70" y="246"/>
      <point x="70" y="153" type="curve" smooth="yes"/>
      <point x="70" y="49"/>
      <point x="144" y="-12"/>
    </contour>
    <contour>
      <point x="272" y="13" type="curve" smooth="yes"/>
      <point x="159" y="13"/>
      <point x="97" y="64"/>
      <point x="97" y="153" type="curve" smooth="yes"/>
      <point x="97" y="239"/>
      <point x="155" y="292"/>
      <point x="281" y="329" type="curve"/>
      <point x="434" y="272"/>
      <point x="462" y="220"/>
      <point x="462" y="148" type="curve" smooth="yes"/>
      <point x="462" y="56"/>
      <point x="387" y="13"/>
    </contour>
    <contour>
      <point x="287" y="352" type="curve"/>
      <point x="186" y="391"/>
      <point x="122" y="427"/>
      <point x="122" y="513" type="curve" smooth="yes"/>
      <point x="122" y="587"/>
      <point x="178" y="636"/>
      <point x="282" y="636" type="curve" smooth="yes"/>
      <point x="397" y="636"/>
      <point x="441" y="574"/>
      <point x="441" y="512" type="curve" smooth="yes"/>
      <point x="441" y="441"/>
      <point x="399" y="390"/>
    </contour>
  </outline>
</glyph>
<glyph name="nine.telu" format="2">
  <advance width="559"/>
  <unicode hex="0039"/>
  <outline>
    <contour>
      <point x="451" y="343" type="curve" smooth="yes"/>
      <point x="451" y="337" type="line" smooth="yes"/>
      <point x="451" y="123"/>
      <point x="375" y="13"/>
      <point x="235" y="13" type="curve" smooth="yes"/>
      <point x="173" y="13"/>
      <point x="135" y="32"/>
      <point x="112" y="79" type="curve"/>
      <point x="106" y="77"/>
      <point x="103" y="69"/>
      <point x="103" y="59" type="curve" smooth="yes"/>
      <point x="103" y="28"/>
      <point x="140" y="-12"/>
      <point x="234" y="-12" type="curve" smooth="yes"/>
      <point x="401" y="-12"/>
      <point x="478" y="112"/>
      <point x="478" y="343" type="curve" smooth="yes"/>
      <point x="478" y="552"/>
      <point x="396" y="661"/>
      <point x="259" y="661" type="curve" smooth="yes"/>
      <point x="138" y="661"/>
      <point x="71" y="572"/>
      <point x="71" y="448" type="curve" smooth="yes"/>
      <point x="71" y="337"/>
      <point x="133" y="260"/>
      <point x="266" y="260" type="curve" smooth="yes"/>
      <point x="348" y="260"/>
      <point x="410" y="294"/>
      <point x="454" y="334" type="curve"/>
      <point x="454" y="366" type="line"/>
      <point x="401" y="321"/>
      <point x="347" y="285"/>
      <point x="266" y="285" type="curve" smooth="yes"/>
      <point x="157" y="285"/>
      <point x="98" y="344"/>
      <point x="98" y="449" type="curve" smooth="yes"/>
      <point x="98" y="555"/>
      <point x="150" y="636"/>
      <point x="261" y="636" type="curve" smooth="yes"/>
      <point x="381" y="636"/>
      <point x="451" y="530"/>
    </contour>
  </outline>
</glyph>
<glyph name="colon.telu" format="2">
  <advance width="212"/>
  <unicode hex="003A"/>
  <outline>
    <contour>
      <point x="106" y="-5" type="curve" smooth="yes"/>
      <point x="122" y="-5"/>
      <point x="135" y="4"/>
      <point x="135" y="35" type="curve" smooth="yes"/>
      <point x="135" y="65"/>
      <point x="122" y="73"/>
      <point x="106" y="73" type="curve" smooth="yes"/>
      <point x="91" y="73"/>
      <point x="77" y="65"/>
      <point x="77" y="35" type="curve" smooth="yes"/>
      <point x="77" y="4"/>
      <point x="91" y="-5"/>
    </contour>
    <contour>
      <point x="106" y="335" type="curve" smooth="yes"/>
      <point x="122" y="335"/>
      <point x="135" y="344"/>
      <point x="135" y="375" type="curve" smooth="yes"/>
      <point x="135" y="405"/>
      <point x="122" y="413"/>
      <point x="106" y="413" type="curve" smooth="yes"/>
      <point x="91" y="413"/>
      <point x="77" y="405"/>
      <point x="77" y="375" type="curve" smooth="yes"/>
      <point x="77" y="344"/>
      <point x="91" y="335"/>
    </contour>
  </outline>
</glyph>
<glyph name="semicolon.telu" format="2">
  <advance width="229"/>
  <unicode hex="003B"/>
  <outline>
    <contour>
      <point x="50" y="-158" type="line"/>
      <point x="139" y="-123"/>
      <point x="157" y="-73"/>
      <point x="157" y="-19" type="curve" smooth="yes"/>
      <point x="157" y="42"/>
      <point x="129" y="73"/>
      <point x="102" y="73" type="curve" smooth="yes"/>
      <point x="83" y="73"/>
      <point x="72" y="61"/>
      <point x="72" y="46" type="curve" smooth="yes"/>
      <point x="72" y="5"/>
      <point x="129" y="17"/>
      <point x="129" y="-38" type="curve" smooth="yes"/>
      <point x="129" y="-81"/>
      <point x="104" y="-112"/>
      <point x="50" y="-133" type="curve"/>
    </contour>
    <contour>
      <point x="111" y="335" type="curve" smooth="yes"/>
      <point x="127" y="335"/>
      <point x="140" y="344"/>
      <point x="140" y="375" type="curve" smooth="yes"/>
      <point x="140" y="405"/>
      <point x="127" y="413"/>
      <point x="111" y="413" type="curve" smooth="yes"/>
      <point x="96" y="413"/>
      <point x="82" y="405"/>
      <point x="82" y="375" type="curve" smooth="yes"/>
      <point x="82" y="344"/>
      <point x="96" y="335"/>
    </contour>
  </outline>
</glyph>
<glyph name="equal.telu" format="2">
  <advance width="559"/>
  <unicode hex="003D"/>
  <outline>
    <contour>
      <point x="68" y="420" type="line"/>
      <point x="491" y="420" type="line"/>
      <point x="491" y="448" type="line"/>
      <point x="68" y="448" type="line"/>
    </contour>
    <contour>
      <point x="68" y="204" type="line"/>
      <point x="491" y="204" type="line"/>
      <point x="491" y="232" type="line"/>
      <point x="68" y="232" type="line"/>
    </contour>
  </outline>
</glyph>
<glyph name="greater.telu" format="2">
  <advance width="559"/>
  <unicode hex="003E"/>
  <outline>
    <contour>
      <point x="65" y="87" type="line"/>
      <point x="494" y="313" type="line"/>
      <point x="494" y="340" type="line"/>
      <point x="65" y="567" type="line"/>
      <point x="65" y="536" type="line"/>
      <point x="460" y="326" type="line"/>
      <point x="65" y="118" type="line"/>
    </contour>
  </outline>
</glyph>
<glyph name="question.telu" format="2">
  <advance width="446"/>
  <unicode hex="003F"/>
  <outline>
    <contour>
      <point x="241" y="176" type="line"/>
      <point x="245" y="293" type="line"/>
      <point x="357" y="346"/>
      <point x="404" y="403"/>
      <point x="404" y="505" type="curve" smooth="yes"/>
      <point x="404" y="593"/>
      <point x="340" y="661"/>
      <point x="225" y="661" type="curve" smooth="yes"/>
      <point x="98" y="661"/>
      <point x="61" y="579"/>
      <point x="61" y="541" type="curve" smooth="yes"/>
      <point x="61" y="517"/>
      <point x="68" y="502"/>
      <point x="82" y="502" type="curve"/>
      <point x="82" y="562"/>
      <point x="111" y="636"/>
      <point x="227" y="636" type="curve" smooth="yes"/>
      <point x="327" y="636"/>
      <point x="379" y="577"/>
      <point x="379" y="505" type="curve" smooth="yes"/>
      <point x="379" y="411"/>
      <point x="329" y="358"/>
      <point x="217" y="306" type="curve"/>
      <point x="221" y="176" type="line"/>
    </contour>
    <contour>
      <point x="230" y="-5" type="curve" smooth="yes"/>
      <point x="246" y="-5"/>
      <point x="259" y="4"/>
      <point x="259" y="35" type="curve" smooth="yes"/>
      <point x="259" y="65"/>
      <point x="246" y="73"/>
      <point x="230" y="73" type="curve" smooth="yes"/>
      <point x="215" y="73"/>
      <point x="201" y="65"/>
      <point x="201" y="35" type="curve" smooth="yes"/>
      <point x="201" y="4"/>
      <point x="215" y="-5"/>
    </contour>
  </outline>
</glyph>
<glyph name="bracketleft.telu" format="2">
  <advance width="281"/>
  <unicode hex="005B"/>
  <outline>
    <contour>
      <point x="86" y="-360" type="line"/>
      <point x="241" y="-360" type="line"/>
      <point x="241" y="-338" type="line"/>
      <point x="157" y="-338" type="line" smooth="yes"/>
      <point x="120" y="-338"/>
      <point x="112" y="-329"/>
      <point x="112" y="-282" type="curve" smooth="yes"/>
      <point x="112" y="695" type="line" smooth="yes"/>
      <point x="112" y="742"/>
      <point x="120" y="751"/>
      <point x="160" y="751" type="curve" smooth="yes"/>
      <point x="241" y="751" type="line"/>
      <point x="241" y="773" type="line"/>
      <point x="86" y="773" type="line"/>
    </contour>
  </outline>
</glyph>
<glyph name="backslash.telu" format="2">
  <advance width="348"/>
  <unicode hex="005C"/>
  <outline>
    <contour>
      <point x="312" y="-361" type="line"/>
      <point x="62" y="773" type="line"/>
      <point x="36" y="773" type="line"/>
      <point x="286" y="-361" type="line"/>
    </contour>
  </outline>
</glyph>
<glyph name="bracketright.telu" format="2">
  <advance width="281"/>
  <unicode hex="005D"/>
  <outline>
    <contour>
      <point x="195" y="773" type="line"/>
      <point x="40" y="773" type="line"/>
      <point x="40" y="751" type="line"/>
      <point x="124" y="751" type="line" smooth="yes"/>
      <point x="161" y="751"/>
      <point x="169" y="742"/>
      <point x="169" y="695" type="curve" smooth="yes"/>
      <point x="169" y="-282" type="line" smooth="yes"/>
      <point x="169" y="-329"/>
      <point x="161" y="-338"/>
      <point x="121" y="-338" type="curve" smooth="yes"/>
      <point x="40" y="-338" type="line"/>
      <point x="40" y="-360" type="line"/>
      <point x="195" y="-360" type="line"/>
    </contour>
  </outline>
</glyph>
<glyph name="asciicircum.telu" format="2">
  <advance width="559"/>
  <unicode hex="005E"/>
  <outline>
    <contour>
      <point x="58" y="210" type="line"/>
      <point x="89" y="210" type="line"/>
      <point x="279" y="617" type="line"/>
      <point x="471" y="210" type="line"/>
      <point x="502" y="210" type="line"/>
      <point x="291" y="652" type="line"/>
      <point x="266" y="652" type="line"/>
    </contour>
  </outline>
</glyph>
<glyph name="braceleft.telu" format="2">
  <advance width="374"/>
  <unicode hex="007B"/>
  <outline>
    <contour>
      <point x="286" y="-360" type="curve" smooth="yes"/>
      <point x="334" y="-360" type="line"/>
      <point x="334" y="-335" type="line"/>
      <point x="284" y="-335" type="line" smooth="yes"/>
      <point x="227" y="-335"/>
      <point x="202" y="-288"/>
      <point x="202" y="-215" type="curve" smooth="yes"/>
      <point x="202" y="78" type="line" smooth="yes"/>
      <point x="202" y="150"/>
      <point x="167" y="198"/>
      <point x="108" y="205" type="curve"/>
      <point x="108" y="208" type="line"/>
      <point x="167" y="215"/>
      <point x="202" y="264"/>
      <point x="202" y="334" type="curve" smooth="yes"/>
      <point x="202" y="633" type="line" smooth="yes"/>
      <point x="202" y="710"/>
      <point x="227" y="748"/>
      <point x="289" y="748" type="curve" smooth="yes"/>
      <point x="334" y="748" type="line"/>
      <point x="334" y="773" type="line"/>
      <point x="286" y="773" type="line" smooth="yes"/>
      <point x="216" y="773"/>
      <point x="176" y="723"/>
      <point x="176" y="634" type="curve" smooth="yes"/>
      <point x="176" y="336" type="line" smooth="yes"/>
      <point x="176" y="249"/>
      <point x="124" y="220"/>
      <point x="56" y="218" type="curve"/>
      <point x="56" y="195" type="line"/>
      <point x="124" y="192"/>
      <point x="176" y="165"/>
      <point x="176" y="75" type="curve" smooth="yes"/>
      <point x="176" y="-213" type="line" smooth="yes"/>
      <point x="176" y="-305"/>
      <point x="216" y="-360"/>
    </contour>
  </outline>
</glyph>
<glyph name="bar.telu" format="2">
  <advance width="506"/>
  <unicode hex="007C"/>
  <outline>
    <contour>
      <point x="239" y="-360" type="line"/>
      <point x="267" y="-360" type="line"/>
      <point x="267" y="773" type="line"/>
      <point x="239" y="773" type="line"/>
    </contour>
  </outline>
</glyph>
<glyph name="braceright.telu" format="2">
  <advance width="374"/>
  <unicode hex="007D"/>
  <outline>
    <contour>
      <point x="88" y="773" type="curve" smooth="yes"/>
      <point x="40" y="773" type="line"/>
      <point x="40" y="748" type="line"/>
      <point x="90" y="748" type="line" smooth="yes"/>
      <point x="147" y="748"/>
      <point x="172" y="701"/>
      <point x="172" y="628" type="curve" smooth="yes"/>
      <point x="172" y="335" type="line" smooth="yes"/>
      <point x="172" y="263"/>
      <point x="207" y="215"/>
      <point x="266" y="208" type="curve"/>
      <point x="266" y="205" type="line"/>
      <point x="207" y="198"/>
      <point x="172" y="149"/>
      <point x="172" y="79" type="curve" smooth="yes"/>
      <point x="172" y="-220" type="line" smooth="yes"/>
      <point x="172" y="-297"/>
      <point x="147" y="-335"/>
      <point x="85" y="-335" type="curve" smooth="yes"/>
      <point x="40" y="-335" type="line"/>
      <point x="40" y="-360" type="line"/>
      <point x="88" y="-360" type="line" smooth="yes"/>
      <point x="158" y="-360"/>
      <point x="198" y="-310"/>
      <point x="198" y="-221" type="curve" smooth="yes"/>
      <point x="198" y="77" type="line" smooth="yes"/>
      <point x="198" y="164"/>
      <point x="250" y="193"/>
      <point x="318" y="195" type="curve"/>
      <point x="318" y="218" type="line"/>
      <point x="250" y="221"/>
      <point x="198" y="248"/>
      <point x="198" y="338" type="curve" smooth="yes"/>
      <point x="198" y="626" type="line" smooth="yes"/>
      <point x="198" y="718"/>
      <point x="158" y="773"/>
    </contour>
  </outline>
</glyph>
<glyph name="asciitilde.telu" format="2">
  <advance width="559"/>
  <unicode hex="007E"/>
  <outline>
    <contour>
      <point x="64" y="246" type="curve"/>
      <point x="94" y="246" type="line"/>
      <point x="111" y="332"/>
      <point x="124" y="377"/>
      <point x="173" y="377" type="curve" smooth="yes"/>
      <point x="208" y="377"/>
      <point x="225" y="364"/>
      <point x="277" y="308" type="curve" smooth="yes"/>
      <point x="310" y="273"/>
      <point x="345" y="246"/>
      <point x="386" y="246" type="curve" smooth="yes"/>
      <point x="459" y="246"/>
      <point x="477" y="319"/>
      <point x="494" y="405" type="curve"/>
      <point x="463" y="405" type="line"/>
      <point x="443" y="312"/>
      <point x="432" y="274"/>
      <point x="386" y="274" type="curve" smooth="yes"/>
      <point x="356" y="274"/>
      <point x="332" y="292"/>
      <point x="289" y="336" type="curve" smooth="yes"/>
      <point x="242" y="385"/>
      <point x="215" y="405"/>
      <point x="177" y="405" type="curve" smooth="yes"/>
      <point x="102" y="405"/>
      <point x="85" y="348"/>
    </contour>
  </outline>
</glyph>
<glyph name="multiply.telu" format="2">
  <advance width="559"/>
  <unicode hex="00D7"/>
  <outline>
    <contour>
      <point x="84" y="112" type="line"/>
      <point x="279" y="306" type="line"/>
      <point x="474" y="112" type="line"/>
      <point x="494" y="131" type="line"/>
      <point x="299" y="326" type="line"/>
      <point x="494" y="522" type="line"/>
      <point x="475" y="542" type="line"/>
      <point x="279" y="346" type="line"/>
      <point x="84" y="541" type="line"/>
      <point x="65" y="521" type="line"/>
      <point x="260" y="326" type="line"/>
      <point x="66" y="132" type="line"/>
    </contour>
  </outline>
</glyph>
<glyph name="divide.telu" format="2">
  <advance width="559"/>
  <unicode hex="00F7"/>
  <outline>
    <contour>
      <point x="65" y="312" type="line"/>
      <point x="494" y="312" type="line"/>
      <point x="494" y="340" type="line"/>
      <point x="65" y="340" type="line"/>
    </contour>
    <contour>
      <point x="280" y="113" type="curve" smooth="yes"/>
      <point x="302" y="113"/>
      <point x="321" y="124"/>
      <point x="321" y="155" type="curve" smooth="yes"/>
      <point x="321" y="188"/>
      <point x="302" y="198"/>
      <point x="280" y="198" type="curve" smooth="yes"/>
      <point x="257" y="198"/>
      <point x="239" y="188"/>
      <point x="239" y="155" type="curve" smooth="yes"/>
      <point x="239" y="124"/>
      <point x="257" y="113"/>
    </contour>
    <contour>
      <point x="280" y="455" type="curve" smooth="yes"/>
      <point x="302" y="455"/>
      <point x="321" y="466"/>
      <point x="321" y="498" type="curve" smooth="yes"/>
      <point x="321" y="530"/>
      <point x="302" y="540"/>
      <point x="280" y="540" type="curve" smooth="yes"/>
      <point x="257" y="540"/>
      <point x="239" y="530"/>
      <point x="239" y="498" type="curve" smooth="yes"/>
      <point x="239" y="466"/>
      <point x="257" y="455"/>
    </contour>
  </outline>
</glyph>
<glyph name="uni0952" format="2">
  <unicode hex="0952"/>
  <outline>
    <contour>
      <point x="-99" y="-157" type="line"/>
      <point x="-99" y="-132" type="line"/>
      <point x="-472" y="-132" type="line"/>
      <point x="-472" y="-157" type="line"/>
    </contour>
  </outline>
</glyph>
<glyph name="dandatelu" format="2">
  <advance width="345"/>
  <unicode hex="0964"/>
  <outline>
    <contour>
      <point x="204" y="-139" type="line"/>
      <point x="231" y="-139" type="line"/>
      <point x="231" y="651" type="line"/>
      <point x="204" y="651" type="line"/>
    </contour>
  </outline>
</glyph>
<glyph name="dbldandatelu" format="2">
  <advance width="517"/>
  <unicode hex="0965"/>
  <outline>
    <contour>
      <point x="204" y="-139" type="line"/>
      <point x="231" y="-139" type="line"/>
      <point x="231" y="651" type="line"/>
      <point x="204" y="651" type="line"/>
    </contour>
    <contour>
      <point x="376" y="-139" type="line"/>
      <point x="403" y="-139" type="line"/>
      <point x="403" y="651" type="line"/>
      <point x="376" y="651" type="line"/>
    </contour>
  </outline>
</glyph>
<glyph name="uni0C00" format="2">
  <unicode hex="0C00"/>
  <outline>
    <contour>
      <point x="-286" y="618" type="curve" smooth="yes"/>
      <point x="-193" y="618"/>
      <point x="-142" y="675"/>
      <point x="-142" y="751" type="curve" smooth="yes"/>
      <point x="-142" y="770"/>
      <point x="-144" y="786"/>
      <point x="-148" y="803" type="curve"/>
      <point x="-173" y="798" type="line"/>
      <point x="-169" y="784"/>
      <point x="-167" y="767"/>
      <point x="-167" y="753" type="curve" smooth="yes"/>
      <point x="-167" y="677"/>
      <point x="-219" y="643"/>
      <point x="-286" y="643" type="curve" smooth="yes"/>
      <point x="-353" y="643"/>
      <point x="-405" y="673"/>
      <point x="-405" y="753" type="curve" smooth="yes"/>
      <point x="-405" y="766"/>
      <point x="-403" y="784"/>
      <point x="-399" y="798" type="curve"/>
      <point x="-424" y="803" type="line"/>
      <point x="-428" y="786"/>
      <point x="-430" y="772"/>
      <point x="-430" y="753" type="curve" smooth="yes"/>
      <point x="-430" y="673"/>
      <point x="-383" y="618"/>
    </contour>
    <contour>
      <point x="-286" y="724" type="curve" smooth="yes"/>
      <point x="-267" y="724"/>
      <point x="-254" y="735"/>
      <point x="-254" y="759" type="curve" smooth="yes"/>
      <point x="-254" y="780"/>
      <point x="-265" y="794"/>
      <point x="-286" y="794" type="curve" smooth="yes"/>
      <point x="-306" y="794"/>
      <point x="-319" y="781"/>
      <point x="-319" y="759" type="curve" smooth="yes"/>
      <point x="-319" y="736"/>
      <point x="-304" y="724"/>
    </contour>
  </outline>
</glyph>
<glyph name="candrabindutelu" format="2">
  <advance width="270"/>
  <unicode hex="0C01"/>
  <outline>
    <contour>
      <point x="39" y="197" type="curve" smooth="yes"/>
      <point x="39" y="57"/>
      <point x="120" y="-12"/>
      <point x="239" y="-12" type="curve" smooth="yes"/>
      <point x="250" y="-12" type="line"/>
      <point x="250" y="14" type="line"/>
      <point x="130" y="14"/>
      <point x="66" y="72"/>
      <point x="66" y="197" type="curve" smooth="yes"/>
      <point x="66" y="325"/>
      <point x="144" y="380"/>
      <point x="248" y="380" type="curve"/>
      <point x="253" y="406" type="line"/>
      <point x="250" y="406" type="line" smooth="yes"/>
      <point x="124" y="406"/>
      <point x="39" y="331"/>
    </contour>
  </outline>
</glyph>
<glyph name="anusvaratelu" format="2">
  <advance width="456"/>
  <unicode hex="0C02"/>
  <outline>
    <contour>
      <point x="39" y="197" type="curve" smooth="yes"/>
      <point x="39" y="68"/>
      <point x="112" y="-12"/>
      <point x="227" y="-12" type="curve" smooth="yes"/>
      <point x="344" y="-12"/>
      <point x="417" y="77"/>
      <point x="417" y="197" type="curve" smooth="yes"/>
      <point x="417" y="323"/>
      <point x="343" y="406"/>
      <point x="230" y="406" type="curve" smooth="yes"/>
      <point x="116" y="406"/>
      <point x="39" y="321"/>
    </contour>
    <contour>
      <point x="66" y="198" type="curve" smooth="yes"/>
      <point x="66" y="301"/>
      <point x="123" y="381"/>
      <point x="230" y="381" type="curve" smooth="yes"/>
      <point x="332" y="381"/>
      <point x="390" y="308"/>
      <point x="390" y="198" type="curve" smooth="yes"/>
      <point x="390" y="95"/>
      <point x="333" y="15"/>
      <point x="227" y="15" type="curve" smooth="yes"/>
      <point x="126" y="15"/>
      <point x="66" y="83"/>
    </contour>
  </outline>
</glyph>
<glyph name="visargatelu" format="2">
  <advance width="280"/>
  <unicode hex="0C03"/>
  <outline>
    <contour>
      <point x="140" y="269" type="curve" smooth="yes"/>
      <point x="208" y="269"/>
      <point x="247" y="315"/>
      <point x="247" y="382" type="curve" smooth="yes"/>
      <point x="247" y="446"/>
      <point x="209" y="493"/>
      <point x="140" y="493" type="curve" smooth="yes"/>
      <point x="72" y="493"/>
      <point x="33" y="446"/>
      <point x="33" y="380" type="curve" smooth="yes"/>
      <point x="33" y="316"/>
      <point x="72" y="269"/>
    </contour>
    <contour>
      <point x="140" y="294" type="curve" smooth="yes"/>
      <point x="85" y="294"/>
      <point x="59" y="330"/>
      <point x="59" y="381" type="curve" smooth="yes"/>
      <point x="59" y="432"/>
      <point x="85" y="468"/>
      <point x="140" y="468" type="curve" smooth="yes"/>
      <point x="192" y="468"/>
      <point x="221" y="432"/>
      <point x="221" y="381" type="curve" smooth="yes"/>
      <point x="221" y="330"/>
      <point x="192" y="294"/>
    </contour>
    <contour>
      <point x="140" y="-12" type="curve" smooth="yes"/>
      <point x="208" y="-12"/>
      <point x="247" y="34"/>
      <point x="247" y="100" type="curve" smooth="yes"/>
      <point x="247" y="165"/>
      <point x="208" y="212"/>
      <point x="140" y="212" type="curve" smooth="yes"/>
      <point x="72" y="212"/>
      <point x="33" y="165"/>
      <point x="33" y="100" type="curve" smooth="yes"/>
      <point x="33" y="35"/>
      <point x="72" y="-12"/>
    </contour>
    <contour>
      <point x="140" y="13" type="curve" smooth="yes"/>
      <point x="85" y="13"/>
      <point x="59" y="49"/>
      <point x="59" y="100" type="curve" smooth="yes"/>
      <point x="59" y="151"/>
      <point x="85" y="187"/>
      <point x="140" y="187" type="curve" smooth="yes"/>
      <point x="191" y="187"/>
      <point x="221" y="151"/>
      <point x="221" y="100" type="curve" smooth="yes"/>
      <point x="221" y="49"/>
      <point x="192" y="13"/>
    </contour>
  </outline>
</glyph>
<glyph name="uni0C04" format="2">
  <unicode hex="0C04"/>
  <outline>
    <contour>
      <point x="-394" y="722" type="curve" smooth="yes"/>
      <point x="-394" y="658"/>
      <point x="-353" y="611"/>
      <point x="-286" y="611" type="curve" smooth="yes"/>
      <point x="-219" y="611"/>
      <point x="-178" y="658"/>
      <point x="-178" y="724" type="curve" smooth="yes"/>
      <point x="-178" y="787"/>
      <point x="-218" y="835"/>
      <point x="-286" y="835" type="curve" smooth="yes"/>
      <point x="-354" y="835"/>
      <point x="-394" y="787"/>
    </contour>
    <contour>
      <point x="-368" y="723" type="curve" smooth="yes"/>
      <point x="-368" y="774"/>
      <point x="-341" y="811"/>
      <point x="-286" y="811" type="curve" smooth="yes"/>
      <point x="-231" y="811"/>
      <point x="-204" y="774"/>
      <point x="-204" y="723" type="curve" smooth="yes"/>
      <point x="-204" y="673"/>
      <point x="-231" y="636"/>
      <point x="-286" y="636" type="curve" smooth="yes"/>
      <point x="-341" y="636"/>
      <point x="-368" y="673"/>
    </contour>
  </outline>
</glyph>
<glyph name="atelu" format="2">
  <advance width="736"/>
  <unicode hex="0C05"/>
  <outline>
    <contour>
      <point x="363" y="-12" type="curve" smooth="yes"/>
      <point x="572" y="-12"/>
      <point x="694" y="89"/>
      <point x="694" y="281" type="curve" smooth="yes"/>
      <point x="694" y="407"/>
      <point x="637" y="493"/>
      <point x="546" y="493" type="curve" smooth="yes"/>
      <point x="483" y="493"/>
      <point x="438" y="446"/>
      <point x="438" y="382" type="curve" smooth="yes"/>
      <point x="438" y="308"/>
      <point x="491" y="263"/>
      <point x="556" y="226" type="curve"/>
      <point x="559" y="238" type="line"/>
      <point x="263" y="238" type="line"/>
      <point x="263" y="214" type="line"/>
      <point x="567" y="214" type="line"/>
      <point x="576" y="236" type="line"/>
      <point x="513" y="275"/>
      <point x="465" y="318"/>
      <point x="465" y="380" type="curve" smooth="yes"/>
      <point x="465" y="434"/>
      <point x="498" y="468"/>
      <point x="545" y="468" type="curve" smooth="yes"/>
      <point x="624" y="468"/>
      <point x="668" y="388"/>
      <point x="668" y="280" type="curve" smooth="yes"/>
      <point x="668" y="109"/>
      <point x="565" y="15"/>
      <point x="363" y="15" type="curve" smooth="yes"/>
      <point x="171" y="15"/>
      <point x="68" y="120"/>
      <point x="68" y="269" type="curve" smooth="yes"/>
      <point x="68" y="374"/>
      <point x="110" y="431"/>
      <point x="167" y="464" type="curve"/>
      <point x="167" y="465" type="line"/>
      <point x="135" y="439"/>
      <point x="122" y="415"/>
      <point x="122" y="381" type="curve" smooth="yes"/>
      <point x="122" y="309"/>
      <point x="168" y="274"/>
      <point x="228" y="274" type="curve" smooth="yes"/>
      <point x="290" y="274"/>
      <point x="334" y="316"/>
      <point x="334" y="383" type="curve" smooth="yes"/>
      <point x="334" y="452"/>
      <point x="287" y="493"/>
      <point x="222" y="493" type="curve" smooth="yes"/>
      <point x="136" y="493"/>
      <point x="42" y="420"/>
      <point x="42" y="270" type="curve" smooth="yes"/>
      <point x="42" y="108"/>
      <point x="150" y="-12"/>
    </contour>
    <contour>
      <point x="307" y="383" type="curve" smooth="yes"/>
      <point x="307" y="333"/>
      <point x="280" y="299"/>
      <point x="229" y="299" type="curve" smooth="yes"/>
      <point x="183" y="299"/>
      <point x="147" y="323"/>
      <point x="147" y="383" type="curve" smooth="yes"/>
      <point x="147" y="433"/>
      <point x="178" y="468"/>
      <point x="225" y="468" type="curve" smooth="yes"/>
      <point x="275" y="468"/>
      <point x="307" y="434"/>
    </contour>
  </outline>
</glyph>
<glyph name="aatelu" format="2">
  <advance width="719"/>
  <unicode hex="0C06"/>
  <outline>
    <contour>
      <point x="377" y="-12" type="curve" smooth="yes"/>
      <point x="587" y="-12"/>
      <point x="661" y="67"/>
      <point x="661" y="159" type="curve" smooth="yes"/>
      <point x="661" y="201"/>
      <point x="641" y="237"/>
      <point x="598" y="257" type="curve"/>
      <point x="507" y="295"/>
      <point x="473" y="328"/>
      <point x="473" y="382" type="curve" smooth="yes"/>
      <point x="473" y="433"/>
      <point x="510" y="468"/>
      <point x="564" y="468" type="curve" smooth="yes"/>
      <point x="619" y="468"/>
      <point x="657" y="432"/>
      <point x="657" y="367" type="curve" smooth="yes"/>
      <point x="657" y="286"/>
      <point x="599" y="238"/>
      <point x="487" y="238" type="curve" smooth="yes"/>
      <point x="263" y="238" type="line"/>
      <point x="263" y="214" type="line"/>
      <point x="480" y="214" type="line" smooth="yes"/>
      <point x="611" y="214"/>
      <point x="684" y="270"/>
      <point x="684" y="367" type="curve" smooth="yes"/>
      <point x="684" y="447"/>
      <point x="636" y="493"/>
      <point x="564" y="493" type="curve" smooth="yes"/>
      <point x="501" y="493"/>
      <point x="446" y="454"/>
      <point x="446" y="383" type="curve" smooth="yes"/>
      <point x="446" y="324"/>
      <point x="480" y="281"/>
      <point x="573" y="243" type="curve"/>
      <point x="614" y="228"/>
      <point x="634" y="200"/>
      <point x="634" y="159" type="curve" smooth="yes"/>
      <point x="634" y="79"/>
      <point x="565" y="15"/>
      <point x="377" y="15" type="curve" smooth="yes"/>
      <point x="171" y="15"/>
      <point x="68" y="120"/>
      <point x="68" y="269" type="curve" smooth="yes"/>
      <point x="68" y="374"/>
      <point x="110" y="431"/>
      <point x="167" y="464" type="curve"/>
      <point x="167" y="465" type="line"/>
      <point x="135" y="439"/>
      <point x="122" y="415"/>
      <point x="122" y="381" type="curve" smooth="yes"/>
      <point x="122" y="309"/>
      <point x="168" y="274"/>
      <point x="228" y="274" type="curve" smooth="yes"/>
      <point x="290" y="274"/>
      <point x="334" y="316"/>
      <point x="334" y="383" type="curve" smooth="yes"/>
      <point x="334" y="452"/>
      <point x="287" y="493"/>
      <point x="222" y="493" type="curve" smooth="yes"/>
      <point x="136" y="493"/>
      <point x="42" y="420"/>
      <point x="42" y="270" type="curve" smooth="yes"/>
      <point x="42" y="108"/>
      <point x="150" y="-12"/>
    </contour>
    <contour>
      <point x="307" y="383" type="curve" smooth="yes"/>
      <point x="307" y="333"/>
      <point x="280" y="299"/>
      <point x="229" y="299" type="curve" smooth="yes"/>
      <point x="183" y="299"/>
      <point x="147" y="323"/>
      <point x="147" y="383" type="curve" smooth="yes"/>
      <point x="147" y="433"/>
      <point x="178" y="468"/>
      <point x="225" y="468" type="curve" smooth="yes"/>
      <point x="275" y="468"/>
      <point x="307" y="434"/>
    </contour>
  </outline>
</glyph>
<glyph name="itelu" format="2">
  <advance width="631"/>
  <unicode hex="0C07"/>
  <outline>
    <contour>
      <point x="279" y="-12" type="curve" smooth="yes"/>
      <point x="378" y="-12"/>
      <point x="458" y="21"/>
      <point x="512" y="79" type="curve"/>
      <point x="519" y="87" type="line"/>
      <point x="563" y="138"/>
      <point x="587" y="208"/>
      <point x="587" y="292" type="curve" smooth="yes"/>
      <point x="587" y="445"/>
      <point x="513" y="493"/>
      <point x="440" y="493" type="curve" smooth="yes"/>
      <point x="367" y="493"/>
      <point x="314" y="445"/>
      <point x="293" y="358" type="curve"/>
      <point x="303" y="361" type="line"/>
      <point x="291" y="427"/>
      <point x="244" y="493"/>
      <point x="156" y="493" type="curve" smooth="yes"/>
      <point x="88" y="493"/>
      <point x="36" y="450"/>
      <point x="36" y="381" type="curve" smooth="yes"/>
      <point x="36" y="352"/>
      <point x="43" y="322"/>
      <point x="54" y="296" type="curve"/>
      <point x="79" y="304" type="line"/>
      <point x="70" y="324"/>
      <point x="63" y="349"/>
      <point x="63" y="381" type="curve" smooth="yes"/>
      <point x="63" y="430"/>
      <point x="96" y="468"/>
      <point x="157" y="468" type="curve" smooth="yes"/>
      <point x="229" y="468"/>
      <point x="273" y="409"/>
      <point x="286" y="344" type="curve"/>
      <point x="310" y="344" type="line"/>
      <point x="327" y="407"/>
      <point x="366" y="467"/>
      <point x="438" y="467" type="curve" smooth="yes"/>
      <point x="493" y="467"/>
      <point x="560" y="436"/>
      <point x="560" y="293" type="curve" smooth="yes"/>
      <point x="560" y="119"/>
      <point x="455" y="15"/>
      <point x="280" y="15" type="curve" smooth="yes"/>
      <point x="155" y="15"/>
      <point x="123" y="68"/>
      <point x="123" y="123" type="curve" smooth="yes"/>
      <point x="123" y="188"/>
      <point x="164" y="224"/>
      <point x="256" y="224" type="curve" smooth="yes"/>
      <point x="418" y="224"/>
      <point x="517" y="119"/>
      <point x="517" y="0" type="curve" smooth="yes"/>
      <point x="517" y="-12"/>
      <point x="516" y="-26"/>
      <point x="513" y="-42" type="curve"/>
      <point x="539" y="-45" type="line"/>
      <point x="542" y="-28"/>
      <point x="543" y="-15"/>
      <point x="543" y="-1" type="curve" smooth="yes"/>
      <point x="543" y="137"/>
      <point x="421" y="249"/>
      <point x="254" y="249" type="curve" smooth="yes"/>
      <point x="151" y="249"/>
      <point x="96" y="202"/>
      <point x="96" y="124" type="curve" smooth="yes"/>
      <point x="96" y="42"/>
      <point x="154" y="-12"/>
    </contour>
  </outline>
</glyph>
<glyph name="iitelu" format="2">
  <advance width="870"/>
  <unicode hex="0C08"/>
  <outline>
    <contour>
      <point x="75" y="240" type="curve" smooth="yes"/>
      <point x="75" y="80"/>
      <point x="159" y="-12"/>
      <point x="300" y="-12" type="curve" smooth="yes"/>
      <point x="445" y="-12"/>
      <point x="531" y="84"/>
      <point x="531" y="238" type="curve" smooth="yes"/>
      <point x="531" y="410"/>
      <point x="428" y="493"/>
      <point x="304" y="493" type="curve" smooth="yes"/>
      <point x="182" y="493"/>
      <point x="75" y="406"/>
    </contour>
    <contour>
      <point x="102" y="239" type="curve" smooth="yes"/>
      <point x="102" y="359"/>
      <point x="167" y="468"/>
      <point x="304" y="468" type="curve" smooth="yes"/>
      <point x="429" y="468"/>
      <point x="504" y="377"/>
      <point x="504" y="238" type="curve" smooth="yes"/>
      <point x="504" y="107"/>
      <point x="438" y="15"/>
      <point x="301" y="15" type="curve" smooth="yes"/>
      <point x="167" y="15"/>
      <point x="102" y="99"/>
    </contour>
    <contour>
      <point x="700" y="268" type="curve" smooth="yes"/>
      <point x="19" y="268" type="line"/>
      <point x="19" y="244" type="line"/>
      <point x="682" y="244" type="line"/>
      <point x="673" y="246" type="line"/>
      <point x="636" y="227"/>
      <point x="615" y="190"/>
      <point x="615" y="148" type="curve" smooth="yes"/>
      <point x="615" y="72"/>
      <point x="661" y="33"/>
      <point x="729" y="33" type="curve" smooth="yes"/>
      <point x="799" y="33"/>
      <point x="840" y="75"/>
      <point x="840" y="149" type="curve" smooth="yes"/>
      <point x="840" y="230"/>
      <point x="786" y="268"/>
    </contour>
    <contour>
      <point x="813" y="149" type="curve" smooth="yes"/>
      <point x="813" y="92"/>
      <point x="786" y="58"/>
      <point x="729" y="58" type="curve" smooth="yes"/>
      <point x="677" y="58"/>
      <point x="641" y="82"/>
      <point x="641" y="148" type="curve" smooth="yes"/>
      <point x="641" y="208"/>
      <point x="680" y="243"/>
      <point x="729" y="243" type="curve" smooth="yes"/>
      <point x="781" y="243"/>
      <point x="813" y="209"/>
    </contour>
    <contour>
      <point x="734" y="443" type="curve" smooth="yes"/>
      <point x="683" y="443"/>
      <point x="643" y="414"/>
      <point x="612" y="357" type="curve"/>
      <point x="635" y="347" type="line"/>
      <point x="662" y="392"/>
      <point x="692" y="418"/>
      <point x="734" y="418" type="curve" smooth="yes"/>
      <point x="776" y="418"/>
      <point x="801" y="394"/>
      <point x="801" y="355" type="curve" smooth="yes"/>
      <point x="801" y="315"/>
      <point x="770" y="279"/>
      <point x="694" y="259" type="curve"/>
      <point x="719" y="246" type="line"/>
      <point x="789" y="267"/>
      <point x="828" y="304"/>
      <point x="828" y="355" type="curve" smooth="yes"/>
      <point x="828" y="414"/>
      <point x="787" y="443"/>
    </contour>
    <component base="hattelu" xOffset="169"/>
  </outline>
</glyph>
<glyph name="utelu" format="2">
  <advance width="777"/>
  <unicode hex="0C09"/>
  <outline>
    <contour>
      <point x="549" y="282" type="curve" smooth="yes"/>
      <point x="483" y="282"/>
      <point x="440" y="247"/>
      <point x="440" y="188" type="curve" smooth="yes"/>
      <point x="440" y="122"/>
      <point x="481" y="87"/>
      <point x="545" y="87" type="curve" smooth="yes"/>
      <point x="608" y="87"/>
      <point x="635" y="125"/>
      <point x="644" y="179" type="curve"/>
      <point x="642" y="182" type="line"/>
      <point x="642" y="79"/>
      <point x="608" y="15"/>
      <point x="509" y="15" type="curve" smooth="yes"/>
      <point x="412" y="15"/>
      <point x="373" y="91"/>
      <point x="359" y="172" type="curve"/>
      <point x="335" y="172" type="line"/>
      <point x="324" y="73"/>
      <point x="284" y="15"/>
      <point x="209" y="15" type="curve" smooth="yes"/>
      <point x="136" y="15"/>
      <point x="97" y="69"/>
      <point x="97" y="191" type="curve" smooth="yes"/>
      <point x="97" y="373"/>
      <point x="206" y="468"/>
      <point x="375" y="468" type="curve" smooth="yes"/>
      <point x="468" y="468"/>
      <point x="541" y="435"/>
      <point x="600" y="390" type="curve"/>
      <point x="616" y="412" type="line"/>
      <point x="558" y="456"/>
      <point x="480" y="493"/>
      <point x="376" y="493" type="curve" smooth="yes"/>
      <point x="195" y="493"/>
      <point x="70" y="389"/>
      <point x="70" y="191" type="curve" smooth="yes"/>
      <point x="70" y="50"/>
      <point x="125" y="-12"/>
      <point x="208" y="-12" type="curve" smooth="yes"/>
      <point x="267" y="-12"/>
      <point x="335" y="18"/>
      <point x="351" y="143" type="curve"/>
      <point x="342" y="143" type="line"/>
      <point x="370" y="22"/>
      <point x="444" y="-12"/>
      <point x="510" y="-12" type="curve" smooth="yes"/>
      <point x="613" y="-12"/>
      <point x="662" y="52"/>
      <point x="662" y="154" type="curve" smooth="yes"/>
      <point x="662" y="243"/>
      <point x="625" y="282"/>
    </contour>
    <contour>
      <point x="546" y="112" type="curve" smooth="yes"/>
      <point x="501" y="112"/>
      <point x="467" y="133"/>
      <point x="467" y="188" type="curve" smooth="yes"/>
      <point x="467" y="241"/>
      <point x="504" y="267"/>
      <point x="547" y="267" type="curve" smooth="yes"/>
      <point x="600" y="267"/>
      <point x="627" y="242"/>
      <point x="627" y="193" type="curve" smooth="yes"/>
      <point x="627" y="148"/>
      <point x="598" y="112"/>
    </contour>
    <contour>
      <point x="394" y="636" type="line"/>
      <point x="362" y="636" type="line"/>
      <point x="366" y="479" type="line"/>
      <point x="390" y="479" type="line"/>
    </contour>
    <contour>
      <point x="19" y="291" type="line"/>
      <point x="19" y="267" type="line"/>
      <point x="495" y="267" type="line"/>
      <point x="548" y="273" type="line"/>
      <point x="600" y="267" type="line"/>
      <point x="759" y="267" type="line"/>
      <point x="759" y="291" type="line"/>
    </contour>
  </outline>
</glyph>
<glyph name="uutelu" format="2">
  <advance width="989"/>
  <unicode hex="0C0A"/>
  <outline>
    <contour>
      <point x="549" y="282" type="curve" smooth="yes"/>
      <point x="483" y="282"/>
      <point x="440" y="247"/>
      <point x="440" y="188" type="curve" smooth="yes"/>
      <point x="440" y="122"/>
      <point x="481" y="87"/>
      <point x="545" y="87" type="curve" smooth="yes"/>
      <point x="608" y="87"/>
      <point x="635" y="125"/>
      <point x="644" y="179" type="curve"/>
      <point x="642" y="182" type="line"/>
      <point x="642" y="79"/>
      <point x="608" y="15"/>
      <point x="509" y="15" type="curve" smooth="yes"/>
      <point x="412" y="15"/>
      <point x="373" y="91"/>
      <point x="359" y="172" type="curve"/>
      <point x="335" y="172" type="line"/>
      <point x="324" y="73"/>
      <point x="284" y="15"/>
      <point x="209" y="15" type="curve" smooth="yes"/>
      <point x="136" y="15"/>
      <point x="97" y="69"/>
      <point x="97" y="191" type="curve" smooth="yes"/>
      <point x="97" y="373"/>
      <point x="206" y="468"/>
      <point x="375" y="468" type="curve" smooth="yes"/>
      <point x="468" y="468"/>
      <point x="541" y="435"/>
      <point x="600" y="390" type="curve"/>
      <point x="616" y="412" type="line"/>
      <point x="558" y="456"/>
      <point x="480" y="493"/>
      <point x="376" y="493" type="curve" smooth="yes"/>
      <point x="195" y="493"/>
      <point x="70" y="389"/>
      <point x="70" y="191" type="curve" smooth="yes"/>
      <point x="70" y="50"/>
      <point x="125" y="-12"/>
      <point x="208" y="-12" type="curve" smooth="yes"/>
      <point x="267" y="-12"/>
      <point x="335" y="18"/>
      <point x="351" y="143" type="curve"/>
      <point x="342" y="143" type="line"/>
      <point x="370" y="22"/>
      <point x="444" y="-12"/>
      <point x="510" y="-12" type="curve" smooth="yes"/>
      <point x="613" y="-12"/>
      <point x="662" y="52"/>
      <point x="662" y="154" type="curve" smooth="yes"/>
      <point x="662" y="243"/>
      <point x="625" y="282"/>
    </contour>
    <contour>
      <point x="546" y="112" type="curve" smooth="yes"/>
      <point x="501" y="112"/>
      <point x="467" y="133"/>
      <point x="467" y="188" type="curve" smooth="yes"/>
      <point x="467" y="241"/>
      <point x="504" y="267"/>
      <point x="547" y="267" type="curve" smooth="yes"/>
      <point x="600" y="267"/>
      <point x="627" y="242"/>
      <point x="627" y="195" type="curve" smooth="yes"/>
      <point x="627" y="148"/>
      <point x="598" y="112"/>
    </contour>
    <contour>
      <point x="327" y="636" type="line"/>
      <point x="295" y="636" type="line"/>
      <point x="299" y="479" type="line"/>
      <point x="323" y="479" type="line"/>
    </contour>
    <contour>
      <point x="461" y="636" type="line"/>
      <point x="429" y="636" type="line"/>
      <point x="433" y="479" type="line"/>
      <point x="457" y="479" type="line"/>
    </contour>
    <contour>
      <point x="831" y="291" type="curve" smooth="yes"/>
      <point x="19" y="291" type="line"/>
      <point x="19" y="267" type="line"/>
      <point x="496" y="267" type="line"/>
      <point x="550" y="273" type="line"/>
      <point x="607" y="267" type="line"/>
      <point x="813" y="267" type="line"/>
      <point x="804" y="269" type="line"/>
      <point x="767" y="250"/>
      <point x="746" y="213"/>
      <point x="746" y="171" type="curve" smooth="yes"/>
      <point x="746" y="95"/>
      <point x="792" y="56"/>
      <point x="860" y="56" type="curve" smooth="yes"/>
      <point x="930" y="56"/>
      <point x="971" y="98"/>
      <point x="971" y="172" type="curve" smooth="yes"/>
      <point x="971" y="253"/>
      <point x="917" y="291"/>
    </contour>
    <contour>
      <point x="944" y="172" type="curve" smooth="yes"/>
      <point x="944" y="115"/>
      <point x="917" y="81"/>
      <point x="860" y="81" type="curve" smooth="yes"/>
      <point x="808" y="81"/>
      <point x="772" y="105"/>
      <point x="772" y="171" type="curve" smooth="yes"/>
      <point x="772" y="231"/>
      <point x="811" y="266"/>
      <point x="860" y="266" type="curve" smooth="yes"/>
      <point x="912" y="266"/>
      <point x="944" y="232"/>
    </contour>
    <contour>
      <point x="865" y="466" type="curve" smooth="yes"/>
      <point x="814" y="466"/>
      <point x="774" y="437"/>
      <point x="743" y="380" type="curve"/>
      <point x="766" y="370" type="line"/>
      <point x="793" y="415"/>
      <point x="823" y="441"/>
      <point x="865" y="441" type="curve" smooth="yes"/>
      <point x="907" y="441"/>
      <point x="932" y="417"/>
      <point x="932" y="378" type="curve" smooth="yes"/>
      <point x="932" y="338"/>
      <point x="901" y="302"/>
      <point x="825" y="282" type="curve"/>
      <point x="850" y="269" type="line"/>
      <point x="920" y="290"/>
      <point x="959" y="327"/>
      <point x="959" y="378" type="curve" smooth="yes"/>
      <point x="959" y="437"/>
      <point x="918" y="466"/>
    </contour>
  </outline>
</glyph>
<glyph name="lvocalictelu" format="2">
  <advance width="787"/>
  <unicode hex="0C0C"/>
  <outline>
    <contour>
      <point x="503" y="-61" type="curve" smooth="yes"/>
      <point x="663" y="-61"/>
      <point x="744" y="70"/>
      <point x="744" y="224" type="curve" smooth="yes"/>
      <point x="744" y="346"/>
      <point x="696" y="427"/>
      <point x="605" y="493" type="curve"/>
      <point x="589" y="472" type="line"/>
      <point x="677" y="407"/>
      <point x="717" y="338"/>
      <point x="717" y="224" type="curve" smooth="yes"/>
      <point x="717" y="94"/>
      <point x="654" y="-34"/>
      <point x="503" y="-34" type="curve" smooth="yes"/>
      <point x="412" y="-34"/>
      <point x="379" y="21"/>
      <point x="379" y="81" type="curve" smooth="yes"/>
      <point x="379" y="133"/>
      <point x="400" y="165"/>
      <point x="453" y="233" type="curve" smooth="yes"/>
      <point x="494" y="286"/>
      <point x="518" y="329"/>
      <point x="518" y="379" type="curve" smooth="yes"/>
      <point x="518" y="440"/>
      <point x="486" y="493"/>
      <point x="407" y="493" type="curve" smooth="yes"/>
      <point x="332" y="493"/>
      <point x="284" y="433"/>
      <point x="267" y="341" type="curve"/>
      <point x="276" y="343" type="line"/>
      <point x="264" y="444"/>
      <point x="215" y="493"/>
      <point x="145" y="493" type="curve" smooth="yes"/>
      <point x="83" y="493"/>
      <point x="36" y="451"/>
      <point x="36" y="381" type="curve" smooth="yes"/>
      <point x="36" y="344"/>
      <point x="45" y="312"/>
      <point x="62" y="280" type="curve"/>
      <point x="87" y="288" type="line"/>
      <point x="70" y="317"/>
      <point x="63" y="349"/>
      <point x="63" y="382" type="curve" smooth="yes"/>
      <point x="63" y="435"/>
      <point x="94" y="468"/>
      <point x="145" y="468" type="curve" smooth="yes"/>
      <point x="204" y="468"/>
      <point x="249" y="420"/>
      <point x="259" y="315" type="curve"/>
      <point x="283" y="315" type="line"/>
      <point x="298" y="401"/>
      <point x="337" y="468"/>
      <point x="407" y="468" type="curve" smooth="yes"/>
      <point x="471" y="468"/>
      <point x="491" y="426"/>
      <point x="491" y="378" type="curve" smooth="yes"/>
      <point x="491" y="337"/>
      <point x="471" y="298"/>
      <point x="432" y="249" type="curve" smooth="yes"/>
      <point x="374" y="176"/>
      <point x="352" y="132"/>
      <point x="352" y="77" type="curve" smooth="yes"/>
      <point x="352" y="3"/>
      <point x="401" y="-61"/>
    </contour>
  </outline>
</glyph>
<glyph name="etelu" format="2">
  <advance width="654"/>
  <unicode hex="0C0E"/>
  <outline>
    <contour>
      <point x="288" y="127" type="curve" smooth="yes"/>
      <point x="288" y="205"/>
      <point x="236" y="262"/>
      <point x="162" y="262" type="curve" smooth="yes"/>
      <point x="84" y="262"/>
      <point x="37" y="200"/>
      <point x="37" y="126" type="curve" smooth="yes"/>
      <point x="37" y="34"/>
      <point x="91" y="-12"/>
      <point x="163" y="-12" type="curve" smooth="yes"/>
      <point x="228" y="-12"/>
      <point x="288" y="27"/>
    </contour>
    <contour>
      <point x="65" y="127" type="curve" smooth="yes"/>
      <point x="65" y="193"/>
      <point x="100" y="237"/>
      <point x="163" y="237" type="curve" smooth="yes"/>
      <point x="218" y="237"/>
      <point x="263" y="194"/>
      <point x="263" y="126" type="curve" smooth="yes"/>
      <point x="263" y="49"/>
      <point x="218" y="14"/>
      <point x="162" y="14" type="curve" smooth="yes"/>
      <point x="99" y="14"/>
      <point x="65" y="58"/>
    </contour>
    <contour>
      <point x="268" y="200" type="curve"/>
      <point x="265" y="153" type="line"/>
      <point x="305" y="36"/>
      <point x="372" y="-12"/>
      <point x="451" y="-12" type="curve" smooth="yes"/>
      <point x="534" y="-12"/>
      <point x="610" y="32"/>
      <point x="610" y="219" type="curve" smooth="yes"/>
      <point x="610" y="475"/>
      <point x="458" y="687"/>
      <point x="218" y="699" type="curve"/>
      <point x="218" y="674" type="line"/>
      <point x="430" y="662"/>
      <point x="583" y="479"/>
      <point x="583" y="220" type="curve" smooth="yes"/>
      <point x="583" y="51"/>
      <point x="522" y="15"/>
      <point x="451" y="15" type="curve" smooth="yes"/>
      <point x="374" y="15"/>
      <point x="310" y="75"/>
    </contour>
  </outline>
</glyph>
<glyph name="eetelu" format="2">
  <advance width="654"/>
  <unicode hex="0C0F"/>
  <outline>
    <contour>
      <point x="288" y="127" type="curve" smooth="yes"/>
      <point x="288" y="205"/>
      <point x="236" y="262"/>
      <point x="162" y="262" type="curve" smooth="yes"/>
      <point x="84" y="262"/>
      <point x="37" y="200"/>
      <point x="37" y="126" type="curve" smooth="yes"/>
      <point x="37" y="34"/>
      <point x="91" y="-12"/>
      <point x="163" y="-12" type="curve" smooth="yes"/>
      <point x="228" y="-12"/>
      <point x="288" y="27"/>
    </contour>
    <contour>
      <point x="65" y="127" type="curve" smooth="yes"/>
      <point x="65" y="193"/>
      <point x="100" y="237"/>
      <point x="163" y="237" type="curve" smooth="yes"/>
      <point x="218" y="237"/>
      <point x="263" y="194"/>
      <point x="263" y="126" type="curve" smooth="yes"/>
      <point x="263" y="49"/>
      <point x="218" y="14"/>
      <point x="162" y="14" type="curve" smooth="yes"/>
      <point x="99" y="14"/>
      <point x="65" y="58"/>
    </contour>
    <contour>
      <point x="268" y="200" type="curve"/>
      <point x="265" y="153" type="line"/>
      <point x="305" y="36"/>
      <point x="372" y="-12"/>
      <point x="451" y="-12" type="curve" smooth="yes"/>
      <point x="534" y="-12"/>
      <point x="610" y="32"/>
      <point x="610" y="219" type="curve" smooth="yes"/>
      <point x="610" y="475"/>
      <point x="458" y="687"/>
      <point x="218" y="699" type="curve"/>
      <point x="218" y="674" type="line"/>
      <point x="430" y="662"/>
      <point x="583" y="479"/>
      <point x="583" y="220" type="curve" smooth="yes"/>
      <point x="583" y="51"/>
      <point x="522" y="15"/>
      <point x="451" y="15" type="curve" smooth="yes"/>
      <point x="374" y="15"/>
      <point x="310" y="75"/>
    </contour>
    <contour>
      <point x="117" y="693" type="curve" smooth="yes"/>
      <point x="117" y="631"/>
      <point x="147" y="573"/>
      <point x="176" y="526" type="curve"/>
      <point x="200" y="537" type="line"/>
      <point x="167" y="589"/>
      <point x="144" y="637"/>
      <point x="144" y="693" type="curve" smooth="yes"/>
      <point x="144" y="741"/>
      <point x="165" y="790"/>
      <point x="234" y="790" type="curve" smooth="yes"/>
      <point x="252" y="790"/>
      <point x="270" y="786"/>
      <point x="282" y="781" type="curve"/>
      <point x="291" y="806" type="line"/>
      <point x="277" y="811"/>
      <point x="257" y="815"/>
      <point x="234" y="815" type="curve" smooth="yes"/>
      <point x="164" y="815"/>
      <point x="117" y="774"/>
    </contour>
  </outline>
</glyph>
<glyph name="aitelu" format="2">
  <advance width="670"/>
  <unicode hex="0C10"/>
  <outline>
    <contour>
      <point x="292" y="127" type="curve" smooth="yes"/>
      <point x="292" y="205"/>
      <point x="240" y="262"/>
      <point x="166" y="262" type="curve" smooth="yes"/>
      <point x="88" y="262"/>
      <point x="41" y="200"/>
      <point x="41" y="126" type="curve" smooth="yes"/>
      <point x="41" y="34"/>
      <point x="95" y="-12"/>
      <point x="167" y="-12" type="curve" smooth="yes"/>
      <point x="232" y="-12"/>
      <point x="292" y="27"/>
    </contour>
    <contour>
      <point x="68" y="127" type="curve" smooth="yes"/>
      <point x="68" y="193"/>
      <point x="103" y="237"/>
      <point x="167" y="237" type="curve" smooth="yes"/>
      <point x="222" y="237"/>
      <point x="267" y="194"/>
      <point x="267" y="126" type="curve" smooth="yes"/>
      <point x="267" y="49"/>
      <point x="222" y="14"/>
      <point x="166" y="14" type="curve" smooth="yes"/>
      <point x="103" y="14"/>
      <point x="68" y="58"/>
    </contour>
    <contour>
      <point x="464" y="-12" type="curve" smooth="yes"/>
      <point x="550" y="-12"/>
      <point x="623" y="50"/>
      <point x="623" y="228" type="curve" smooth="yes"/>
      <point x="623" y="409"/>
      <point x="555" y="493"/>
      <point x="456" y="493" type="curve" smooth="yes"/>
      <point x="377" y="493"/>
      <point x="324" y="439"/>
      <point x="303" y="358" type="curve"/>
      <point x="313" y="361" type="line"/>
      <point x="301" y="427"/>
      <point x="254" y="493"/>
      <point x="168" y="493" type="curve" smooth="yes"/>
      <point x="98" y="493"/>
      <point x="46" y="450"/>
      <point x="46" y="381" type="curve" smooth="yes"/>
      <point x="46" y="353"/>
      <point x="51" y="332"/>
      <point x="60" y="306" type="curve"/>
      <point x="85" y="313" type="line"/>
      <point x="77" y="333"/>
      <point x="73" y="355"/>
      <point x="73" y="381" type="curve" smooth="yes"/>
      <point x="73" y="429"/>
      <point x="106" y="468"/>
      <point x="168" y="468" type="curve" smooth="yes"/>
      <point x="239" y="468"/>
      <point x="283" y="409"/>
      <point x="296" y="344" type="curve"/>
      <point x="320" y="344" type="line"/>
      <point x="337" y="402"/>
      <point x="375" y="468"/>
      <point x="456" y="468" type="curve" smooth="yes"/>
      <point x="545" y="468"/>
      <point x="596" y="385"/>
      <point x="596" y="228" type="curve" smooth="yes"/>
      <point x="596" y="67"/>
      <point x="537" y="15"/>
      <point x="461" y="15" type="curve" smooth="yes"/>
      <point x="378" y="15"/>
      <point x="314" y="75"/>
      <point x="272" y="200" type="curve"/>
      <point x="269" y="153" type="line"/>
      <point x="309" y="36"/>
      <point x="376" y="-12"/>
    </contour>
  </outline>
</glyph>
<glyph name="otelu" format="2">
  <advance width="665"/>
  <unicode hex="0C12"/>
  <outline>
    <contour>
      <point x="488" y="-12" type="curve" smooth="yes"/>
      <point x="575" y="-12"/>
      <point x="626" y="34"/>
      <point x="626" y="129" type="curve" smooth="yes"/>
      <point x="626" y="201"/>
      <point x="593" y="270"/>
      <point x="495" y="302" type="curve"/>
      <point x="487" y="277" type="line"/>
      <point x="574" y="249"/>
      <point x="599" y="190"/>
      <point x="599" y="129" type="curve" smooth="yes"/>
      <point x="599" y="56"/>
      <point x="566" y="15"/>
      <point x="488" y="15" type="curve" smooth="yes"/>
      <point x="407" y="15"/>
      <point x="359" y="63"/>
      <point x="346" y="172" type="curve"/>
      <point x="322" y="172" type="line"/>
      <point x="311" y="81"/>
      <point x="272" y="15"/>
      <point x="177" y="15" type="curve" smooth="yes"/>
      <point x="113" y="15"/>
      <point x="72" y="45"/>
      <point x="72" y="110" type="curve" smooth="yes"/>
      <point x="72" y="167"/>
      <point x="105" y="200"/>
      <point x="183" y="236" type="curve" smooth="yes"/>
      <point x="261" y="272"/>
      <point x="305" y="304"/>
      <point x="305" y="378" type="curve" smooth="yes"/>
      <point x="305" y="433"/>
      <point x="273" y="493"/>
      <point x="178" y="493" type="curve" smooth="yes"/>
      <point x="83" y="493"/>
      <point x="40" y="435"/>
      <point x="40" y="373" type="curve" smooth="yes"/>
      <point x="40" y="340"/>
      <point x="46" y="317"/>
      <point x="52" y="298" type="curve"/>
      <point x="78" y="302" type="line"/>
      <point x="71" y="321"/>
      <point x="67" y="344"/>
      <point x="67" y="373" type="curve" smooth="yes"/>
      <point x="67" y="427"/>
      <point x="98" y="468"/>
      <point x="178" y="468" type="curve" smooth="yes"/>
      <point x="256" y="468"/>
      <point x="278" y="422"/>
      <point x="278" y="378" type="curve" smooth="yes"/>
      <point x="278" y="321"/>
      <point x="249" y="294"/>
      <point x="171" y="258" type="curve" smooth="yes"/>
      <point x="89" y="220"/>
      <point x="45" y="182"/>
      <point x="45" y="110" type="curve" smooth="yes"/>
      <point x="45" y="39"/>
      <point x="88" y="-12"/>
      <point x="177" y="-12" type="curve" smooth="yes"/>
      <point x="256" y="-12"/>
      <point x="321" y="29"/>
      <point x="338" y="143" type="curve"/>
      <point x="329" y="143" type="line"/>
      <point x="344" y="40"/>
      <point x="397" y="-12"/>
    </contour>
  </outline>
</glyph>
<glyph name="ootelu" format="2">
  <advance width="665"/>
  <unicode hex="0C13"/>
  <outline>
    <contour>
      <point x="175" y="661" type="curve" smooth="yes"/>
      <point x="105" y="661"/>
      <point x="61" y="623"/>
      <point x="61" y="563" type="curve" smooth="yes"/>
      <point x="61" y="523"/>
      <point x="85" y="487"/>
      <point x="114" y="465" type="curve"/>
      <point x="133" y="480" type="line"/>
      <point x="103" y="502"/>
      <point x="88" y="531"/>
      <point x="88" y="563" type="curve" smooth="yes"/>
      <point x="88" y="612"/>
      <point x="124" y="636"/>
      <point x="175" y="636" type="curve" smooth="yes"/>
      <point x="236" y="636"/>
      <point x="276" y="597"/>
      <point x="276" y="520" type="curve"/>
      <point x="302" y="520" type="line"/>
      <point x="302" y="590"/>
      <point x="270" y="661"/>
    </contour>
    <component base="otelu"/>
  </outline>
</glyph>
<glyph name="autelu" format="2">
  <advance width="665"/>
  <unicode hex="0C14"/>
  <outline>
    <contour>
      <point x="101" y="646" type="line"/>
      <point x="194" y="646" type="line" smooth="yes"/>
      <point x="266" y="646"/>
      <point x="305" y="627"/>
      <point x="305" y="568" type="curve" smooth="yes"/>
      <point x="305" y="503"/>
      <point x="253" y="493"/>
      <point x="180" y="493" type="curve" smooth="yes"/>
      <point x="116" y="493" type="line"/>
      <point x="116" y="469" type="line"/>
      <point x="175" y="469" type="line" smooth="yes"/>
      <point x="266" y="469"/>
      <point x="332" y="489"/>
      <point x="332" y="568" type="curve" smooth="yes"/>
      <point x="332" y="642"/>
      <point x="271" y="663"/>
      <point x="194" y="663" type="curve" smooth="yes"/>
      <point x="101" y="663" type="line"/>
    </contour>
    <contour>
      <point x="486" y="670" type="curve" smooth="yes"/>
      <point x="60" y="670" type="line"/>
      <point x="55" y="646" type="line"/>
      <point x="478" y="646" type="line"/>
      <point x="468" y="650" type="line"/>
      <point x="430" y="626"/>
      <point x="416" y="597"/>
      <point x="416" y="560" type="curve" smooth="yes"/>
      <point x="416" y="489"/>
      <point x="462" y="455"/>
      <point x="521" y="455" type="curve" smooth="yes"/>
      <point x="581" y="455"/>
      <point x="625" y="495"/>
      <point x="625" y="562" type="curve" smooth="yes"/>
      <point x="625" y="590"/>
      <point x="615" y="617"/>
      <point x="599" y="634" type="curve" smooth="yes"/>
      <point x="574" y="660"/>
      <point x="544" y="670"/>
    </contour>
    <contour>
      <point x="522" y="480" type="curve" smooth="yes"/>
      <point x="478" y="480"/>
      <point x="442" y="502"/>
      <point x="442" y="562" type="curve" smooth="yes"/>
      <point x="442" y="610"/>
      <point x="473" y="645"/>
      <point x="518" y="645" type="curve" smooth="yes"/>
      <point x="566" y="645"/>
      <point x="598" y="611"/>
      <point x="598" y="562" type="curve" smooth="yes"/>
      <point x="598" y="512"/>
      <point x="571" y="480"/>
    </contour>
    <component base="otelu"/>
  </outline>
</glyph>
<glyph name="khatelu" format="2">
  <advance width="705"/>
  <unicode hex="0C16"/>
  <outline>
    <contour>
      <point x="494" y="-12" type="curve" smooth="yes"/>
      <point x="590" y="-12"/>
      <point x="663" y="38"/>
      <point x="663" y="197" type="curve" smooth="yes"/>
      <point x="663" y="363"/>
      <point x="559" y="484"/>
      <point x="419" y="496" type="curve"/>
      <point x="419" y="471" type="line"/>
      <point x="544" y="458"/>
      <point x="636" y="351"/>
      <point x="636" y="197" type="curve" smooth="yes"/>
      <point x="636" y="51"/>
      <point x="573" y="15"/>
      <point x="494" y="15" type="curve" smooth="yes"/>
      <point x="432" y="15"/>
      <point x="389" y="46"/>
      <point x="333" y="105" type="curve"/>
      <point x="272" y="164"/>
      <point x="221" y="207"/>
      <point x="149" y="207" type="curve" smooth="yes"/>
      <point x="78" y="207"/>
      <point x="34" y="164"/>
      <point x="34" y="100" type="curve" smooth="yes"/>
      <point x="34" y="33"/>
      <point x="80" y="-12"/>
      <point x="159" y="-12" type="curve" smooth="yes"/>
      <point x="291" y="-12"/>
      <point x="382" y="94"/>
      <point x="382" y="260" type="curve" smooth="yes"/>
      <point x="382" y="386"/>
      <point x="314" y="493"/>
      <point x="178" y="493" type="curve" smooth="yes"/>
      <point x="98" y="493"/>
      <point x="52" y="449"/>
      <point x="52" y="382" type="curve" smooth="yes"/>
      <point x="52" y="315"/>
      <point x="96" y="273"/>
      <point x="158" y="273" type="curve" smooth="yes"/>
      <point x="220" y="273"/>
      <point x="265" y="308"/>
      <point x="265" y="382" type="curve" smooth="yes"/>
      <point x="265" y="418"/>
      <point x="246" y="454"/>
      <point x="209" y="473" type="curve"/>
      <point x="200" y="472" type="line"/>
      <point x="293" y="459"/>
      <point x="355" y="382"/>
      <point x="355" y="260" type="curve" smooth="yes"/>
      <point x="355" y="104"/>
      <point x="274" y="14"/>
      <point x="160" y="14" type="curve" smooth="yes"/>
      <point x="105" y="14"/>
      <point x="61" y="42"/>
      <point x="61" y="100" type="curve" smooth="yes"/>
      <point x="61" y="153"/>
      <point x="97" y="182"/>
      <point x="148" y="182" type="curve" smooth="yes"/>
      <point x="207" y="182"/>
      <point x="254" y="148"/>
      <point x="320" y="82" type="curve"/>
      <point x="371" y="26"/>
      <point x="419" y="-12"/>
    </contour>
    <contour>
      <point x="79" y="382" type="curve" smooth="yes"/>
      <point x="79" y="433"/>
      <point x="111" y="467"/>
      <point x="161" y="467" type="curve" smooth="yes"/>
      <point x="207" y="467"/>
      <point x="239" y="432"/>
      <point x="239" y="382" type="curve" smooth="yes"/>
      <point x="239" y="322"/>
      <point x="203" y="298"/>
      <point x="157" y="298" type="curve" smooth="yes"/>
      <point x="106" y="298"/>
      <point x="79" y="332"/>
    </contour>
    <contour>
      <point x="312" y="-125" type="line"/>
      <point x="344" y="-125" type="line"/>
      <point x="340" y="32" type="line"/>
      <point x="316" y="32" type="line"/>
    </contour>
  </outline>
</glyph>
<glyph name="chatelu" format="2">
  <advance width="680"/>
  <unicode hex="0C1B"/>
  <outline>
    <contour>
      <point x="484" y="-12" type="curve" smooth="yes"/>
      <point x="572" y="-12"/>
      <point x="638" y="39"/>
      <point x="638" y="197" type="curve" smooth="yes"/>
      <point x="638" y="359"/>
      <point x="533" y="485"/>
      <point x="353" y="492" type="curve"/>
      <point x="332" y="471" type="line"/>
      <point x="527" y="458"/>
      <point x="611" y="347"/>
      <point x="611" y="197" type="curve" smooth="yes"/>
      <point x="611" y="51"/>
      <point x="554" y="15"/>
      <point x="484" y="15" type="curve" smooth="yes"/>
      <point x="408" y="15"/>
      <point x="360" y="62"/>
      <point x="348" y="172" type="curve"/>
      <point x="324" y="172" type="line"/>
      <point x="313" y="72"/>
      <point x="269" y="15"/>
      <point x="191" y="15" type="curve" smooth="yes"/>
      <point x="119" y="15"/>
      <point x="89" y="66"/>
      <point x="89" y="123" type="curve" smooth="yes"/>
      <point x="89" y="196"/>
      <point x="137" y="247"/>
      <point x="219" y="286" type="curve"/>
      <point x="219" y="308" type="line"/>
      <point x="25" y="319" type="line"/>
      <point x="25" y="291" type="line"/>
      <point x="194" y="286" type="line"/>
      <point x="186" y="290" type="line"/>
      <point x="109" y="253"/>
      <point x="62" y="199"/>
      <point x="62" y="122" type="curve" smooth="yes"/>
      <point x="62" y="49"/>
      <point x="104" y="-12"/>
      <point x="192" y="-12" type="curve" smooth="yes"/>
      <point x="265" y="-12"/>
      <point x="323" y="27"/>
      <point x="340" y="143" type="curve"/>
      <point x="331" y="143" type="line"/>
      <point x="346" y="34"/>
      <point x="401" y="-12"/>
    </contour>
    <contour>
      <point x="320" y="-125" type="line"/>
      <point x="352" y="-125" type="line"/>
      <point x="348" y="36" type="line"/>
      <point x="324" y="36" type="line"/>
    </contour>
    <component base="hattelu" xOffset="220"/>
  </outline>
</glyph>
<glyph name="nyatelu" format="2">
  <advance width="865"/>
  <unicode hex="0C1E"/>
  <outline>
    <contour>
      <point x="279" y="-12" type="curve" smooth="yes"/>
      <point x="378" y="-12"/>
      <point x="458" y="21"/>
      <point x="512" y="79" type="curve"/>
      <point x="519" y="87" type="line"/>
      <point x="563" y="138"/>
      <point x="587" y="208"/>
      <point x="587" y="292" type="curve" smooth="yes"/>
      <point x="587" y="445"/>
      <point x="513" y="493"/>
      <point x="440" y="493" type="curve" smooth="yes"/>
      <point x="367" y="493"/>
      <point x="314" y="445"/>
      <point x="293" y="358" type="curve"/>
      <point x="303" y="361" type="line"/>
      <point x="291" y="427"/>
      <point x="244" y="493"/>
      <point x="156" y="493" type="curve" smooth="yes"/>
      <point x="88" y="493"/>
      <point x="36" y="450"/>
      <point x="36" y="381" type="curve" smooth="yes"/>
      <point x="36" y="352"/>
      <point x="43" y="322"/>
      <point x="54" y="296" type="curve"/>
      <point x="79" y="304" type="line"/>
      <point x="70" y="324"/>
      <point x="63" y="349"/>
      <point x="63" y="381" type="curve" smooth="yes"/>
      <point x="63" y="430"/>
      <point x="96" y="468"/>
      <point x="157" y="468" type="curve" smooth="yes"/>
      <point x="229" y="468"/>
      <point x="273" y="409"/>
      <point x="286" y="344" type="curve"/>
      <point x="310" y="344" type="line"/>
      <point x="327" y="407"/>
      <point x="366" y="467"/>
      <point x="438" y="467" type="curve" smooth="yes"/>
      <point x="493" y="467"/>
      <point x="560" y="436"/>
      <point x="560" y="293" type="curve" smooth="yes"/>
      <point x="560" y="119"/>
      <point x="455" y="15"/>
      <point x="280" y="15" type="curve" smooth="yes"/>
      <point x="155" y="15"/>
      <point x="123" y="68"/>
      <point x="123" y="123" type="curve" smooth="yes"/>
      <point x="123" y="188"/>
      <point x="164" y="224"/>
      <point x="256" y="224" type="curve" smooth="yes"/>
      <point x="418" y="224"/>
      <point x="517" y="119"/>
      <point x="517" y="0" type="curve" smooth="yes"/>
      <point x="517" y="-12"/>
      <point x="516" y="-26"/>
      <point x="513" y="-42" type="curve"/>
      <point x="539" y="-45" type="line"/>
      <point x="542" y="-28"/>
      <point x="543" y="-15"/>
      <point x="543" y="-1" type="curve" smooth="yes"/>
      <point x="543" y="137"/>
      <point x="421" y="249"/>
      <point x="254" y="249" type="curve" smooth="yes"/>
      <point x="151" y="249"/>
      <point x="96" y="202"/>
      <point x="96" y="124" type="curve" smooth="yes"/>
      <point x="96" y="42"/>
      <point x="154" y="-12"/>
    </contour>
    <contour>
      <point x="564" y="313" type="line"/>
      <point x="847" y="313" type="line"/>
      <point x="847" y="338" type="line"/>
      <point x="564" y="338" type="line"/>
    </contour>
    <contour>
      <point x="722" y="493" type="line"/>
      <point x="690" y="493" type="line"/>
      <point x="694" y="336" type="line"/>
      <point x="718" y="336" type="line"/>
    </contour>
  </outline>
</glyph>
<glyph name="nnatelu" format="2">
  <advance width="771"/>
  <unicode hex="0C23"/>
  <outline>
    <contour>
      <point x="535" y="493" type="curve" smooth="yes"/>
      <point x="452" y="493"/>
      <point x="400" y="444"/>
      <point x="367" y="368" type="curve"/>
      <point x="374" y="370" type="line"/>
      <point x="346" y="425"/>
      <point x="288" y="493"/>
      <point x="191" y="493" type="curve" smooth="yes"/>
      <point x="105" y="493"/>
      <point x="42" y="445"/>
      <point x="42" y="366" type="curve" smooth="yes"/>
      <point x="42" y="289"/>
      <point x="98" y="245"/>
      <point x="186" y="239" type="curve"/>
      <point x="191" y="247" type="line"/>
      <point x="81" y="243"/>
      <point x="39" y="180"/>
      <point x="39" y="114" type="curve" smooth="yes"/>
      <point x="39" y="44"/>
      <point x="83" y="-12"/>
      <point x="177" y="-12" type="curve" smooth="yes"/>
      <point x="268" y="-12"/>
      <point x="327" y="50"/>
      <point x="352" y="118" type="curve"/>
      <point x="327" y="123" type="line"/>
      <point x="298" y="55"/>
      <point x="251" y="15"/>
      <point x="177" y="15" type="curve" smooth="yes"/>
      <point x="95" y="15"/>
      <point x="66" y="60"/>
      <point x="66" y="114" type="curve" smooth="yes"/>
      <point x="66" y="201"/>
      <point x="133" y="232"/>
      <point x="226" y="232" type="curve" smooth="yes"/>
      <point x="249" y="232" type="line"/>
      <point x="249" y="256" type="line"/>
      <point x="225" y="256" type="line" smooth="yes"/>
      <point x="130" y="256"/>
      <point x="69" y="289"/>
      <point x="69" y="365" type="curve" smooth="yes"/>
      <point x="69" y="432"/>
      <point x="118" y="468"/>
      <point x="192" y="468" type="curve" smooth="yes"/>
      <point x="279" y="468"/>
      <point x="325" y="412"/>
      <point x="360" y="353" type="curve"/>
      <point x="384" y="353" type="line"/>
      <point x="416" y="421"/>
      <point x="459" y="468"/>
      <point x="534" y="468" type="curve" smooth="yes"/>
      <point x="647" y="468"/>
      <point x="698" y="368"/>
      <point x="698" y="231" type="curve" smooth="yes"/>
      <point x="698" y="111"/>
      <point x="650" y="38"/>
      <point x="578" y="11" type="curve"/>
      <point x="583" y="12" type="line"/>
      <point x="615" y="33"/>
      <point x="630" y="65"/>
      <point x="630" y="108" type="curve" smooth="yes"/>
      <point x="630" y="184"/>
      <point x="588" y="225"/>
      <point x="524" y="225" type="curve" smooth="yes"/>
      <point x="458" y="225"/>
      <point x="410" y="181"/>
      <point x="410" y="106" type="curve" smooth="yes"/>
      <point x="410" y="33"/>
      <point x="450" y="-12"/>
      <point x="537" y="-12" type="curve" smooth="yes"/>
      <point x="646" y="-12"/>
      <point x="724" y="76"/>
      <point x="724" y="231" type="curve" smooth="yes"/>
      <point x="724" y="400"/>
      <point x="652" y="493"/>
    </contour>
    <contour>
      <point x="520" y="14" type="curve" smooth="yes"/>
      <point x="466" y="14"/>
      <point x="436" y="47"/>
      <point x="436" y="106" type="curve" smooth="yes"/>
      <point x="436" y="165"/>
      <point x="466" y="200"/>
      <point x="523" y="200" type="curve" smooth="yes"/>
      <point x="569" y="200"/>
      <point x="604" y="176"/>
      <point x="604" y="108" type="curve" smooth="yes"/>
      <point x="604" y="49"/>
      <point x="576" y="14"/>
    </contour>
  </outline>
</glyph>
<glyph name="tatelu" format="2">
  <advance width="701"/>
  <unicode hex="0C24"/>
  <outline>
    <contour>
      <point x="349" y="-12" type="curve" smooth="yes"/>
      <point x="574" y="-12"/>
      <point x="661" y="88"/>
      <point x="661" y="233" type="curve" smooth="yes"/>
      <point x="661" y="301"/>
      <point x="634" y="358"/>
      <point x="581" y="386" type="curve"/>
      <point x="567" y="387" type="line"/>
      <point x="552" y="396"/>
      <point x="533" y="401"/>
      <point x="510" y="401" type="curve" smooth="yes"/>
      <point x="441" y="401"/>
      <point x="391" y="360"/>
      <point x="391" y="293" type="curve" smooth="yes"/>
      <point x="391" y="228"/>
      <point x="430" y="191"/>
      <point x="495" y="191" type="curve" smooth="yes"/>
      <point x="568" y="191"/>
      <point x="600" y="237"/>
      <point x="600" y="304" type="curve" smooth="yes"/>
      <point x="600" y="322"/>
      <point x="598" y="342"/>
      <point x="589" y="360" type="curve"/>
      <point x="591" y="372" type="line"/>
      <point x="563" y="450"/>
      <point x="487" y="492"/>
      <point x="386" y="493" type="curve"/>
      <point x="359" y="470" type="line"/>
      <point x="373" y="470" type="line" smooth="yes"/>
      <point x="464" y="470"/>
      <point x="535" y="440"/>
      <point x="563" y="381" type="curve"/>
      <point x="563" y="372" type="line"/>
      <point x="572" y="352"/>
      <point x="576" y="328"/>
      <point x="576" y="304" type="curve" smooth="yes"/>
      <point x="576" y="247"/>
      <point x="548" y="216"/>
      <point x="496" y="216" type="curve" smooth="yes"/>
      <point x="450" y="216"/>
      <point x="418" y="238"/>
      <point x="418" y="292" type="curve" smooth="yes"/>
      <point x="418" y="352"/>
      <point x="462" y="376"/>
      <point x="513" y="376" type="curve" smooth="yes"/>
      <point x="535" y="376"/>
      <point x="555" y="371"/>
      <point x="572" y="363" type="curve"/>
      <point x="585" y="357" type="line"/>
      <point x="618" y="334"/>
      <point x="635" y="290"/>
      <point x="635" y="234" type="curve" smooth="yes"/>
      <point x="635" y="99"/>
      <point x="550" y="15"/>
      <point x="349" y="15" type="curve" smooth="yes"/>
      <point x="155" y="15"/>
      <point x="67" y="93"/>
      <point x="67" y="227" type="curve" smooth="yes"/>
      <point x="67" y="311"/>
      <point x="98" y="356"/>
      <point x="152" y="384" type="curve"/>
      <point x="152" y="386" type="line"/>
      <point x="119" y="362"/>
      <point x="106" y="331"/>
      <point x="106" y="298" type="curve" smooth="yes"/>
      <point x="106" y="226"/>
      <point x="152" y="191"/>
      <point x="212" y="191" type="curve" smooth="yes"/>
      <point x="274" y="191"/>
      <point x="318" y="232"/>
      <point x="318" y="300" type="curve" smooth="yes"/>
      <point x="318" y="370"/>
      <point x="271" y="410"/>
      <point x="204" y="410" type="curve" smooth="yes"/>
      <point x="101" y="410"/>
      <point x="40" y="331"/>
      <point x="40" y="227" type="curve" smooth="yes"/>
      <point x="40" y="83"/>
      <point x="134" y="-12"/>
    </contour>
    <contour>
      <point x="291" y="300" type="curve" smooth="yes"/>
      <point x="291" y="250"/>
      <point x="264" y="216"/>
      <point x="213" y="216" type="curve" smooth="yes"/>
      <point x="167" y="216"/>
      <point x="131" y="239"/>
      <point x="131" y="299" type="curve" smooth="yes"/>
      <point x="131" y="350"/>
      <point x="162" y="385"/>
      <point x="209" y="385" type="curve" smooth="yes"/>
      <point x="259" y="385"/>
      <point x="291" y="351"/>
    </contour>
    <component base="hattelu" xOffset="239"/>
  </outline>
</glyph>
<glyph name="natelu" format="2">
  <advance width="639"/>
  <unicode hex="0C28"/>
  <outline>
    <contour>
      <point x="446" y="-12" type="curve" smooth="yes"/>
      <point x="531" y="-12"/>
      <point x="597" y="39"/>
      <point x="597" y="197" type="curve" smooth="yes"/>
      <point x="597" y="359"/>
      <point x="495" y="495"/>
      <point x="267" y="495" type="curve"/>
      <point x="232" y="470" type="line"/>
      <point x="254" y="470" type="line" smooth="yes"/>
      <point x="485" y="470"/>
      <point x="570" y="347"/>
      <point x="570" y="197" type="curve" smooth="yes"/>
      <point x="570" y="51"/>
      <point x="513" y="15"/>
      <point x="447" y="15" type="curve" smooth="yes"/>
      <point x="377" y="15"/>
      <point x="330" y="62"/>
      <point x="282" y="145" type="curve" smooth="yes"/>
      <point x="226" y="241"/>
      <point x="193" y="263"/>
      <point x="145" y="263" type="curve" smooth="yes"/>
      <point x="84" y="263"/>
      <point x="42" y="215"/>
      <point x="42" y="137" type="curve" smooth="yes"/>
      <point x="42" y="91"/>
      <point x="51" y="47"/>
      <point x="72" y="-10" type="curve"/>
      <point x="100" y="-7" type="line"/>
      <point x="78" y="52"/>
      <point x="69" y="91"/>
      <point x="69" y="137" type="curve" smooth="yes"/>
      <point x="69" y="200"/>
      <point x="96" y="238"/>
      <point x="144" y="238" type="curve" smooth="yes"/>
      <point x="182" y="238"/>
      <point x="209" y="221"/>
      <point x="260" y="132" type="curve" smooth="yes"/>
      <point x="314" y="37"/>
      <point x="370" y="-12"/>
    </contour>
    <component base="hattelu" xOffset="123"/>
  </outline>
</glyph>
<glyph name="batelu" format="2">
  <advance width="680"/>
  <unicode hex="0C2C"/>
  <outline>
    <contour>
      <point x="479" y="-12" type="curve" smooth="yes"/>
      <point x="565" y="-12"/>
      <point x="638" y="38"/>
      <point x="638" y="197" type="curve" smooth="yes"/>
      <point x="638" y="363"/>
      <point x="534" y="484"/>
      <point x="394" y="496" type="curve"/>
      <point x="394" y="471" type="line"/>
      <point x="519" y="458"/>
      <point x="611" y="351"/>
      <point x="611" y="197" type="curve" smooth="yes"/>
      <point x="611" y="51"/>
      <point x="548" y="15"/>
      <point x="482" y="15" type="curve" smooth="yes"/>
      <point x="406" y="15"/>
      <point x="359" y="60"/>
      <point x="346" y="172" type="curve"/>
      <point x="322" y="172" type="line"/>
      <point x="311" y="81"/>
      <point x="272" y="15"/>
      <point x="177" y="15" type="curve" smooth="yes"/>
      <point x="113" y="15"/>
      <point x="72" y="45"/>
      <point x="72" y="110" type="curve" smooth="yes"/>
      <point x="72" y="167"/>
      <point x="105" y="200"/>
      <point x="183" y="236" type="curve" smooth="yes"/>
      <point x="261" y="272"/>
      <point x="305" y="304"/>
      <point x="305" y="378" type="curve" smooth="yes"/>
      <point x="305" y="433"/>
      <point x="273" y="493"/>
      <point x="178" y="493" type="curve" smooth="yes"/>
      <point x="83" y="493"/>
      <point x="40" y="435"/>
      <point x="40" y="373" type="curve" smooth="yes"/>
      <point x="40" y="340"/>
      <point x="46" y="317"/>
      <point x="52" y="298" type="curve"/>
      <point x="78" y="302" type="line"/>
      <point x="71" y="321"/>
      <point x="67" y="344"/>
      <point x="67" y="373" type="curve" smooth="yes"/>
      <point x="67" y="426"/>
      <point x="99" y="468"/>
      <point x="178" y="468" type="curve" smooth="yes"/>
      <point x="256" y="468"/>
      <point x="278" y="422"/>
      <point x="278" y="378" type="curve" smooth="yes"/>
      <point x="278" y="321"/>
      <point x="249" y="294"/>
      <point x="171" y="258" type="curve" smooth="yes"/>
      <point x="88" y="220"/>
      <point x="45" y="182"/>
      <point x="45" y="110" type="curve" smooth="yes"/>
      <point x="45" y="39"/>
      <point x="88" y="-12"/>
      <point x="177" y="-12" type="curve" smooth="yes"/>
      <point x="256" y="-12"/>
      <point x="321" y="29"/>
      <point x="338" y="143" type="curve"/>
      <point x="329" y="143" type="line"/>
      <point x="344" y="36"/>
      <point x="397" y="-12"/>
    </contour>
  </outline>
</glyph>
<glyph name="rratelu" format="2">
  <advance width="754"/>
  <unicode hex="0C31"/>
  <outline>
    <contour>
      <point x="550" y="493" type="curve" smooth="yes"/>
      <point x="485" y="493"/>
      <point x="444" y="446"/>
      <point x="444" y="385" type="curve" smooth="yes"/>
      <point x="444" y="313"/>
      <point x="497" y="271"/>
      <point x="560" y="237" type="curve"/>
      <point x="559" y="252" type="line"/>
      <point x="264" y="252" type="line"/>
      <point x="264" y="228" type="line"/>
      <point x="567" y="228" type="line"/>
      <point x="576" y="250" type="line"/>
      <point x="529" y="279"/>
      <point x="471" y="315"/>
      <point x="471" y="384" type="curve" smooth="yes"/>
      <point x="471" y="435"/>
      <point x="503" y="468"/>
      <point x="550" y="468" type="curve" smooth="yes"/>
      <point x="635" y="468"/>
      <point x="681" y="358"/>
      <point x="681" y="227" type="curve" smooth="yes"/>
      <point x="681" y="98"/>
      <point x="643" y="15"/>
      <point x="536" y="15" type="curve" smooth="yes"/>
      <point x="440" y="15"/>
      <point x="402" y="81"/>
      <point x="389" y="172" type="curve"/>
      <point x="365" y="172" type="line"/>
      <point x="352" y="81"/>
      <point x="314" y="15"/>
      <point x="218" y="15" type="curve" smooth="yes"/>
      <point x="107" y="15"/>
      <point x="73" y="108"/>
      <point x="73" y="227" type="curve" smooth="yes"/>
      <point x="73" y="326"/>
      <point x="105" y="419"/>
      <point x="186" y="465" type="curve"/>
      <point x="171" y="461" type="line"/>
      <point x="149" y="440"/>
      <point x="135" y="420"/>
      <point x="135" y="381" type="curve" smooth="yes"/>
      <point x="135" y="309"/>
      <point x="180" y="274"/>
      <point x="240" y="274" type="curve" smooth="yes"/>
      <point x="306" y="274"/>
      <point x="346" y="316"/>
      <point x="346" y="383" type="curve" smooth="yes"/>
      <point x="346" y="453"/>
      <point x="300" y="493"/>
      <point x="238" y="493" type="curve" smooth="yes"/>
      <point x="149" y="493"/>
      <point x="47" y="405"/>
      <point x="47" y="227" type="curve" smooth="yes"/>
      <point x="47" y="65"/>
      <point x="107" y="-12"/>
      <point x="219" y="-12" type="curve" smooth="yes"/>
      <point x="297" y="-12"/>
      <point x="362" y="28"/>
      <point x="381" y="143" type="curve"/>
      <point x="373" y="143" type="line"/>
      <point x="392" y="28"/>
      <point x="457" y="-12"/>
      <point x="535" y="-12" type="curve" smooth="yes"/>
      <point x="646" y="-12"/>
      <point x="707" y="59"/>
      <point x="707" y="227" type="curve" smooth="yes"/>
      <point x="707" y="393"/>
      <point x="642" y="493"/>
    </contour>
    <contour>
      <point x="237" y="468" type="curve" smooth="yes"/>
      <point x="287" y="468"/>
      <point x="319" y="434"/>
      <point x="319" y="383" type="curve" smooth="yes"/>
      <point x="319" y="333"/>
      <point x="292" y="299"/>
      <point x="241" y="299" type="curve" smooth="yes"/>
      <point x="195" y="299"/>
      <point x="159" y="323"/>
      <point x="159" y="383" type="curve" smooth="yes"/>
      <point x="159" y="433"/>
      <point x="190" y="468"/>
    </contour>
  </outline>
</glyph>
<glyph name="latelu" format="2">
  <advance width="652"/>
  <unicode hex="0C32"/>
  <outline>
    <contour>
      <point x="327" y="-12" type="curve" smooth="yes"/>
      <point x="515" y="-12"/>
      <point x="610" y="95"/>
      <point x="610" y="253" type="curve" smooth="yes"/>
      <point x="610" y="360"/>
      <point x="559" y="457"/>
      <point x="432" y="496" type="curve"/>
      <point x="427" y="471" type="line"/>
      <point x="537" y="436"/>
      <point x="583" y="353"/>
      <point x="583" y="253" type="curve" smooth="yes"/>
      <point x="583" y="106"/>
      <point x="500" y="15"/>
      <point x="326" y="15" type="curve" smooth="yes"/>
      <point x="169" y="15"/>
      <point x="68" y="104"/>
      <point x="68" y="269" type="curve" smooth="yes"/>
      <point x="68" y="379"/>
      <point x="113" y="435"/>
      <point x="175" y="468" type="curve"/>
      <point x="169" y="468" type="line"/>
      <point x="132" y="441"/>
      <point x="122" y="415"/>
      <point x="122" y="381" type="curve" smooth="yes"/>
      <point x="122" y="309"/>
      <point x="168" y="274"/>
      <point x="228" y="274" type="curve" smooth="yes"/>
      <point x="290" y="274"/>
      <point x="334" y="316"/>
      <point x="334" y="383" type="curve" smooth="yes"/>
      <point x="334" y="452"/>
      <point x="287" y="493"/>
      <point x="219" y="493" type="curve" smooth="yes"/>
      <point x="134" y="493"/>
      <point x="42" y="420"/>
      <point x="42" y="270" type="curve" smooth="yes"/>
      <point x="42" y="93"/>
      <point x="149" y="-12"/>
    </contour>
    <contour>
      <point x="307" y="383" type="curve" smooth="yes"/>
      <point x="307" y="333"/>
      <point x="280" y="299"/>
      <point x="229" y="299" type="curve" smooth="yes"/>
      <point x="183" y="299"/>
      <point x="147" y="323"/>
      <point x="147" y="383" type="curve" smooth="yes"/>
      <point x="147" y="433"/>
      <point x="178" y="468"/>
      <point x="225" y="468" type="curve" smooth="yes"/>
      <point x="275" y="468"/>
      <point x="307" y="434"/>
    </contour>
  </outline>
</glyph>
<glyph name="lllatelu" format="2">
  <advance width="754"/>
  <unicode hex="0C34"/>
  <outline>
    <contour>
      <point x="237" y="468" type="curve" smooth="yes"/>
      <point x="287" y="468"/>
      <point x="319" y="434"/>
      <point x="319" y="383" type="curve" smooth="yes"/>
      <point x="319" y="333"/>
      <point x="292" y="299"/>
      <point x="241" y="299" type="curve" smooth="yes"/>
      <point x="195" y="299"/>
      <point x="159" y="323"/>
      <point x="159" y="383" type="curve" smooth="yes"/>
      <point x="159" y="433"/>
      <point x="190" y="468"/>
    </contour>
    <contour>
      <point x="373" y="143" type="line"/>
      <point x="392" y="28"/>
      <point x="457" y="-12"/>
      <point x="535" y="-12" type="curve" smooth="yes"/>
      <point x="647" y="-12"/>
      <point x="707" y="65"/>
      <point x="707" y="227" type="curve" smooth="yes"/>
      <point x="707" y="409"/>
      <point x="607" y="493"/>
      <point x="520" y="493" type="curve" smooth="yes"/>
      <point x="454" y="493"/>
      <point x="408" y="453"/>
      <point x="408" y="383" type="curve" smooth="yes"/>
      <point x="408" y="316"/>
      <point x="448" y="274"/>
      <point x="514" y="274" type="curve" smooth="yes"/>
      <point x="574" y="274"/>
      <point x="619" y="309"/>
      <point x="619" y="381" type="curve" smooth="yes"/>
      <point x="619" y="420"/>
      <point x="605" y="439"/>
      <point x="583" y="460" type="curve"/>
      <point x="568" y="466" type="line"/>
      <point x="649" y="425"/>
      <point x="681" y="326"/>
      <point x="681" y="227" type="curve" smooth="yes"/>
      <point x="681" y="108"/>
      <point x="647" y="15"/>
      <point x="536" y="15" type="curve" smooth="yes"/>
      <point x="440" y="15"/>
      <point x="402" y="81"/>
      <point x="389" y="172" type="curve"/>
      <point x="365" y="172" type="line"/>
      <point x="352" y="81"/>
      <point x="314" y="15"/>
      <point x="218" y="15" type="curve" smooth="yes"/>
      <point x="107" y="15"/>
      <point x="73" y="108"/>
      <point x="73" y="227" type="curve" smooth="yes"/>
      <point x="73" y="326"/>
      <point x="105" y="419"/>
      <point x="186" y="465" type="curve"/>
      <point x="171" y="461" type="line"/>
      <point x="149" y="440"/>
      <point x="135" y="420"/>
      <point x="135" y="381" type="curve" smooth="yes"/>
      <point x="135" y="309"/>
      <point x="180" y="274"/>
      <point x="240" y="274" type="curve" smooth="yes"/>
      <point x="306" y="274"/>
      <point x="346" y="316"/>
      <point x="346" y="383" type="curve" smooth="yes"/>
      <point x="346" y="453"/>
      <point x="300" y="493"/>
      <point x="238" y="493" type="curve" smooth="yes"/>
      <point x="149" y="493"/>
      <point x="47" y="405"/>
      <point x="47" y="227" type="curve" smooth="yes"/>
      <point x="47" y="65"/>
      <point x="107" y="-12"/>
      <point x="219" y="-12" type="curve" smooth="yes"/>
      <point x="297" y="-12"/>
      <point x="362" y="28"/>
      <point x="381" y="143" type="curve"/>
    </contour>
    <contour>
      <point x="515" y="468" type="curve" smooth="yes"/>
      <point x="562" y="468"/>
      <point x="593" y="433"/>
      <point x="593" y="383" type="curve" smooth="yes"/>
      <point x="593" y="323"/>
      <point x="557" y="299"/>
      <point x="511" y="299" type="curve" smooth="yes"/>
      <point x="460" y="299"/>
      <point x="433" y="333"/>
      <point x="433" y="383" type="curve" smooth="yes"/>
      <point x="433" y="434"/>
      <point x="465" y="468"/>
    </contour>
  </outline>
</glyph>
<glyph name="shatelu" format="2">
  <advance width="471"/>
  <unicode hex="0C36"/>
  <outline>
    <contour>
      <point x="307" y="-12" type="curve" smooth="yes"/>
      <point x="387" y="-12"/>
      <point x="434" y="40"/>
      <point x="434" y="123" type="curve" smooth="yes"/>
      <point x="434" y="272"/>
      <point x="322" y="361"/>
      <point x="183" y="361" type="curve" smooth="yes"/>
      <point x="73" y="361"/>
      <point x="33" y="299"/>
      <point x="33" y="231" type="curve" smooth="yes"/>
      <point x="33" y="201"/>
      <point x="45" y="163"/>
      <point x="53" y="140" type="curve"/>
      <point x="79" y="143" type="line"/>
      <point x="69" y="169"/>
      <point x="59" y="206"/>
      <point x="59" y="235" type="curve" smooth="yes"/>
      <point x="59" y="299"/>
      <point x="102" y="336"/>
      <point x="183" y="336" type="curve" smooth="yes"/>
      <point x="317" y="336"/>
      <point x="407" y="259"/>
      <point x="407" y="123" type="curve" smooth="yes"/>
      <point x="407" y="58"/>
      <point x="373" y="15"/>
      <point x="307" y="15" type="curve" smooth="yes"/>
      <point x="242" y="15"/>
      <point x="209" y="51"/>
      <point x="209" y="96" type="curve" smooth="yes"/>
      <point x="209" y="164"/>
      <point x="252" y="197"/>
      <point x="310" y="242" type="curve" smooth="yes"/>
      <point x="365" y="284"/>
      <point x="416" y="329"/>
      <point x="416" y="391" type="curve" smooth="yes"/>
      <point x="416" y="455"/>
      <point x="375" y="493"/>
      <point x="258" y="493" type="curve"/>
      <point x="228" y="470" type="line"/>
      <point x="256" y="470" type="line" smooth="yes"/>
      <point x="350" y="470"/>
      <point x="389" y="444"/>
      <point x="389" y="392" type="curve" smooth="yes"/>
      <point x="389" y="338"/>
      <point x="358" y="312"/>
      <point x="295" y="262" type="curve" smooth="yes"/>
      <point x="224" y="206"/>
      <point x="182" y="166"/>
      <point x="182" y="96" type="curve" smooth="yes"/>
      <point x="182" y="37"/>
      <point x="219" y="-12"/>
    </contour>
    <component base="hattelu" xOffset="108"/>
  </outline>
</glyph>
<glyph name="avagrahatelu" format="2">
  <advance width="538"/>
  <unicode hex="0C3D"/>
  <outline>
    <contour>
      <point x="72" y="113" type="curve" smooth="yes"/>
      <point x="72" y="167"/>
      <point x="105" y="200"/>
      <point x="183" y="236" type="curve" smooth="yes"/>
      <point x="261" y="272"/>
      <point x="305" y="304"/>
      <point x="305" y="378" type="curve" smooth="yes"/>
      <point x="305" y="433"/>
      <point x="273" y="493"/>
      <point x="178" y="493" type="curve" smooth="yes"/>
      <point x="83" y="493"/>
      <point x="40" y="435"/>
      <point x="40" y="373" type="curve" smooth="yes"/>
      <point x="40" y="340"/>
      <point x="46" y="317"/>
      <point x="52" y="298" type="curve"/>
      <point x="78" y="302" type="line"/>
      <point x="71" y="321"/>
      <point x="67" y="344"/>
      <point x="67" y="373" type="curve" smooth="yes"/>
      <point x="67" y="427"/>
      <point x="98" y="468"/>
      <point x="178" y="468" type="curve" smooth="yes"/>
      <point x="256" y="468"/>
      <point x="278" y="422"/>
      <point x="278" y="378" type="curve" smooth="yes"/>
      <point x="278" y="321"/>
      <point x="249" y="294"/>
      <point x="171" y="258" type="curve" smooth="yes"/>
      <point x="89" y="220"/>
      <point x="45" y="182"/>
      <point x="45" y="113" type="curve" smooth="yes"/>
      <point x="45" y="25"/>
      <point x="107" y="0"/>
      <point x="213" y="0" type="curve" smooth="yes"/>
      <point x="519" y="0" type="line"/>
      <point x="523" y="26" type="line"/>
      <point x="217" y="26" type="line" smooth="yes"/>
      <point x="131" y="26"/>
      <point x="72" y="40"/>
    </contour>
  </outline>
</glyph>
<glyph name="aavowelsigntelu" format="2">
  <advance width="201"/>
  <unicode hex="0C3E"/>
  <outline>
    <contour>
      <point x="41" y="493" type="curve" smooth="yes"/>
      <point x="-514" y="493" type="line"/>
      <point x="-519" y="469" type="line"/>
      <point x="29" y="469" type="line"/>
      <point x="19" y="473" type="line"/>
      <point x="-18" y="450"/>
      <point x="-33" y="420"/>
      <point x="-33" y="381" type="curve" smooth="yes"/>
      <point x="-33" y="309"/>
      <point x="13" y="274"/>
      <point x="74" y="274" type="curve" smooth="yes"/>
      <point x="136" y="274"/>
      <point x="180" y="316"/>
      <point x="180" y="382" type="curve" smooth="yes"/>
      <point x="180" y="413"/>
      <point x="170" y="440"/>
      <point x="154" y="457" type="curve" smooth="yes"/>
      <point x="128" y="484"/>
      <point x="101" y="493"/>
    </contour>
    <contour>
      <point x="153" y="383" type="curve" smooth="yes"/>
      <point x="153" y="333"/>
      <point x="126" y="299"/>
      <point x="75" y="299" type="curve" smooth="yes"/>
      <point x="29" y="299"/>
      <point x="-7" y="323"/>
      <point x="-7" y="383" type="curve" smooth="yes"/>
      <point x="-7" y="433"/>
      <point x="24" y="468"/>
      <point x="71" y="468" type="curve" smooth="yes"/>
      <point x="121" y="468"/>
      <point x="153" y="434"/>
    </contour>
  </outline>
</glyph>
<glyph name="ivowelsigntelu" format="2">
  <unicode hex="0C3F"/>
  <outline>
    <contour>
      <point x="-208" y="585" type="curve"/>
      <point x="-214" y="608" type="line"/>
      <point x="-237" y="599"/>
      <point x="-258" y="593"/>
      <point x="-296" y="593" type="curve" smooth="yes"/>
      <point x="-345" y="593"/>
      <point x="-373" y="612"/>
      <point x="-373" y="657" type="curve" smooth="yes"/>
      <point x="-373" y="696"/>
      <point x="-342" y="725"/>
      <point x="-291" y="725" type="curve" smooth="yes"/>
      <point x="-225" y="725"/>
      <point x="-174" y="679"/>
      <point x="-174" y="606" type="curve" smooth="yes"/>
      <point x="-174" y="530"/>
      <point x="-212" y="493"/>
      <point x="-294" y="493" type="curve" smooth="yes"/>
      <point x="-331" y="493"/>
      <point x="-370" y="506"/>
      <point x="-400" y="527" type="curve"/>
      <point x="-413" y="505" type="line"/>
      <point x="-369" y="479"/>
      <point x="-332" y="469"/>
      <point x="-294" y="469" type="curve" smooth="yes"/>
      <point x="-207" y="469"/>
      <point x="-148" y="508"/>
      <point x="-148" y="608" type="curve" smooth="yes"/>
      <point x="-148" y="689"/>
      <point x="-204" y="750"/>
      <point x="-291" y="750" type="curve" smooth="yes"/>
      <point x="-354" y="750"/>
      <point x="-400" y="712"/>
      <point x="-400" y="657" type="curve" smooth="yes"/>
      <point x="-400" y="600"/>
      <point x="-358" y="568"/>
      <point x="-296" y="568" type="curve" smooth="yes"/>
      <point x="-261" y="568"/>
      <point x="-232" y="574"/>
    </contour>
  </outline>
</glyph>
<glyph name="iivowelsigntelu" format="2">
  <unicode hex="0C40"/>
  <outline>
    <contour>
      <point x="-208" y="585" type="curve"/>
      <point x="-214" y="608" type="line"/>
      <point x="-237" y="599"/>
      <point x="-258" y="593"/>
      <point x="-296" y="593" type="curve" smooth="yes"/>
      <point x="-345" y="593"/>
      <point x="-373" y="612"/>
      <point x="-373" y="655" type="curve" smooth="yes"/>
      <point x="-373" y="692"/>
      <point x="-342" y="721"/>
      <point x="-291" y="721" type="curve" smooth="yes"/>
      <point x="-225" y="721"/>
      <point x="-174" y="679"/>
      <point x="-174" y="604" type="curve" smooth="yes"/>
      <point x="-174" y="530"/>
      <point x="-212" y="493"/>
      <point x="-294" y="493" type="curve" smooth="yes"/>
      <point x="-331" y="493"/>
      <point x="-370" y="506"/>
      <point x="-400" y="527" type="curve"/>
      <point x="-413" y="505" type="line"/>
      <point x="-369" y="479"/>
      <point x="-332" y="469"/>
      <point x="-294" y="469" type="curve" smooth="yes"/>
      <point x="-207" y="469"/>
      <point x="-148" y="508"/>
      <point x="-148" y="606" type="curve" smooth="yes"/>
      <point x="-148" y="689"/>
      <point x="-204" y="746"/>
      <point x="-291" y="746" type="curve" smooth="yes"/>
      <point x="-354" y="746"/>
      <point x="-400" y="708"/>
      <point x="-400" y="655" type="curve" smooth="yes"/>
      <point x="-400" y="600"/>
      <point x="-358" y="568"/>
      <point x="-296" y="568" type="curve" smooth="yes"/>
      <point x="-261" y="568"/>
      <point x="-232" y="574"/>
    </contour>
    <contour>
      <point x="-284" y="867" type="curve" smooth="yes"/>
      <point x="-353" y="867"/>
      <point x="-393" y="828"/>
      <point x="-393" y="776" type="curve" smooth="yes"/>
      <point x="-393" y="748"/>
      <point x="-378" y="719"/>
      <point x="-363" y="706" type="curve"/>
      <point x="-343" y="716" type="line"/>
      <point x="-358" y="731"/>
      <point x="-367" y="748"/>
      <point x="-367" y="773" type="curve" smooth="yes"/>
      <point x="-367" y="816"/>
      <point x="-337" y="842"/>
      <point x="-284" y="842" type="curve" smooth="yes"/>
      <point x="-228" y="842"/>
      <point x="-194" y="810"/>
      <point x="-188" y="751" type="curve"/>
      <point x="-162" y="752" type="line"/>
      <point x="-168" y="810"/>
      <point x="-202" y="867"/>
    </contour>
  </outline>
</glyph>
<glyph name="uvowelsigntelu" format="2">
  <advance width="319"/>
  <unicode hex="0C41"/>
  <outline>
    <contour>
      <point x="118" y="-12" type="curve" smooth="yes"/>
      <point x="201" y="-12"/>
      <point x="277" y="36"/>
      <point x="277" y="197" type="curve" smooth="yes"/>
      <point x="277" y="365"/>
      <point x="172" y="488"/>
      <point x="15" y="496" type="curve"/>
      <point x="15" y="471" type="line"/>
      <point x="157" y="463"/>
      <point x="250" y="352"/>
      <point x="250" y="197" type="curve" smooth="yes"/>
      <point x="250" y="51"/>
      <point x="187" y="15"/>
      <point x="118" y="15" type="curve" smooth="yes"/>
      <point x="41" y="15"/>
      <point x="-12" y="72"/>
      <point x="-50" y="161" type="curve"/>
      <point x="-65" y="151" type="line"/>
      <point x="-26" y="33"/>
      <point x="39" y="-12"/>
    </contour>
  </outline>
</glyph>
<glyph name="uuvowelsigntelu" format="2">
  <advance width="567"/>
  <unicode hex="0C42"/>
  <outline>
    <contour>
      <point x="118" y="-12" type="curve" smooth="yes"/>
      <point x="201" y="-12"/>
      <point x="277" y="36"/>
      <point x="277" y="196" type="curve" smooth="yes"/>
      <point x="277" y="348"/>
      <point x="190" y="451"/>
      <point x="76" y="479" type="curve"/>
      <point x="39" y="483" type="line"/>
      <point x="22" y="468" type="line"/>
      <point x="159" y="457"/>
      <point x="250" y="348"/>
      <point x="250" y="198" type="curve" smooth="yes"/>
      <point x="250" y="51"/>
      <point x="189" y="15"/>
      <point x="118" y="15" type="curve" smooth="yes"/>
      <point x="41" y="15"/>
      <point x="-12" y="72"/>
      <point x="-50" y="161" type="curve"/>
      <point x="-65" y="151" type="line"/>
      <point x="-26" y="33"/>
      <point x="39" y="-12"/>
    </contour>
    <contour>
      <point x="407" y="491" type="curve" smooth="yes"/>
      <point x="3" y="491" type="line"/>
      <point x="-1" y="467" type="line"/>
      <point x="65" y="467" type="line"/>
      <point x="60" y="473" type="line"/>
      <point x="100" y="470"/>
      <point x="142" y="467"/>
      <point x="204" y="467" type="curve" smooth="yes"/>
      <point x="395" y="467" type="line"/>
      <point x="385" y="471" type="line"/>
      <point x="348" y="448"/>
      <point x="333" y="418"/>
      <point x="333" y="379" type="curve" smooth="yes"/>
      <point x="333" y="307"/>
      <point x="379" y="272"/>
      <point x="440" y="272" type="curve" smooth="yes"/>
      <point x="502" y="272"/>
      <point x="546" y="314"/>
      <point x="546" y="380" type="curve" smooth="yes"/>
      <point x="546" y="411"/>
      <point x="536" y="438"/>
      <point x="520" y="455" type="curve" smooth="yes"/>
      <point x="494" y="482"/>
      <point x="467" y="491"/>
    </contour>
    <contour>
      <point x="519" y="381" type="curve" smooth="yes"/>
      <point x="519" y="331"/>
      <point x="492" y="297"/>
      <point x="441" y="297" type="curve" smooth="yes"/>
      <point x="395" y="297"/>
      <point x="359" y="321"/>
      <point x="359" y="381" type="curve" smooth="yes"/>
      <point x="359" y="431"/>
      <point x="392" y="466"/>
      <point x="437" y="466" type="curve" smooth="yes"/>
      <point x="487" y="466"/>
      <point x="519" y="432"/>
    </contour>
  </outline>
</glyph>
<glyph name="rvocalicvowelsigntelu" format="2">
  <advance width="353"/>
  <unicode hex="0C43"/>
  <outline>
    <contour>
      <point x="-16" y="494" type="curve"/>
      <point x="-29" y="472" type="line"/>
      <point x="166" y="379"/>
      <point x="311" y="199"/>
      <point x="311" y="-65" type="curve" smooth="yes"/>
      <point x="311" y="-250"/>
      <point x="240" y="-343"/>
      <point x="96" y="-343" type="curve" smooth="yes"/>
      <point x="-24" y="-343"/>
      <point x="-76" y="-280"/>
      <point x="-76" y="-191" type="curve" smooth="yes"/>
      <point x="-76" y="-121"/>
      <point x="-40" y="-76"/>
      <point x="10" y="-59" type="curve"/>
      <point x="3" y="-59" type="line"/>
      <point x="-27" y="-82"/>
      <point x="-42" y="-107"/>
      <point x="-42" y="-142" type="curve" smooth="yes"/>
      <point x="-42" y="-209"/>
      <point x="0" y="-246"/>
      <point x="59" y="-246" type="curve" smooth="yes"/>
      <point x="119" y="-246"/>
      <point x="160" y="-207"/>
      <point x="160" y="-140" type="curve" smooth="yes"/>
      <point x="160" y="-78"/>
      <point x="123" y="-35"/>
      <point x="54" y="-35" type="curve" smooth="yes"/>
      <point x="-34" y="-35"/>
      <point x="-99" y="-95"/>
      <point x="-99" y="-192" type="curve" smooth="yes"/>
      <point x="-99" y="-316"/>
      <point x="-14" y="-369"/>
      <point x="95" y="-369" type="curve" smooth="yes"/>
      <point x="257" y="-369"/>
      <point x="338" y="-266"/>
      <point x="338" y="-65" type="curve" smooth="yes"/>
      <point x="338" y="223"/>
      <point x="170" y="409"/>
    </contour>
    <contour>
      <point x="58" y="-59" type="curve" smooth="yes"/>
      <point x="103" y="-59"/>
      <point x="133" y="-90"/>
      <point x="133" y="-140" type="curve" smooth="yes"/>
      <point x="133" y="-189"/>
      <point x="106" y="-221"/>
      <point x="60" y="-221" type="curve" smooth="yes"/>
      <point x="19" y="-221"/>
      <point x="-17" y="-198"/>
      <point x="-17" y="-140" type="curve" smooth="yes"/>
      <point x="-17" y="-93"/>
      <point x="14" y="-59"/>
    </contour>
  </outline>
</glyph>
<glyph name="rrvocalicvowelsigntelu" format="2">
  <advance width="534"/>
  <unicode hex="0C44"/>
  <outline>
    <contour>
      <point x="-4" y="486" type="curve"/>
      <point x="-19" y="471" type="line"/>
      <point x="172" y="367"/>
      <point x="311" y="199"/>
      <point x="311" y="-64" type="curve" smooth="yes"/>
      <point x="311" y="-250"/>
      <point x="240" y="-343"/>
      <point x="96" y="-343" type="curve" smooth="yes"/>
      <point x="-24" y="-343"/>
      <point x="-76" y="-280"/>
      <point x="-76" y="-191" type="curve" smooth="yes"/>
      <point x="-76" y="-121"/>
      <point x="-40" y="-76"/>
      <point x="10" y="-59" type="curve"/>
      <point x="3" y="-59" type="line"/>
      <point x="-27" y="-82"/>
      <point x="-42" y="-107"/>
      <point x="-42" y="-142" type="curve" smooth="yes"/>
      <point x="-42" y="-209"/>
      <point x="0" y="-246"/>
      <point x="59" y="-246" type="curve" smooth="yes"/>
      <point x="119" y="-246"/>
      <point x="160" y="-207"/>
      <point x="160" y="-140" type="curve" smooth="yes"/>
      <point x="160" y="-78"/>
      <point x="123" y="-35"/>
      <point x="54" y="-35" type="curve" smooth="yes"/>
      <point x="-34" y="-35"/>
      <point x="-99" y="-95"/>
      <point x="-99" y="-192" type="curve" smooth="yes"/>
      <point x="-99" y="-316"/>
      <point x="-14" y="-369"/>
      <point x="95" y="-369" type="curve" smooth="yes"/>
      <point x="257" y="-369"/>
      <point x="338" y="-266"/>
      <point x="338" y="-64" type="curve" smooth="yes"/>
      <point x="338" y="210"/>
      <point x="188" y="387"/>
    </contour>
    <contour>
      <point x="58" y="-59" type="curve" smooth="yes"/>
      <point x="103" y="-59"/>
      <point x="133" y="-90"/>
      <point x="133" y="-140" type="curve" smooth="yes"/>
      <point x="133" y="-189"/>
      <point x="106" y="-221"/>
      <point x="60" y="-221" type="curve" smooth="yes"/>
      <point x="19" y="-221"/>
      <point x="-17" y="-198"/>
      <point x="-17" y="-140" type="curve" smooth="yes"/>
      <point x="-17" y="-93"/>
      <point x="14" y="-59"/>
    </contour>
    <contour>
      <point x="374" y="493" type="curve" smooth="yes"/>
      <point x="-6" y="493" type="line"/>
      <point x="-19" y="471" type="line"/>
      <point x="13" y="468" type="line"/>
      <point x="9" y="472" type="line"/>
      <point x="49" y="469"/>
      <point x="85" y="469"/>
      <point x="147" y="469" type="curve" smooth="yes"/>
      <point x="362" y="469" type="line"/>
      <point x="352" y="473" type="line"/>
      <point x="315" y="450"/>
      <point x="300" y="420"/>
      <point x="300" y="381" type="curve" smooth="yes"/>
      <point x="300" y="309"/>
      <point x="346" y="274"/>
      <point x="407" y="274" type="curve" smooth="yes"/>
      <point x="469" y="274"/>
      <point x="513" y="316"/>
      <point x="513" y="382" type="curve" smooth="yes"/>
      <point x="513" y="413"/>
      <point x="503" y="440"/>
      <point x="487" y="457" type="curve" smooth="yes"/>
      <point x="461" y="484"/>
      <point x="434" y="493"/>
    </contour>
    <contour>
      <point x="486" y="383" type="curve" smooth="yes"/>
      <point x="486" y="333"/>
      <point x="459" y="299"/>
      <point x="408" y="299" type="curve" smooth="yes"/>
      <point x="362" y="299"/>
      <point x="326" y="323"/>
      <point x="326" y="383" type="curve" smooth="yes"/>
      <point x="326" y="433"/>
      <point x="359" y="468"/>
      <point x="404" y="468" type="curve" smooth="yes"/>
      <point x="454" y="468"/>
      <point x="486" y="434"/>
    </contour>
  </outline>
</glyph>
<glyph name="evowelsigntelu" format="2">
  <unicode hex="0C46"/>
  <outline>
    <contour>
      <point x="-512" y="646" type="line"/>
      <point x="-215" y="646" type="line" smooth="yes"/>
      <point x="-131" y="646"/>
      <point x="-91" y="627"/>
      <point x="-91" y="568" type="curve" smooth="yes"/>
      <point x="-91" y="503"/>
      <point x="-144" y="493"/>
      <point x="-217" y="493" type="curve" smooth="yes"/>
      <point x="-277" y="493" type="line"/>
      <point x="-277" y="469" type="line"/>
      <point x="-222" y="469" type="line" smooth="yes"/>
      <point x="-131" y="469"/>
      <point x="-65" y="489"/>
      <point x="-65" y="568" type="curve" smooth="yes"/>
      <point x="-65" y="602"/>
      <point x="-76" y="624"/>
      <point x="-95" y="641" type="curve" smooth="yes"/>
      <point x="-120" y="663"/>
      <point x="-154" y="671"/>
      <point x="-214" y="671" type="curve" smooth="yes"/>
      <point x="-507" y="671" type="line"/>
    </contour>
  </outline>
</glyph>
<glyph name="eevowelsigntelu" format="2">
  <unicode hex="0C47"/>
  <outline>
    <contour>
      <point x="-512" y="646" type="line"/>
      <point x="-215" y="646" type="line" smooth="yes"/>
      <point x="-131" y="646"/>
      <point x="-91" y="627"/>
      <point x="-91" y="568" type="curve" smooth="yes"/>
      <point x="-91" y="503"/>
      <point x="-144" y="493"/>
      <point x="-217" y="493" type="curve" smooth="yes"/>
      <point x="-266" y="493" type="line"/>
      <point x="-266" y="469" type="line"/>
      <point x="-222" y="469" type="line" smooth="yes"/>
      <point x="-131" y="469"/>
      <point x="-65" y="489"/>
      <point x="-65" y="568" type="curve" smooth="yes"/>
      <point x="-65" y="602"/>
      <point x="-76" y="624"/>
      <point x="-95" y="641" type="curve" smooth="yes"/>
      <point x="-120" y="663"/>
      <point x="-154" y="671"/>
      <point x="-214" y="671" type="curve" smooth="yes"/>
      <point x="-507" y="671" type="line"/>
    </contour>
    <contour>
      <point x="-158" y="808" type="curve" smooth="yes"/>
      <point x="-223" y="808"/>
      <point x="-262" y="769"/>
      <point x="-262" y="720" type="curve" smooth="yes"/>
      <point x="-262" y="693"/>
      <point x="-247" y="664"/>
      <point x="-232" y="651" type="curve"/>
      <point x="-212" y="661" type="line"/>
      <point x="-227" y="676"/>
      <point x="-236" y="693"/>
      <point x="-236" y="717" type="curve" smooth="yes"/>
      <point x="-236" y="757"/>
      <point x="-205" y="783"/>
      <point x="-158" y="783" type="curve" smooth="yes"/>
      <point x="-101" y="783"/>
      <point x="-66" y="745"/>
      <point x="-66" y="673" type="curve"/>
      <point x="-40" y="673" type="line"/>
      <point x="-40" y="737"/>
      <point x="-69" y="808"/>
    </contour>
  </outline>
</glyph>
<glyph name="oovowelsigntelu" format="2">
  <advance width="142"/>
  <unicode hex="0C4B"/>
  <outline>
    <contour>
      <point x="63" y="474" type="curve" smooth="yes"/>
      <point x="123" y="474"/>
      <point x="167" y="514"/>
      <point x="167" y="581" type="curve" smooth="yes"/>
      <point x="167" y="609"/>
      <point x="157" y="636"/>
      <point x="141" y="653" type="curve" smooth="yes"/>
      <point x="116" y="679"/>
      <point x="86" y="689"/>
      <point x="28" y="689" type="curve" smooth="yes"/>
      <point x="-49" y="689" type="line" smooth="yes"/>
      <point x="-130" y="689"/>
      <point x="-176" y="654"/>
      <point x="-193" y="575" type="curve"/>
      <point x="-187" y="575" type="line"/>
      <point x="-204" y="661"/>
      <point x="-262" y="689"/>
      <point x="-318" y="689" type="curve" smooth="yes"/>
      <point x="-323" y="689" type="line" smooth="yes"/>
      <point x="-392" y="689"/>
      <point x="-444" y="647"/>
      <point x="-444" y="580" type="curve" smooth="yes"/>
      <point x="-444" y="497"/>
      <point x="-383" y="469"/>
      <point x="-308" y="469" type="curve" smooth="yes"/>
      <point x="-271" y="469" type="line"/>
      <point x="-271" y="493" type="line"/>
      <point x="-313" y="493" type="line" smooth="yes"/>
      <point x="-396" y="493"/>
      <point x="-417" y="533"/>
      <point x="-417" y="579" type="curve" smooth="yes"/>
      <point x="-417" y="623"/>
      <point x="-392" y="665"/>
      <point x="-323" y="665" type="curve" smooth="yes"/>
      <point x="-315" y="665" type="line" smooth="yes"/>
      <point x="-257" y="665"/>
      <point x="-211" y="624"/>
      <point x="-202" y="543" type="curve"/>
      <point x="-178" y="543" type="line"/>
      <point x="-165" y="621"/>
      <point x="-133" y="665"/>
      <point x="-50" y="665" type="curve" smooth="yes"/>
      <point x="20" y="665" type="line"/>
      <point x="10" y="669" type="line"/>
      <point x="-28" y="645"/>
      <point x="-42" y="616"/>
      <point x="-42" y="579" type="curve" smooth="yes"/>
      <point x="-42" y="508"/>
      <point x="4" y="474"/>
    </contour>
    <contour>
      <point x="64" y="499" type="curve" smooth="yes"/>
      <point x="20" y="499"/>
      <point x="-16" y="521"/>
      <point x="-16" y="581" type="curve" smooth="yes"/>
      <point x="-16" y="629"/>
      <point x="15" y="664"/>
      <point x="60" y="664" type="curve" smooth="yes"/>
      <point x="108" y="664"/>
      <point x="140" y="630"/>
      <point x="140" y="581" type="curve" smooth="yes"/>
      <point x="140" y="531"/>
      <point x="113" y="499"/>
    </contour>
    <contour>
      <point x="66" y="822" type="curve" smooth="yes"/>
      <point x="5" y="822"/>
      <point x="-34" y="783"/>
      <point x="-34" y="732" type="curve" smooth="yes"/>
      <point x="-34" y="703"/>
      <point x="-20" y="682"/>
      <point x="-4" y="667" type="curve"/>
      <point x="19" y="675" type="line"/>
      <point x="1" y="688"/>
      <point x="-8" y="706"/>
      <point x="-8" y="729" type="curve" smooth="yes"/>
      <point x="-8" y="771"/>
      <point x="19" y="797"/>
      <point x="66" y="797" type="curve" smooth="yes"/>
      <point x="127" y="797"/>
      <point x="162" y="759"/>
      <point x="162" y="687" type="curve"/>
      <point x="188" y="687" type="line"/>
      <point x="188" y="751"/>
      <point x="159" y="822"/>
    </contour>
  </outline>
</glyph>
<glyph name="auvowelsigntelu" format="2">
  <advance width="154"/>
  <unicode hex="0C4C"/>
  <outline>
    <contour>
      <point x="-381" y="646" type="line"/>
      <point x="-264" y="646" type="line" smooth="yes"/>
      <point x="-192" y="646"/>
      <point x="-153" y="627"/>
      <point x="-153" y="568" type="curve" smooth="yes"/>
      <point x="-153" y="503"/>
      <point x="-205" y="493"/>
      <point x="-278" y="493" type="curve" smooth="yes"/>
      <point x="-340" y="493" type="line"/>
      <point x="-340" y="469" type="line"/>
      <point x="-283" y="469" type="line" smooth="yes"/>
      <point x="-192" y="469"/>
      <point x="-126" y="489"/>
      <point x="-126" y="568" type="curve" smooth="yes"/>
      <point x="-126" y="642"/>
      <point x="-187" y="663"/>
      <point x="-264" y="663" type="curve" smooth="yes"/>
      <point x="-381" y="663" type="line"/>
    </contour>
    <contour>
      <point x="40" y="670" type="curve" smooth="yes"/>
      <point x="-436" y="670" type="line"/>
      <point x="-441" y="646" type="line"/>
      <point x="32" y="646" type="line"/>
      <point x="22" y="650" type="line"/>
      <point x="-16" y="626"/>
      <point x="-30" y="597"/>
      <point x="-30" y="560" type="curve" smooth="yes"/>
      <point x="-30" y="489"/>
      <point x="16" y="455"/>
      <point x="75" y="455" type="curve" smooth="yes"/>
      <point x="135" y="455"/>
      <point x="179" y="495"/>
      <point x="179" y="562" type="curve" smooth="yes"/>
      <point x="179" y="590"/>
      <point x="169" y="617"/>
      <point x="153" y="634" type="curve" smooth="yes"/>
      <point x="128" y="660"/>
      <point x="98" y="670"/>
    </contour>
    <contour>
      <point x="76" y="480" type="curve" smooth="yes"/>
      <point x="32" y="480"/>
      <point x="-4" y="502"/>
      <point x="-4" y="562" type="curve" smooth="yes"/>
      <point x="-4" y="610"/>
      <point x="27" y="645"/>
      <point x="72" y="645" type="curve" smooth="yes"/>
      <point x="120" y="645"/>
      <point x="152" y="611"/>
      <point x="152" y="562" type="curve" smooth="yes"/>
      <point x="152" y="512"/>
      <point x="125" y="480"/>
    </contour>
  </outline>
</glyph>
<glyph name="viramatelu" format="2">
  <unicode hex="0C4D"/>
  <outline>
    <contour>
      <point x="39" y="818" type="line"/>
      <point x="-217" y="818" type="line"/>
      <point x="-286" y="818"/>
      <point x="-324" y="810"/>
      <point x="-349" y="787" type="curve" smooth="yes"/>
      <point x="-366" y="771"/>
      <point x="-376" y="751"/>
      <point x="-376" y="722" type="curve" smooth="yes"/>
      <point x="-376" y="668"/>
      <point x="-337" y="642"/>
      <point x="-282" y="633" type="curve"/>
      <point x="-279" y="638" type="line"/>
      <point x="-341" y="632"/>
      <point x="-367" y="597"/>
      <point x="-367" y="556" type="curve" smooth="yes"/>
      <point x="-367" y="501"/>
      <point x="-327" y="469"/>
      <point x="-235" y="469" type="curve" smooth="yes"/>
      <point x="-203" y="469" type="line"/>
      <point x="-203" y="493" type="line"/>
      <point x="-235" y="493" type="line" smooth="yes"/>
      <point x="-295" y="493"/>
      <point x="-340" y="504"/>
      <point x="-340" y="556" type="curve" smooth="yes"/>
      <point x="-340" y="608"/>
      <point x="-295" y="625"/>
      <point x="-236" y="625" type="curve" smooth="yes"/>
      <point x="-125" y="625" type="line"/>
      <point x="-121" y="650" type="line"/>
      <point x="-227" y="650" type="line" smooth="yes"/>
      <point x="-307" y="650"/>
      <point x="-349" y="669"/>
      <point x="-349" y="721" type="curve" smooth="yes"/>
      <point x="-349" y="779"/>
      <point x="-302" y="793"/>
      <point x="-232" y="793" type="curve" smooth="yes"/>
      <point x="34" y="793" type="line"/>
    </contour>
  </outline>
</glyph>
<glyph name="lengthmarktelu" format="2">
  <unicode hex="0C55"/>
  <outline>
    <contour>
      <point x="-169" y="667" type="curve" smooth="yes"/>
      <point x="-239" y="667"/>
      <point x="-278" y="628"/>
      <point x="-278" y="576" type="curve" smooth="yes"/>
      <point x="-278" y="548"/>
      <point x="-263" y="519"/>
      <point x="-248" y="506" type="curve"/>
      <point x="-228" y="516" type="line"/>
      <point x="-243" y="531"/>
      <point x="-252" y="548"/>
      <point x="-252" y="573" type="curve" smooth="yes"/>
      <point x="-252" y="616"/>
      <point x="-222" y="642"/>
      <point x="-169" y="642" type="curve" smooth="yes"/>
      <point x="-108" y="642"/>
      <point x="-72" y="604"/>
      <point x="-72" y="532" type="curve"/>
      <point x="-46" y="532" type="line"/>
      <point x="-46" y="596"/>
      <point x="-76" y="667"/>
    </contour>
  </outline>
</glyph>
<glyph name="ailengthmarktelu" format="2">
  <unicode hex="0C56"/>
  <outline>
    <contour>
      <point x="-401" y="-293" type="curve" smooth="yes"/>
      <point x="-43" y="-293" type="line"/>
      <point x="-39" y="-269" type="line"/>
      <point x="-394" y="-269" type="line"/>
      <point x="-384" y="-273" type="line"/>
      <point x="-347" y="-251"/>
      <point x="-332" y="-220"/>
      <point x="-332" y="-184" type="curve" smooth="yes"/>
      <point x="-332" y="-115"/>
      <point x="-378" y="-80"/>
      <point x="-436" y="-80" type="curve" smooth="yes"/>
      <point x="-495" y="-80"/>
      <point x="-539" y="-122"/>
      <point x="-539" y="-185" type="curve" smooth="yes"/>
      <point x="-539" y="-213"/>
      <point x="-529" y="-239"/>
      <point x="-513" y="-257" type="curve" smooth="yes"/>
      <point x="-488" y="-285"/>
      <point x="-461" y="-293"/>
    </contour>
    <contour>
      <point x="-512" y="-186" type="curve" smooth="yes"/>
      <point x="-512" y="-139"/>
      <point x="-485" y="-105"/>
      <point x="-437" y="-105" type="curve" smooth="yes"/>
      <point x="-394" y="-105"/>
      <point x="-358" y="-129"/>
      <point x="-358" y="-186" type="curve" smooth="yes"/>
      <point x="-358" y="-233"/>
      <point x="-389" y="-268"/>
      <point x="-433" y="-268" type="curve" smooth="yes"/>
      <point x="-480" y="-268"/>
      <point x="-512" y="-234"/>
    </contour>
  </outline>
</glyph>
<glyph name="tsatelu" format="2">
  <advance width="680"/>
  <unicode hex="0C58"/>
  <outline>
    <contour>
      <point x="484" y="-12" type="curve" smooth="yes"/>
      <point x="572" y="-12"/>
      <point x="638" y="39"/>
      <point x="638" y="184" type="curve" smooth="yes"/>
      <point x="638" y="333"/>
      <point x="533" y="460"/>
      <point x="375" y="465" type="curve"/>
      <point x="354" y="444" type="line"/>
      <point x="527" y="434"/>
      <point x="611" y="321"/>
      <point x="611" y="184" type="curve" smooth="yes"/>
      <point x="611" y="51"/>
      <point x="554" y="15"/>
      <point x="484" y="15" type="curve" smooth="yes"/>
      <point x="408" y="15"/>
      <point x="360" y="62"/>
      <point x="348" y="172" type="curve"/>
      <point x="324" y="172" type="line"/>
      <point x="313" y="72"/>
      <point x="269" y="15"/>
      <point x="191" y="15" type="curve" smooth="yes"/>
      <point x="119" y="15"/>
      <point x="89" y="66"/>
      <point x="89" y="123" type="curve" smooth="yes"/>
      <point x="89" y="196"/>
      <point x="137" y="247"/>
      <point x="219" y="286" type="curve"/>
      <point x="219" y="308" type="line"/>
      <point x="25" y="319" type="line"/>
      <point x="25" y="291" type="line"/>
      <point x="194" y="286" type="line"/>
      <point x="186" y="290" type="line"/>
      <point x="109" y="253"/>
      <point x="62" y="199"/>
      <point x="62" y="122" type="curve" smooth="yes"/>
      <point x="62" y="49"/>
      <point x="104" y="-12"/>
      <point x="192" y="-12" type="curve" smooth="yes"/>
      <point x="265" y="-12"/>
      <point x="323" y="27"/>
      <point x="340" y="143" type="curve"/>
      <point x="331" y="143" type="line"/>
      <point x="346" y="34"/>
      <point x="401" y="-12"/>
    </contour>
    <contour>
      <point x="271" y="601" type="curve"/>
      <point x="241" y="598" type="line"/>
      <point x="270" y="538"/>
      <point x="300" y="486"/>
      <point x="336" y="444" type="curve"/>
      <point x="357" y="444" type="line"/>
      <point x="414" y="483"/>
      <point x="493" y="552"/>
      <point x="628" y="688" type="curve"/>
      <point x="609" y="707" type="line"/>
      <point x="539" y="633"/>
      <point x="423" y="523"/>
      <point x="349" y="466" type="curve"/>
      <point x="315" y="510"/>
      <point x="290" y="557"/>
    </contour>
    <contour>
      <point x="401" y="656" type="line" smooth="yes"/>
      <point x="461" y="656"/>
      <point x="488" y="664"/>
      <point x="513" y="692" type="curve" smooth="yes"/>
      <point x="529" y="710"/>
      <point x="539" y="736"/>
      <point x="539" y="764" type="curve" smooth="yes"/>
      <point x="539" y="827"/>
      <point x="495" y="869"/>
      <point x="436" y="869" type="curve" smooth="yes"/>
      <point x="378" y="869"/>
      <point x="332" y="834"/>
      <point x="332" y="765" type="curve" smooth="yes"/>
      <point x="332" y="729"/>
      <point x="347" y="698"/>
      <point x="384" y="676" type="curve"/>
      <point x="394" y="680" type="line"/>
      <point x="73" y="680" type="line"/>
      <point x="69" y="656" type="line"/>
    </contour>
    <contour>
      <point x="512" y="763" type="curve" smooth="yes"/>
      <point x="512" y="715"/>
      <point x="480" y="681"/>
      <point x="433" y="681" type="curve" smooth="yes"/>
      <point x="389" y="681"/>
      <point x="358" y="716"/>
      <point x="358" y="763" type="curve" smooth="yes"/>
      <point x="358" y="820"/>
      <point x="394" y="844"/>
      <point x="437" y="844" type="curve" smooth="yes"/>
      <point x="485" y="844"/>
      <point x="512" y="810"/>
    </contour>
  </outline>
</glyph>
<glyph name="rrratelu" format="2">
  <advance width="640"/>
  <unicode hex="0C5A"/>
  <outline>
    <contour>
      <point x="459" y="-12" type="curve" smooth="yes"/>
      <point x="542" y="-12"/>
      <point x="598" y="50"/>
      <point x="598" y="198" type="curve" smooth="yes"/>
      <point x="598" y="363"/>
      <point x="501" y="493"/>
      <point x="324" y="493" type="curve" smooth="yes"/>
      <point x="153" y="493"/>
      <point x="42" y="372"/>
      <point x="42" y="192" type="curve" smooth="yes"/>
      <point x="42" y="50"/>
      <point x="97" y="-12"/>
      <point x="180" y="-12" type="curve" smooth="yes"/>
      <point x="239" y="-12"/>
      <point x="306" y="18"/>
      <point x="323" y="143" type="curve"/>
      <point x="314" y="143" type="line"/>
      <point x="329" y="34"/>
      <point x="383" y="-12"/>
    </contour>
    <contour>
      <point x="458" y="15" type="curve" smooth="yes"/>
      <point x="390" y="15"/>
      <point x="343" y="62"/>
      <point x="331" y="172" type="curve"/>
      <point x="307" y="172" type="line"/>
      <point x="296" y="73"/>
      <point x="256" y="15"/>
      <point x="181" y="15" type="curve" smooth="yes"/>
      <point x="107" y="15"/>
      <point x="69" y="70"/>
      <point x="69" y="193" type="curve" smooth="yes"/>
      <point x="69" y="359"/>
      <point x="169" y="468"/>
      <point x="325" y="468" type="curve" smooth="yes"/>
      <point x="485" y="468"/>
      <point x="571" y="350"/>
      <point x="571" y="197" type="curve" smooth="yes"/>
      <point x="571" y="70"/>
      <point x="533" y="15"/>
    </contour>
    <contour>
      <point x="63" y="256" type="line"/>
      <point x="572" y="256" type="line"/>
      <point x="572" y="280" type="line"/>
      <point x="62" y="280" type="line"/>
    </contour>
  </outline>
</glyph>
<glyph name="llvocalictelu" format="2">
  <advance width="1050"/>
  <unicode hex="0C61"/>
  <outline>
    <contour>
      <point x="503" y="-61" type="curve" smooth="yes"/>
      <point x="663" y="-61"/>
      <point x="744" y="70"/>
      <point x="744" y="224" type="curve" smooth="yes"/>
      <point x="744" y="346"/>
      <point x="699" y="421"/>
      <point x="609" y="485" type="curve"/>
      <point x="589" y="472" type="line"/>
      <point x="677" y="407"/>
      <point x="717" y="338"/>
      <point x="717" y="224" type="curve" smooth="yes"/>
      <point x="717" y="94"/>
      <point x="654" y="-34"/>
      <point x="503" y="-34" type="curve" smooth="yes"/>
      <point x="412" y="-34"/>
      <point x="379" y="21"/>
      <point x="379" y="81" type="curve" smooth="yes"/>
      <point x="379" y="133"/>
      <point x="400" y="165"/>
      <point x="453" y="233" type="curve" smooth="yes"/>
      <point x="494" y="286"/>
      <point x="518" y="329"/>
      <point x="518" y="379" type="curve" smooth="yes"/>
      <point x="518" y="440"/>
      <point x="486" y="493"/>
      <point x="407" y="493" type="curve" smooth="yes"/>
      <point x="332" y="493"/>
      <point x="284" y="433"/>
      <point x="267" y="341" type="curve"/>
      <point x="276" y="343" type="line"/>
      <point x="264" y="444"/>
      <point x="215" y="493"/>
      <point x="145" y="493" type="curve" smooth="yes"/>
      <point x="83" y="493"/>
      <point x="36" y="451"/>
      <point x="36" y="381" type="curve" smooth="yes"/>
      <point x="36" y="344"/>
      <point x="45" y="312"/>
      <point x="62" y="280" type="curve"/>
      <point x="87" y="288" type="line"/>
      <point x="70" y="317"/>
      <point x="63" y="349"/>
      <point x="63" y="382" type="curve" smooth="yes"/>
      <point x="63" y="435"/>
      <point x="94" y="468"/>
      <point x="145" y="468" type="curve" smooth="yes"/>
      <point x="204" y="468"/>
      <point x="249" y="420"/>
      <point x="259" y="315" type="curve"/>
      <point x="283" y="315" type="line"/>
      <point x="298" y="401"/>
      <point x="337" y="468"/>
      <point x="407" y="468" type="curve" smooth="yes"/>
      <point x="471" y="468"/>
      <point x="491" y="426"/>
      <point x="491" y="378" type="curve" smooth="yes"/>
      <point x="491" y="337"/>
      <point x="471" y="298"/>
      <point x="432" y="249" type="curve" smooth="yes"/>
      <point x="374" y="176"/>
      <point x="352" y="132"/>
      <point x="352" y="77" type="curve" smooth="yes"/>
      <point x="352" y="3"/>
      <point x="401" y="-61"/>
    </contour>
    <contour>
      <point x="890" y="493" type="curve" smooth="yes"/>
      <point x="595" y="493" type="line"/>
      <point x="589" y="472" type="line"/>
      <point x="601" y="478" type="line"/>
      <point x="618" y="473" type="line"/>
      <point x="657" y="470"/>
      <point x="684" y="469"/>
      <point x="727" y="469" type="curve" smooth="yes"/>
      <point x="878" y="469" type="line"/>
      <point x="868" y="473" type="line"/>
      <point x="831" y="450"/>
      <point x="816" y="420"/>
      <point x="816" y="381" type="curve" smooth="yes"/>
      <point x="816" y="309"/>
      <point x="862" y="274"/>
      <point x="923" y="274" type="curve" smooth="yes"/>
      <point x="985" y="274"/>
      <point x="1029" y="316"/>
      <point x="1029" y="382" type="curve" smooth="yes"/>
      <point x="1029" y="413"/>
      <point x="1019" y="440"/>
      <point x="1003" y="457" type="curve" smooth="yes"/>
      <point x="977" y="484"/>
      <point x="950" y="493"/>
    </contour>
    <contour>
      <point x="1002" y="383" type="curve" smooth="yes"/>
      <point x="1002" y="333"/>
      <point x="975" y="299"/>
      <point x="924" y="299" type="curve" smooth="yes"/>
      <point x="878" y="299"/>
      <point x="842" y="323"/>
      <point x="842" y="383" type="curve" smooth="yes"/>
      <point x="842" y="433"/>
      <point x="875" y="468"/>
      <point x="920" y="468" type="curve" smooth="yes"/>
      <point x="970" y="468"/>
      <point x="1002" y="434"/>
    </contour>
  </outline>
</glyph>
<glyph name="lvocalicvowelsigntelu" format="2">
  <unicode hex="0C62"/>
  <outline>
    <contour>
      <point x="-172" y="-422" type="curve" smooth="yes"/>
      <point x="-60" y="-422"/>
      <point x="0" y="-338"/>
      <point x="0" y="-235" type="curve" smooth="yes"/>
      <point x="0" y="-161"/>
      <point x="-34" y="-109"/>
      <point x="-99" y="-67" type="curve"/>
      <point x="-116" y="-88" type="line"/>
      <point x="-53" y="-128"/>
      <point x="-26" y="-172"/>
      <point x="-26" y="-235" type="curve" smooth="yes"/>
      <point x="-26" y="-316"/>
      <point x="-67" y="-396"/>
      <point x="-172" y="-396" type="curve" smooth="yes"/>
      <point x="-230" y="-396"/>
      <point x="-253" y="-366"/>
      <point x="-253" y="-329" type="curve" smooth="yes"/>
      <point x="-253" y="-302"/>
      <point x="-247" y="-281"/>
      <point x="-205" y="-233" type="curve" smooth="yes"/>
      <point x="-181" y="-205"/>
      <point x="-161" y="-175"/>
      <point x="-161" y="-139" type="curve" smooth="yes"/>
      <point x="-161" y="-100"/>
      <point x="-185" y="-67"/>
      <point x="-240" y="-67" type="curve" smooth="yes"/>
      <point x="-295" y="-67"/>
      <point x="-327" y="-113"/>
      <point x="-340" y="-167" type="curve"/>
      <point x="-333" y="-166" type="line"/>
      <point x="-343" y="-104"/>
      <point x="-373" y="-67"/>
      <point x="-427" y="-67" type="curve" smooth="yes"/>
      <point x="-471" y="-67"/>
      <point x="-503" y="-94"/>
      <point x="-503" y="-142" type="curve" smooth="yes"/>
      <point x="-503" y="-168"/>
      <point x="-494" y="-192"/>
      <point x="-483" y="-212" type="curve"/>
      <point x="-459" y="-205" type="line"/>
      <point x="-471" y="-183"/>
      <point x="-478" y="-163"/>
      <point x="-478" y="-140" type="curve" smooth="yes"/>
      <point x="-478" y="-116"/>
      <point x="-463" y="-91"/>
      <point x="-427" y="-91" type="curve" smooth="yes"/>
      <point x="-385" y="-91"/>
      <point x="-358" y="-126"/>
      <point x="-349" y="-186" type="curve"/>
      <point x="-326" y="-186" type="line"/>
      <point x="-311" y="-136"/>
      <point x="-285" y="-91"/>
      <point x="-239" y="-91" type="curve" smooth="yes"/>
      <point x="-198" y="-91"/>
      <point x="-187" y="-118"/>
      <point x="-187" y="-139" type="curve" smooth="yes"/>
      <point x="-187" y="-165"/>
      <point x="-201" y="-191"/>
      <point x="-224" y="-218" type="curve" smooth="yes"/>
      <point x="-266" y="-266"/>
      <point x="-279" y="-293"/>
      <point x="-279" y="-330" type="curve" smooth="yes"/>
      <point x="-279" y="-383"/>
      <point x="-244" y="-422"/>
    </contour>
  </outline>
</glyph>
<glyph name="zerotelu" format="2">
  <advance width="540"/>
  <unicode hex="0C66"/>
  <outline>
    <contour>
      <point x="42" y="240" type="curve" smooth="yes"/>
      <point x="42" y="80"/>
      <point x="127" y="-12"/>
      <point x="268" y="-12" type="curve" smooth="yes"/>
      <point x="413" y="-12"/>
      <point x="498" y="84"/>
      <point x="498" y="238" type="curve" smooth="yes"/>
      <point x="498" y="410"/>
      <point x="394" y="493"/>
      <point x="270" y="493" type="curve" smooth="yes"/>
      <point x="148" y="493"/>
      <point x="42" y="406"/>
    </contour>
    <contour>
      <point x="69" y="239" type="curve" smooth="yes"/>
      <point x="69" y="360"/>
      <point x="133" y="468"/>
      <point x="270" y="468" type="curve" smooth="yes"/>
      <point x="395" y="468"/>
      <point x="471" y="378"/>
      <point x="471" y="238" type="curve" smooth="yes"/>
      <point x="471" y="108"/>
      <point x="406" y="15"/>
      <point x="269" y="15" type="curve" smooth="yes"/>
      <point x="135" y="15"/>
      <point x="69" y="100"/>
    </contour>
  </outline>
</glyph>
<glyph name="onetelu" format="2">
  <advance width="521"/>
  <unicode hex="0C67"/>
  <outline>
    <contour>
      <point x="383" y="0" type="curve"/>
      <point x="410" y="-4" type="line"/>
      <point x="449" y="85"/>
      <point x="475" y="157"/>
      <point x="475" y="249" type="curve" smooth="yes"/>
      <point x="475" y="385"/>
      <point x="399" y="493"/>
      <point x="263" y="493" type="curve" smooth="yes"/>
      <point x="124" y="493"/>
      <point x="46" y="385"/>
      <point x="46" y="250" type="curve" smooth="yes"/>
      <point x="46" y="157"/>
      <point x="72" y="85"/>
      <point x="111" y="-4" type="curve"/>
      <point x="138" y="0" type="line"/>
      <point x="101" y="80"/>
      <point x="73" y="158"/>
      <point x="73" y="251" type="curve" smooth="yes"/>
      <point x="73" y="366"/>
      <point x="134" y="468"/>
      <point x="262" y="468" type="curve" smooth="yes"/>
      <point x="389" y="468"/>
      <point x="448" y="366"/>
      <point x="448" y="250" type="curve" smooth="yes"/>
      <point x="448" y="158"/>
      <point x="420" y="80"/>
    </contour>
  </outline>
</glyph>
<glyph name="twotelu" format="2">
  <advance width="625"/>
  <unicode hex="0C68"/>
  <outline>
    <contour>
      <point x="579" y="249" type="curve" smooth="yes"/>
      <point x="579" y="413"/>
      <point x="478" y="493"/>
      <point x="382" y="493" type="curve" smooth="yes"/>
      <point x="308" y="493"/>
      <point x="262" y="453"/>
      <point x="262" y="383" type="curve" smooth="yes"/>
      <point x="262" y="316"/>
      <point x="302" y="274"/>
      <point x="368" y="274" type="curve" smooth="yes"/>
      <point x="428" y="274"/>
      <point x="473" y="309"/>
      <point x="473" y="381" type="curve" smooth="yes"/>
      <point x="473" y="420"/>
      <point x="455" y="448"/>
      <point x="430" y="467" type="curve"/>
      <point x="422" y="468" type="line"/>
      <point x="502" y="439"/>
      <point x="553" y="369"/>
      <point x="553" y="249" type="curve" smooth="yes"/>
      <point x="553" y="188"/>
      <point x="543" y="130"/>
      <point x="503" y="89" type="curve" smooth="yes"/>
      <point x="465" y="50"/>
      <point x="410" y="26"/>
      <point x="283" y="26" type="curve" smooth="yes"/>
      <point x="18" y="26" type="line"/>
      <point x="13" y="0" type="line"/>
      <point x="293" y="0" type="line" smooth="yes"/>
      <point x="414" y="0"/>
      <point x="482" y="27"/>
      <point x="525" y="75" type="curve" smooth="yes"/>
      <point x="564" y="118"/>
      <point x="579" y="177"/>
    </contour>
    <contour>
      <point x="369" y="468" type="curve" smooth="yes"/>
      <point x="416" y="468"/>
      <point x="447" y="433"/>
      <point x="447" y="383" type="curve" smooth="yes"/>
      <point x="447" y="323"/>
      <point x="411" y="299"/>
      <point x="365" y="299" type="curve" smooth="yes"/>
      <point x="314" y="299"/>
      <point x="287" y="333"/>
      <point x="287" y="383" type="curve" smooth="yes"/>
      <point x="287" y="434"/>
      <point x="319" y="468"/>
    </contour>
  </outline>
</glyph>
<glyph name="threetelu" format="2">
  <advance width="459"/>
  <unicode hex="0C69"/>
  <outline>
    <contour>
      <point x="254" y="-12" type="curve" smooth="yes"/>
      <point x="362" y="-12"/>
      <point x="422" y="33"/>
      <point x="422" y="122" type="curve" smooth="yes"/>
      <point x="422" y="197"/>
      <point x="371" y="244"/>
      <point x="276" y="246" type="curve"/>
      <point x="269" y="239" type="line"/>
      <point x="370" y="244"/>
      <point x="417" y="288"/>
      <point x="417" y="363" type="curve" smooth="yes"/>
      <point x="417" y="445"/>
      <point x="357" y="493"/>
      <point x="254" y="493" type="curve" smooth="yes"/>
      <point x="158" y="493"/>
      <point x="89" y="460"/>
      <point x="20" y="415" type="curve"/>
      <point x="34" y="391" type="line"/>
      <point x="107" y="438"/>
      <point x="167" y="467"/>
      <point x="254" y="467" type="curve" smooth="yes"/>
      <point x="347" y="467"/>
      <point x="390" y="428"/>
      <point x="390" y="363" type="curve" smooth="yes"/>
      <point x="390" y="291"/>
      <point x="335" y="256"/>
      <point x="239" y="256" type="curve" smooth="yes"/>
      <point x="149" y="256" type="line"/>
      <point x="145" y="231" type="line"/>
      <point x="239" y="231" type="line" smooth="yes"/>
      <point x="335" y="231"/>
      <point x="395" y="197"/>
      <point x="395" y="122" type="curve" smooth="yes"/>
      <point x="395" y="54"/>
      <point x="354" y="15"/>
      <point x="255" y="15" type="curve" smooth="yes"/>
      <point x="170" y="15"/>
      <point x="106" y="40"/>
      <point x="27" y="93" type="curve"/>
      <point x="14" y="68" type="line"/>
      <point x="87" y="19"/>
      <point x="156" y="-12"/>
    </contour>
  </outline>
</glyph>
<glyph name="fourtelu" format="2">
  <advance width="578"/>
  <unicode hex="0C6A"/>
  <outline>
    <contour>
      <point x="289" y="-12" type="curve" smooth="yes"/>
      <point x="353" y="-12"/>
      <point x="421" y="11"/>
      <point x="421" y="91" type="curve" smooth="yes"/>
      <point x="421" y="149"/>
      <point x="377" y="180"/>
      <point x="304" y="189" type="curve"/>
      <point x="296" y="191" type="line"/>
      <point x="155" y="206"/>
      <point x="65" y="243"/>
      <point x="65" y="336" type="curve" smooth="yes"/>
      <point x="65" y="402"/>
      <point x="112" y="443"/>
      <point x="200" y="473" type="curve"/>
      <point x="189" y="495" type="line"/>
      <point x="87" y="460"/>
      <point x="38" y="408"/>
      <point x="38" y="336" type="curve" smooth="yes"/>
      <point x="38" y="244"/>
      <point x="112" y="188"/>
      <point x="264" y="174" type="curve"/>
      <point x="282" y="172" type="line"/>
      <point x="359" y="169"/>
      <point x="394" y="137"/>
      <point x="394" y="91" type="curve" smooth="yes"/>
      <point x="394" y="37"/>
      <point x="357" y="15"/>
      <point x="288" y="15" type="curve" smooth="yes"/>
      <point x="218" y="15"/>
      <point x="183" y="43"/>
      <point x="183" y="91" type="curve" smooth="yes"/>
      <point x="183" y="137"/>
      <point x="217" y="169"/>
      <point x="296" y="172" type="curve"/>
      <point x="313" y="173" type="line"/>
      <point x="466" y="188"/>
      <point x="540" y="245"/>
      <point x="540" y="336" type="curve" smooth="yes"/>
      <point x="540" y="408"/>
      <point x="491" y="460"/>
      <point x="389" y="495" type="curve"/>
      <point x="378" y="473" type="line"/>
      <point x="466" y="443"/>
      <point x="513" y="402"/>
      <point x="513" y="336" type="curve" smooth="yes"/>
      <point x="513" y="243"/>
      <point x="423" y="206"/>
      <point x="281" y="191" type="curve"/>
      <point x="276" y="191"/>
      <point x="275" y="189"/>
      <point x="271" y="188" type="curve"/>
      <point x="199" y="180"/>
      <point x="156" y="149"/>
      <point x="156" y="91" type="curve" smooth="yes"/>
      <point x="156" y="5"/>
      <point x="237" y="-12"/>
    </contour>
  </outline>
</glyph>
<glyph name="fivetelu" format="2">
  <advance width="635"/>
  <unicode hex="0C6B"/>
  <outline>
    <contour>
      <point x="185" y="-12" type="curve" smooth="yes"/>
      <point x="297" y="-12"/>
      <point x="368" y="64"/>
      <point x="368" y="251" type="curve" smooth="yes"/>
      <point x="368" y="384"/>
      <point x="328" y="492"/>
      <point x="204" y="492" type="curve" smooth="yes"/>
      <point x="126" y="492"/>
      <point x="72" y="452"/>
      <point x="33" y="371" type="curve"/>
      <point x="58" y="366" type="line"/>
      <point x="89" y="424"/>
      <point x="126" y="467"/>
      <point x="204" y="467" type="curve" smooth="yes"/>
      <point x="310" y="467"/>
      <point x="342" y="369"/>
      <point x="342" y="251" type="curve" smooth="yes"/>
      <point x="342" y="81"/>
      <point x="281" y="15"/>
      <point x="185" y="15" type="curve" smooth="yes"/>
      <point x="99" y="15"/>
      <point x="57" y="73"/>
      <point x="43" y="148" type="curve"/>
      <point x="18" y="143" type="line"/>
      <point x="36" y="52"/>
      <point x="88" y="-12"/>
    </contour>
    <contour>
      <point x="511" y="-13" type="curve" smooth="yes"/>
      <point x="576" y="-13"/>
      <point x="601" y="31"/>
      <point x="601" y="86" type="curve" smooth="yes"/>
      <point x="601" y="150"/>
      <point x="568" y="202"/>
      <point x="509" y="271" type="curve"/>
      <point x="472" y="314"/>
      <point x="449" y="351"/>
      <point x="449" y="399" type="curve" smooth="yes"/>
      <point x="449" y="446"/>
      <point x="476" y="472"/>
      <point x="514" y="472" type="curve" smooth="yes"/>
      <point x="551" y="472"/>
      <point x="574" y="447"/>
      <point x="574" y="399" type="curve" smooth="yes"/>
      <point x="574" y="354"/>
      <point x="552" y="316"/>
      <point x="494" y="268" type="curve"/>
      <point x="412" y="202"/>
      <point x="376" y="166"/>
      <point x="322" y="85" type="curve"/>
      <point x="323" y="58" type="line"/>
      <point x="382" y="139"/>
      <point x="430" y="190"/>
      <point x="512" y="252" type="curve"/>
      <point x="579" y="310"/>
      <point x="601" y="346"/>
      <point x="601" y="405" type="curve" smooth="yes"/>
      <point x="601" y="450"/>
      <point x="577" y="496"/>
      <point x="515" y="496" type="curve" smooth="yes"/>
      <point x="455" y="496"/>
      <point x="422" y="453"/>
      <point x="422" y="399" type="curve" smooth="yes"/>
      <point x="422" y="354"/>
      <point x="440" y="318"/>
      <point x="491" y="256" type="curve"/>
      <point x="555" y="177"/>
      <point x="574" y="132"/>
      <point x="574" y="87" type="curve" smooth="yes"/>
      <point x="574" y="38"/>
      <point x="552" y="13"/>
      <point x="511" y="13" type="curve" smooth="yes"/>
      <point x="459" y="13"/>
      <point x="440" y="44"/>
      <point x="425" y="94" type="curve"/>
      <point x="400" y="89" type="line"/>
      <point x="416" y="28"/>
      <point x="447" y="-13"/>
    </contour>
  </outline>
</glyph>
<glyph name="sixtelu" format="2">
  <advance width="519"/>
  <unicode hex="0C6C"/>
  <outline>
    <contour>
      <point x="47" y="365" type="curve" smooth="yes"/>
      <point x="47" y="289"/>
      <point x="101" y="249"/>
      <point x="188" y="241" type="curve"/>
      <point x="178" y="251" type="line"/>
      <point x="89" y="243"/>
      <point x="37" y="199"/>
      <point x="37" y="129" type="curve" smooth="yes"/>
      <point x="37" y="83"/>
      <point x="57" y="51"/>
      <point x="86" y="32" type="curve" smooth="yes"/>
      <point x="123" y="8"/>
      <point x="168" y="0"/>
      <point x="258" y="0" type="curve" smooth="yes"/>
      <point x="501" y="0" type="line"/>
      <point x="506" y="25" type="line"/>
      <point x="264" y="25" type="line" smooth="yes"/>
      <point x="181" y="25"/>
      <point x="139" y="31"/>
      <point x="111" y="47" type="curve" smooth="yes"/>
      <point x="83" y="63"/>
      <point x="64" y="86"/>
      <point x="64" y="129" type="curve" smooth="yes"/>
      <point x="64" y="203"/>
      <point x="126" y="232"/>
      <point x="221" y="232" type="curve" smooth="yes"/>
      <point x="346" y="232" type="line"/>
      <point x="351" y="257" type="line"/>
      <point x="232" y="257" type="line" smooth="yes"/>
      <point x="139" y="257"/>
      <point x="74" y="288"/>
      <point x="74" y="365" type="curve" smooth="yes"/>
      <point x="74" y="443"/>
      <point x="133" y="465"/>
      <point x="215" y="465" type="curve" smooth="yes"/>
      <point x="254" y="465" type="line"/>
      <point x="259" y="490" type="line"/>
      <point x="213" y="490" type="line" smooth="yes"/>
      <point x="107" y="490"/>
      <point x="47" y="452"/>
    </contour>
  </outline>
</glyph>
<glyph name="seventelu" format="2">
  <advance width="453"/>
  <unicode hex="0C6D"/>
  <outline>
    <contour>
      <point x="417" y="148" type="line"/>
      <point x="401" y="77"/>
      <point x="341" y="15"/>
      <point x="224" y="15" type="curve" smooth="yes"/>
      <point x="109" y="15"/>
      <point x="62" y="64"/>
      <point x="62" y="129" type="curve" smooth="yes"/>
      <point x="62" y="187"/>
      <point x="88" y="228"/>
      <point x="210" y="239" type="curve" smooth="yes"/>
      <point x="233" y="241" type="line" smooth="yes"/>
      <point x="341" y="250"/>
      <point x="410" y="278"/>
      <point x="410" y="368" type="curve" smooth="yes"/>
      <point x="410" y="433"/>
      <point x="352" y="493"/>
      <point x="236" y="493" type="curve" smooth="yes"/>
      <point x="161" y="493"/>
      <point x="96" y="468"/>
      <point x="42" y="419" type="curve"/>
      <point x="58" y="400" type="line"/>
      <point x="108" y="448"/>
      <point x="170" y="468"/>
      <point x="236" y="468" type="curve" smooth="yes"/>
      <point x="338" y="468"/>
      <point x="383" y="422"/>
      <point x="383" y="367" type="curve" smooth="yes"/>
      <point x="383" y="299"/>
      <point x="336" y="276"/>
      <point x="233" y="267" type="curve" smooth="yes"/>
      <point x="210" y="265" type="line" smooth="yes"/>
      <point x="98" y="255"/>
      <point x="35" y="219"/>
      <point x="35" y="130" type="curve" smooth="yes"/>
      <point x="35" y="42"/>
      <point x="99" y="-12"/>
      <point x="224" y="-12" type="curve" smooth="yes"/>
      <point x="352" y="-12"/>
      <point x="424" y="58"/>
      <point x="442" y="143" type="curve"/>
    </contour>
  </outline>
</glyph>
<glyph name="eighttelu" format="2">
  <advance width="604"/>
  <unicode hex="0C6E"/>
  <outline>
    <contour>
      <point x="252" y="-12" type="curve" smooth="yes"/>
      <point x="399" y="-12"/>
      <point x="462" y="82"/>
      <point x="462" y="216" type="curve" smooth="yes"/>
      <point x="462" y="352"/>
      <point x="393" y="439"/>
      <point x="287" y="473" type="curve"/>
      <point x="292" y="465" type="line"/>
      <point x="586" y="465" type="line"/>
      <point x="591" y="490" type="line"/>
      <point x="286" y="490" type="line"/>
      <point x="272" y="460" type="line"/>
      <point x="380" y="417"/>
      <point x="435" y="333"/>
      <point x="435" y="217" type="curve" smooth="yes"/>
      <point x="435" y="92"/>
      <point x="379" y="14"/>
      <point x="253" y="14" type="curve" smooth="yes"/>
      <point x="136" y="14"/>
      <point x="69" y="94"/>
      <point x="69" y="225" type="curve" smooth="yes"/>
      <point x="69" y="300"/>
      <point x="85" y="352"/>
      <point x="126" y="406" type="curve"/>
      <point x="106" y="422" type="line"/>
      <point x="61" y="368"/>
      <point x="42" y="308"/>
      <point x="42" y="225" type="curve" smooth="yes"/>
      <point x="42" y="80"/>
      <point x="124" y="-12"/>
    </contour>
  </outline>
</glyph>
<glyph name="ninetelu" format="2">
  <advance width="519"/>
  <unicode hex="0C6F"/>
  <outline>
    <contour>
      <point x="47" y="125" type="curve" smooth="yes"/>
      <point x="47" y="38"/>
      <point x="107" y="0"/>
      <point x="213" y="0" type="curve" smooth="yes"/>
      <point x="254" y="0" type="line"/>
      <point x="259" y="25" type="line"/>
      <point x="215" y="25" type="line" smooth="yes"/>
      <point x="133" y="25"/>
      <point x="74" y="47"/>
      <point x="74" y="125" type="curve" smooth="yes"/>
      <point x="74" y="202"/>
      <point x="139" y="233"/>
      <point x="232" y="233" type="curve" smooth="yes"/>
      <point x="346" y="233" type="line"/>
      <point x="351" y="258" type="line"/>
      <point x="221" y="258" type="line" smooth="yes"/>
      <point x="126" y="258"/>
      <point x="64" y="287"/>
      <point x="64" y="361" type="curve" smooth="yes"/>
      <point x="64" y="404"/>
      <point x="83" y="427"/>
      <point x="111" y="443" type="curve" smooth="yes"/>
      <point x="139" y="459"/>
      <point x="181" y="465"/>
      <point x="264" y="465" type="curve" smooth="yes"/>
      <point x="501" y="465" type="line"/>
      <point x="506" y="490" type="line"/>
      <point x="258" y="490" type="line" smooth="yes"/>
      <point x="168" y="490"/>
      <point x="123" y="482"/>
      <point x="86" y="458" type="curve" smooth="yes"/>
      <point x="57" y="439"/>
      <point x="37" y="407"/>
      <point x="37" y="361" type="curve" smooth="yes"/>
      <point x="37" y="291"/>
      <point x="89" y="247"/>
      <point x="178" y="239" type="curve"/>
      <point x="188" y="249" type="line"/>
      <point x="101" y="241"/>
      <point x="47" y="201"/>
    </contour>
  </outline>
</glyph>
<glyph name="uni0C77" format="2">
  <advance width="1001"/>
  <unicode hex="0C77"/>
  <outline>
    <contour>
      <point x="94" y="470" type="curve"/>
      <point x="68" y="472" type="line"/>
      <point x="59" y="419"/>
      <point x="55" y="368"/>
      <point x="55" y="319" type="curve" smooth="yes"/>
      <point x="55" y="-6"/>
      <point x="224" y="-195"/>
      <point x="525" y="-195" type="curve" smooth="yes"/>
      <point x="795" y="-195"/>
      <point x="957" y="-26"/>
      <point x="957" y="258" type="curve" smooth="yes"/>
      <point x="957" y="509"/>
      <point x="819" y="667"/>
      <point x="597" y="667" type="curve" smooth="yes"/>
      <point x="389" y="667"/>
      <point x="262" y="533"/>
      <point x="262" y="332" type="curve" smooth="yes"/>
      <point x="262" y="161"/>
      <point x="360" y="57"/>
      <point x="523" y="57" type="curve" smooth="yes"/>
      <point x="663" y="57"/>
      <point x="757" y="135"/>
      <point x="757" y="278" type="curve" smooth="yes"/>
      <point x="757" y="387"/>
      <point x="697" y="459"/>
      <point x="597" y="459" type="curve" smooth="yes"/>
      <point x="508" y="459"/>
      <point x="451" y="400"/>
      <point x="451" y="321" type="curve" smooth="yes"/>
      <point x="451" y="279"/>
      <point x="471" y="259"/>
      <point x="496" y="259" type="curve" smooth="yes"/>
      <point x="518" y="259"/>
      <point x="531" y="270"/>
      <point x="531" y="294" type="curve" smooth="yes"/>
      <point x="531" y="315"/>
      <point x="520" y="329"/>
      <point x="499" y="329" type="curve" smooth="yes"/>
      <point x="484" y="329"/>
      <point x="471" y="319"/>
      <point x="466" y="306" type="curve"/>
      <point x="475" y="317" type="line"/>
      <point x="475" y="392"/>
      <point x="529" y="434"/>
      <point x="597" y="434" type="curve" smooth="yes"/>
      <point x="680" y="434"/>
      <point x="730" y="377"/>
      <point x="730" y="277" type="curve" smooth="yes"/>
      <point x="730" y="153"/>
      <point x="650" y="84"/>
      <point x="523" y="84" type="curve" smooth="yes"/>
      <point x="379" y="84"/>
      <point x="289" y="172"/>
      <point x="289" y="331" type="curve" smooth="yes"/>
      <point x="289" y="521"/>
      <point x="405" y="642"/>
      <point x="597" y="642" type="curve" smooth="yes"/>
      <point x="803" y="642"/>
      <point x="930" y="496"/>
      <point x="930" y="258" type="curve" smooth="yes"/>
      <point x="930" y="-11"/>
      <point x="778" y="-168"/>
      <point x="527" y="-168" type="curve" smooth="yes"/>
      <point x="243" y="-168"/>
      <point x="81" y="6"/>
      <point x="81" y="319" type="curve" smooth="yes"/>
      <point x="81" y="379"/>
      <point x="86" y="425"/>
    </contour>
  </outline>
</glyph>
<glyph name="uni0C78" format="2">
  <advance width="507"/>
  <unicode hex="0C78"/>
  <outline>
    <contour>
      <point x="42" y="282" type="curve" smooth="yes"/>
      <point x="42" y="152"/>
      <point x="120" y="73"/>
      <point x="252" y="73" type="curve" smooth="yes"/>
      <point x="379" y="73"/>
      <point x="465" y="153"/>
      <point x="465" y="281" type="curve" smooth="yes"/>
      <point x="465" y="411"/>
      <point x="381" y="493"/>
      <point x="252" y="493" type="curve" smooth="yes"/>
      <point x="123" y="493"/>
      <point x="42" y="408"/>
    </contour>
    <contour>
      <point x="69" y="282" type="curve" smooth="yes"/>
      <point x="69" y="387"/>
      <point x="130" y="468"/>
      <point x="252" y="468" type="curve" smooth="yes"/>
      <point x="374" y="468"/>
      <point x="438" y="390"/>
      <point x="438" y="281" type="curve" smooth="yes"/>
      <point x="438" y="173"/>
      <point x="373" y="99"/>
      <point x="252" y="99" type="curve" smooth="yes"/>
      <point x="132" y="99"/>
      <point x="69" y="168"/>
    </contour>
    <contour>
      <point x="429" y="-96" type="curve" smooth="yes"/>
      <point x="429" y="-26"/>
      <point x="363" y="27"/>
      <point x="226" y="84" type="curve"/>
      <point x="178" y="84" type="line"/>
      <point x="337" y="14"/>
      <point x="402" y="-32"/>
      <point x="402" y="-97" type="curve" smooth="yes"/>
      <point x="402" y="-140"/>
      <point x="380" y="-158"/>
      <point x="333" y="-190" type="curve"/>
      <point x="349" y="-211" type="line"/>
      <point x="401" y="-175"/>
      <point x="429" y="-150"/>
    </contour>
  </outline>
</glyph>
<glyph name="uni0C79" format="2">
  <advance width="233"/>
  <unicode hex="0C79"/>
  <outline>
    <contour>
      <point x="130" y="0" type="line"/>
      <point x="130" y="489" type="line"/>
      <point x="103" y="489" type="line"/>
      <point x="103" y="0" type="line"/>
    </contour>
  </outline>
</glyph>
<glyph name="uni0C7A" format="2">
  <advance width="420"/>
  <unicode hex="0C7A"/>
  <outline>
    <contour>
      <point x="193" y="173" type="curve" smooth="yes"/>
      <point x="238" y="173"/>
      <point x="302" y="190"/>
      <point x="305" y="306" type="curve"/>
      <point x="300" y="328" type="line"/>
      <point x="300" y="489" type="line"/>
      <point x="293" y="489" type="line"/>
      <point x="293" y="344" type="line" smooth="yes"/>
      <point x="293" y="260"/>
      <point x="273" y="200"/>
      <point x="193" y="200" type="curve" smooth="yes"/>
      <point x="111" y="200"/>
      <point x="96" y="255"/>
      <point x="96" y="347" type="curve" smooth="yes"/>
      <point x="96" y="489" type="line"/>
      <point x="70" y="489" type="line"/>
      <point x="70" y="345" type="line" smooth="yes"/>
      <point x="70" y="241"/>
      <point x="91" y="173"/>
    </contour>
    <contour>
      <point x="319" y="0" type="line"/>
      <point x="319" y="489" type="line"/>
      <point x="293" y="489" type="line"/>
      <point x="293" y="0" type="line"/>
    </contour>
  </outline>
</glyph>
<glyph name="uni0C7B" format="2">
  <advance width="627"/>
  <unicode hex="0C7B"/>
  <outline>
    <contour>
      <point x="189" y="173" type="curve" smooth="yes"/>
      <point x="234" y="173"/>
      <point x="296" y="190"/>
      <point x="299" y="306" type="curve"/>
      <point x="292" y="328" type="line"/>
      <point x="292" y="489" type="line"/>
      <point x="285" y="489" type="line"/>
      <point x="285" y="344" type="line" smooth="yes"/>
      <point x="285" y="260"/>
      <point x="265" y="200"/>
      <point x="189" y="200" type="curve" smooth="yes"/>
      <point x="111" y="200"/>
      <point x="96" y="255"/>
      <point x="96" y="347" type="curve" smooth="yes"/>
      <point x="96" y="489" type="line"/>
      <point x="70" y="489" type="line"/>
      <point x="70" y="345" type="line" smooth="yes"/>
      <point x="70" y="241"/>
      <point x="91" y="173"/>
    </contour>
    <contour>
      <point x="404" y="173" type="curve" smooth="yes"/>
      <point x="445" y="173"/>
      <point x="509" y="190"/>
      <point x="512" y="306" type="curve"/>
      <point x="507" y="328" type="line"/>
      <point x="507" y="489" type="line"/>
      <point x="500" y="489" type="line"/>
      <point x="500" y="344" type="line" smooth="yes"/>
      <point x="500" y="260"/>
      <point x="480" y="200"/>
      <point x="404" y="200" type="curve" smooth="yes"/>
      <point x="326" y="200"/>
      <point x="311" y="255"/>
      <point x="311" y="347" type="curve" smooth="yes"/>
      <point x="311" y="489" type="line"/>
      <point x="285" y="489" type="line"/>
      <point x="285" y="345" type="line" smooth="yes"/>
      <point x="285" y="241"/>
      <point x="306" y="173"/>
    </contour>
    <contour>
      <point x="526" y="0" type="line"/>
      <point x="526" y="489" type="line"/>
      <point x="500" y="489" type="line"/>
      <point x="500" y="0" type="line"/>
    </contour>
  </outline>
</glyph>
<glyph name="uni0C7C" format="2">
  <advance width="564"/>
  <unicode hex="0C7C"/>
  <outline>
    <contour>
      <point x="32" y="236" type="line"/>
      <point x="532" y="236" type="line"/>
      <point x="532" y="262" type="line"/>
      <point x="32" y="262" type="line"/>
    </contour>
  </outline>
</glyph>
<glyph name="uni0C7D" format="2">
  <advance width="522"/>
  <unicode hex="0C7D"/>
  <outline>
    <contour>
      <point x="51" y="116" type="curve" smooth="yes"/>
      <point x="51" y="79"/>
      <point x="62" y="53"/>
      <point x="83" y="35" type="curve" smooth="yes"/>
      <point x="111" y="10"/>
      <point x="152" y="0"/>
      <point x="225" y="0" type="curve" smooth="yes"/>
      <point x="506" y="0" type="line"/>
      <point x="506" y="26" type="line"/>
      <point x="209" y="26" type="line" smooth="yes"/>
      <point x="108" y="26"/>
      <point x="78" y="61"/>
      <point x="78" y="116" type="curve" smooth="yes"/>
      <point x="78" y="184"/>
      <point x="130" y="208"/>
      <point x="255" y="243" type="curve" smooth="yes"/>
      <point x="372" y="276"/>
      <point x="437" y="302"/>
      <point x="437" y="388" type="curve" smooth="yes"/>
      <point x="437" y="424"/>
      <point x="426" y="449"/>
      <point x="406" y="467" type="curve" smooth="yes"/>
      <point x="381" y="490"/>
      <point x="343" y="500"/>
      <point x="276" y="500" type="curve" smooth="yes"/>
      <point x="52" y="500" type="line"/>
      <point x="52" y="474" type="line"/>
      <point x="284" y="474" type="line" smooth="yes"/>
      <point x="386" y="474"/>
      <point x="410" y="438"/>
      <point x="410" y="388" type="curve" smooth="yes"/>
      <point x="410" y="325"/>
      <point x="368" y="302"/>
      <point x="252" y="269" type="curve" smooth="yes"/>
      <point x="123" y="232"/>
      <point x="51" y="203"/>
    </contour>
  </outline>
</glyph>
<glyph name="uni0C7E" format="2">
  <advance width="522"/>
  <unicode hex="0C7E"/>
  <outline>
    <contour>
      <point x="51" y="75" type="curve"/>
      <point x="51" y="49"/>
      <point x="62" y="29"/>
      <point x="76" y="19" type="curve" smooth="yes"/>
      <point x="95" y="6"/>
      <point x="117" y="0"/>
      <point x="168" y="0" type="curve" smooth="yes"/>
      <point x="506" y="0" type="line"/>
      <point x="506" y="26" type="line"/>
      <point x="157" y="26" type="line" smooth="yes"/>
      <point x="100" y="26"/>
      <point x="78" y="41"/>
      <point x="78" y="74" type="curve" smooth="yes"/>
      <point x="78" y="111"/>
      <point x="95" y="133"/>
      <point x="255" y="161" type="curve" smooth="yes"/>
      <point x="396" y="186"/>
      <point x="438" y="202"/>
      <point x="438" y="263" type="curve" smooth="yes"/>
      <point x="438" y="283"/>
      <point x="431" y="300"/>
      <point x="419" y="311" type="curve" smooth="yes"/>
      <point x="400" y="327"/>
      <point x="376" y="332"/>
      <point x="330" y="332" type="curve" smooth="yes"/>
      <point x="147" y="332" type="line" smooth="yes"/>
      <point x="94" y="332"/>
      <point x="78" y="348"/>
      <point x="78" y="374" type="curve" smooth="yes"/>
      <point x="78" y="402"/>
      <point x="88" y="421"/>
      <point x="239" y="447" type="curve" smooth="yes"/>
      <point x="400" y="474"/>
      <point x="438" y="503"/>
      <point x="438" y="558" type="curve" smooth="yes"/>
      <point x="438" y="584"/>
      <point x="426" y="603"/>
      <point x="413" y="613" type="curve" smooth="yes"/>
      <point x="394" y="627"/>
      <point x="371" y="633"/>
      <point x="319" y="633" type="curve" smooth="yes"/>
      <point x="53" y="633" type="line"/>
      <point x="53" y="607" type="line"/>
      <point x="330" y="607" type="line" smooth="yes"/>
      <point x="388" y="607"/>
      <point x="411" y="592"/>
      <point x="411" y="559" type="curve" smooth="yes"/>
      <point x="411" y="522"/>
      <point x="393" y="500"/>
      <point x="235" y="473" type="curve" smooth="yes"/>
      <point x="94" y="447"/>
      <point x="51" y="431"/>
      <point x="51" y="372" type="curve" smooth="yes"/>
      <point x="51" y="354"/>
      <point x="58" y="337"/>
      <point x="70" y="327" type="curve" smooth="yes"/>
      <point x="89" y="311"/>
      <point x="113" y="306"/>
      <point x="167" y="306" type="curve" smooth="yes"/>
      <point x="339" y="306" type="line" smooth="yes"/>
      <point x="394" y="306"/>
      <point x="411" y="290"/>
      <point x="411" y="262" type="curve" smooth="yes"/>
      <point x="411" y="231"/>
      <point x="400" y="213"/>
      <point x="251" y="187" type="curve" smooth="yes"/>
      <point x="89" y="159"/>
      <point x="51" y="131"/>
    </contour>
  </outline>
</glyph>
<glyph name="uni0C7F" format="2">
  <advance width="672"/>
  <unicode hex="0C7F"/>
  <outline>
    <contour>
      <point x="294" y="-12" type="curve" smooth="yes"/>
      <point x="486" y="-12"/>
      <point x="580" y="115"/>
      <point x="641" y="320" type="curve"/>
      <point x="616" y="329" type="line"/>
      <point x="560" y="139"/>
      <point x="477" y="15"/>
      <point x="294" y="15" type="curve" smooth="yes"/>
      <point x="147" y="15"/>
      <point x="79" y="95"/>
      <point x="79" y="252" type="curve" smooth="yes"/>
      <point x="79" y="379"/>
      <point x="137" y="435"/>
      <point x="199" y="468" type="curve"/>
      <point x="193" y="468" type="line"/>
      <point x="156" y="441"/>
      <point x="146" y="415"/>
      <point x="146" y="381" type="curve" smooth="yes"/>
      <point x="146" y="309"/>
      <point x="192" y="274"/>
      <point x="252" y="274" type="curve" smooth="yes"/>
      <point x="314" y="274"/>
      <point x="358" y="316"/>
      <point x="358" y="383" type="curve" smooth="yes"/>
      <point x="358" y="452"/>
      <point x="311" y="493"/>
      <point x="243" y="493" type="curve" smooth="yes"/>
      <point x="158" y="493"/>
      <point x="52" y="419"/>
      <point x="52" y="252" type="curve" smooth="yes"/>
      <point x="52" y="87"/>
      <point x="128" y="-12"/>
    </contour>
    <contour>
      <point x="331" y="383" type="curve" smooth="yes"/>
      <point x="331" y="333"/>
      <point x="304" y="299"/>
      <point x="253" y="299" type="curve" smooth="yes"/>
      <point x="207" y="299"/>
      <point x="171" y="323"/>
      <point x="171" y="383" type="curve" smooth="yes"/>
      <point x="171" y="433"/>
      <point x="202" y="468"/>
      <point x="249" y="468" type="curve" smooth="yes"/>
      <point x="299" y="468"/>
      <point x="331" y="434"/>
    </contour>
  </outline>
</glyph>
<glyph name="uni1CDA" format="2">
  <unicode hex="1CDA"/>
  <outline>
    <contour>
      <point x="-355" y="612" type="line"/>
      <point x="-329" y="612" type="line"/>
      <point x="-329" y="809" type="line"/>
      <point x="-355" y="809" type="line"/>
    </contour>
    <contour>
      <point x="-243" y="612" type="line"/>
      <point x="-217" y="612" type="line"/>
      <point x="-217" y="809" type="line"/>
      <point x="-243" y="809" type="line"/>
    </contour>
  </outline>
</glyph>
<glyph name="uni1CF2" format="2">
  <advance width="425"/>
  <unicode hex="1CF2"/>
  <outline>
    <contour>
      <point x="368" y="425" type="line"/>
      <point x="348" y="328"/>
      <point x="299" y="270"/>
      <point x="210" y="270" type="curve" smooth="yes"/>
      <point x="121" y="270"/>
      <point x="75" y="329"/>
      <point x="55" y="425" type="curve"/>
      <point x="30" y="420" type="line"/>
      <point x="51" y="317"/>
      <point x="105" y="244"/>
      <point x="210" y="244" type="curve" smooth="yes"/>
      <point x="316" y="244"/>
      <point x="373" y="317"/>
      <point x="395" y="419" type="curve"/>
    </contour>
    <contour>
      <point x="57" y="-4" type="line"/>
      <point x="77" y="93"/>
      <point x="126" y="151"/>
      <point x="215" y="151" type="curve" smooth="yes"/>
      <point x="304" y="151"/>
      <point x="350" y="92"/>
      <point x="370" y="-4" type="curve"/>
      <point x="395" y="1" type="line"/>
      <point x="374" y="104"/>
      <point x="320" y="177"/>
      <point x="215" y="177" type="curve" smooth="yes"/>
      <point x="109" y="177"/>
      <point x="52" y="104"/>
      <point x="30" y="2" type="curve"/>
    </contour>
  </outline>
</glyph>
<glyph name="emdash.telu" format="2">
  <advance width="1000"/>
  <unicode hex="2014"/>
  <outline>
    <contour>
      <point x="40" y="239" type="line"/>
      <point x="960" y="239" type="line"/>
      <point x="960" y="265" type="line"/>
      <point x="40" y="265" type="line"/>
    </contour>
  </outline>
</glyph>
<glyph name="quoteleft.telu" format="2">
  <advance width="236"/>
  <unicode hex="2018"/>
  <outline>
    <contour>
      <point x="119" y="548" type="curve"/>
      <point x="138" y="548"/>
      <point x="149" y="560"/>
      <point x="149" y="575" type="curve" smooth="yes"/>
      <point x="149" y="616"/>
      <point x="92" y="604"/>
      <point x="92" y="659" type="curve" smooth="yes"/>
      <point x="92" y="702"/>
      <point x="117" y="733"/>
      <point x="171" y="754" type="curve"/>
      <point x="171" y="779" type="line"/>
      <point x="82" y="744"/>
      <point x="64" y="694"/>
      <point x="64" y="640" type="curve" smooth="yes"/>
      <point x="64" y="579"/>
      <point x="92" y="548"/>
    </contour>
  </outline>
</glyph>
<glyph name="quoteright.telu" format="2">
  <advance width="236"/>
  <unicode hex="2019"/>
  <outline>
    <contour>
      <point x="65" y="546" type="line"/>
      <point x="154" y="581"/>
      <point x="172" y="631"/>
      <point x="172" y="685" type="curve" smooth="yes"/>
      <point x="172" y="746"/>
      <point x="144" y="777"/>
      <point x="117" y="777" type="curve" smooth="yes"/>
      <point x="98" y="777"/>
      <point x="87" y="765"/>
      <point x="87" y="750" type="curve" smooth="yes"/>
      <point x="87" y="709"/>
      <point x="144" y="721"/>
      <point x="144" y="666" type="curve" smooth="yes"/>
      <point x="144" y="623"/>
      <point x="119" y="592"/>
      <point x="65" y="571" type="curve"/>
    </contour>
  </outline>
</glyph>
<glyph name="quotedblleft.telu" format="2">
  <advance width="387"/>
  <unicode hex="201C"/>
  <outline>
    <contour>
      <point x="119" y="548" type="curve" smooth="yes"/>
      <point x="138" y="548"/>
      <point x="149" y="560"/>
      <point x="149" y="575" type="curve" smooth="yes"/>
      <point x="149" y="616"/>
      <point x="92" y="604"/>
      <point x="92" y="659" type="curve" smooth="yes"/>
      <point x="92" y="702"/>
      <point x="117" y="733"/>
      <point x="171" y="754" type="curve"/>
      <point x="171" y="779" type="line"/>
      <point x="82" y="744"/>
      <point x="64" y="694"/>
      <point x="64" y="640" type="curve" smooth="yes"/>
      <point x="64" y="579"/>
      <point x="92" y="548"/>
    </contour>
    <contour>
      <point x="270" y="548" type="curve" smooth="yes"/>
      <point x="289" y="548"/>
      <point x="300" y="560"/>
      <point x="300" y="575" type="curve" smooth="yes"/>
      <point x="300" y="616"/>
      <point x="243" y="604"/>
      <point x="243" y="659" type="curve" smooth="yes"/>
      <point x="243" y="702"/>
      <point x="268" y="733"/>
      <point x="322" y="754" type="curve"/>
      <point x="322" y="779" type="line"/>
      <point x="233" y="744"/>
      <point x="215" y="694"/>
      <point x="215" y="640" type="curve" smooth="yes"/>
      <point x="215" y="579"/>
      <point x="243" y="548"/>
    </contour>
  </outline>
</glyph>
<glyph name="quotedblright.telu" format="2">
  <advance width="387"/>
  <unicode hex="201D"/>
  <outline>
    <contour>
      <point x="65" y="542" type="line"/>
      <point x="154" y="577"/>
      <point x="172" y="627"/>
      <point x="172" y="681" type="curve" smooth="yes"/>
      <point x="172" y="742"/>
      <point x="144" y="773"/>
      <point x="117" y="773" type="curve" smooth="yes"/>
      <point x="98" y="773"/>
      <point x="87" y="761"/>
      <point x="87" y="746" type="curve" smooth="yes"/>
      <point x="87" y="705"/>
      <point x="144" y="717"/>
      <point x="144" y="662" type="curve" smooth="yes"/>
      <point x="144" y="619"/>
      <point x="119" y="588"/>
      <point x="65" y="567" type="curve"/>
    </contour>
    <contour>
      <point x="216" y="542" type="line"/>
      <point x="305" y="577"/>
      <point x="323" y="627"/>
      <point x="323" y="681" type="curve" smooth="yes"/>
      <point x="323" y="742"/>
      <point x="295" y="773"/>
      <point x="268" y="773" type="curve" smooth="yes"/>
      <point x="249" y="773"/>
      <point x="238" y="761"/>
      <point x="238" y="746" type="curve" smooth="yes"/>
      <point x="238" y="705"/>
      <point x="295" y="717"/>
      <point x="295" y="662" type="curve" smooth="yes"/>
      <point x="295" y="619"/>
      <point x="270" y="588"/>
      <point x="216" y="567" type="curve"/>
    </contour>
  </outline>
</glyph>
<glyph name="uni20B9.telu" format="2">
  <advance width="559"/>
  <unicode hex="20B9"/>
  <outline>
    <contour>
      <point x="365" y="0" type="curve" smooth="yes"/>
      <point x="387" y="0" type="line"/>
      <point x="387" y="26" type="line"/>
      <point x="364" y="26" type="line" smooth="yes"/>
      <point x="312" y="26"/>
      <point x="282" y="52"/>
      <point x="248" y="99" type="curve" smooth="yes"/>
      <point x="105" y="295" type="line"/>
      <point x="301" y="295"/>
      <point x="364" y="375"/>
      <point x="369" y="464" type="curve"/>
      <point x="511" y="464" type="line"/>
      <point x="511" y="489" type="line"/>
      <point x="368" y="489" type="line"/>
      <point x="365" y="550"/>
      <point x="328" y="610"/>
      <point x="267" y="626" type="curve"/>
      <point x="511" y="626" type="line"/>
      <point x="511" y="651" type="line"/>
      <point x="52" y="651" type="line"/>
      <point x="52" y="626" type="line"/>
      <point x="158" y="626" type="line" smooth="yes"/>
      <point x="309" y="626"/>
      <point x="336" y="544"/>
      <point x="342" y="489" type="curve"/>
      <point x="52" y="489" type="line"/>
      <point x="52" y="464" type="line"/>
      <point x="343" y="464" type="line"/>
      <point x="341" y="386"/>
      <point x="272" y="320"/>
      <point x="114" y="320" type="curve" smooth="yes"/>
      <point x="58" y="320" type="line"/>
      <point x="58" y="316" type="line"/>
      <point x="221" y="88" type="line" smooth="yes"/>
      <point x="256" y="38"/>
      <point x="298" y="0"/>
    </contour>
  </outline>
</glyph>
<glyph name="minus.telu" format="2">
  <advance width="559"/>
  <unicode hex="2212"/>
  <outline>
    <contour>
      <point x="65" y="312" type="line"/>
      <point x="494" y="312" type="line"/>
      <point x="494" y="340" type="line"/>
      <point x="65" y="340" type="line"/>
    </contour>
  </outline>
</glyph>
<glyph name="aavowelsign1telu" format="2">
  <advance width="881"/>
  <outline>
    <contour>
      <point x="716" y="493" type="curve" smooth="yes"/>
      <point x="307" y="493" type="line"/>
      <point x="302" y="469" type="line"/>
      <point x="704" y="469" type="line"/>
      <point x="694" y="473" type="line"/>
      <point x="657" y="450"/>
      <point x="642" y="420"/>
      <point x="642" y="381" type="curve" smooth="yes"/>
      <point x="642" y="309"/>
      <point x="688" y="274"/>
      <point x="749" y="274" type="curve" smooth="yes"/>
      <point x="811" y="274"/>
      <point x="855" y="316"/>
      <point x="855" y="382" type="curve" smooth="yes"/>
      <point x="855" y="413"/>
      <point x="845" y="440"/>
      <point x="829" y="457" type="curve" smooth="yes"/>
      <point x="803" y="484"/>
      <point x="776" y="493"/>
    </contour>
    <contour>
      <point x="828" y="383" type="curve" smooth="yes"/>
      <point x="828" y="333"/>
      <point x="801" y="299"/>
      <point x="750" y="299" type="curve" smooth="yes"/>
      <point x="704" y="299"/>
      <point x="668" y="323"/>
      <point x="668" y="383" type="curve" smooth="yes"/>
      <point x="668" y="433"/>
      <point x="699" y="468"/>
      <point x="746" y="468" type="curve" smooth="yes"/>
      <point x="796" y="468"/>
      <point x="828" y="434"/>
    </contour>
  </outline>
</glyph>
<glyph name="aavowelsign2telu" format="2">
  <advance width="920"/>
  <outline>
    <contour>
      <point x="760" y="491" type="curve" smooth="yes"/>
      <point x="132" y="491" type="line"/>
      <point x="127" y="467" type="line"/>
      <point x="748" y="467" type="line"/>
      <point x="738" y="471" type="line"/>
      <point x="701" y="448"/>
      <point x="686" y="418"/>
      <point x="686" y="379" type="curve" smooth="yes"/>
      <point x="686" y="307"/>
      <point x="732" y="272"/>
      <point x="793" y="272" type="curve" smooth="yes"/>
      <point x="855" y="272"/>
      <point x="899" y="314"/>
      <point x="899" y="380" type="curve" smooth="yes"/>
      <point x="899" y="411"/>
      <point x="889" y="438"/>
      <point x="873" y="455" type="curve" smooth="yes"/>
      <point x="847" y="482"/>
      <point x="820" y="491"/>
    </contour>
    <contour>
      <point x="872" y="381" type="curve" smooth="yes"/>
      <point x="872" y="331"/>
      <point x="845" y="297"/>
      <point x="794" y="297" type="curve" smooth="yes"/>
      <point x="748" y="297"/>
      <point x="712" y="321"/>
      <point x="712" y="381" type="curve" smooth="yes"/>
      <point x="712" y="431"/>
      <point x="743" y="466"/>
      <point x="790" y="466" type="curve" smooth="yes"/>
      <point x="840" y="466"/>
      <point x="872" y="432"/>
    </contour>
  </outline>
</glyph>
